<?xml version='1.0' encoding='utf-8'?>
<mlt LC_NUMERIC="C" producer="main_bin" root="/run/media/uberdev/edrv/raw_videos/Revealing_code_behind_notion_mcp" version="7.28.0">
 <profile colorspace="709" description="HD 1080p 30 fps" display_aspect_den="9" display_aspect_num="16" frame_rate_den="1" frame_rate_num="30" height="1080" progressive="1" sample_aspect_den="1" sample_aspect_num="1" width="1920"/>
 <producer id="producer1" in="00:00:00.000" out="00:00:04.967">
  <property name="length">00:00:05.000</property>
  <property name="eof">pause</property>
  <property name="resource">02_Assets/thumbnails/mcp_code_wt.png</property>
  <property name="ttl">25</property>
  <property name="aspect_ratio">1</property>
  <property name="meta.media.progressive">1</property>
  <property name="seekable">1</property>
  <property name="format">2</property>
  <property name="meta.media.width">1280</property>
  <property name="meta.media.height">720</property>
  <property name="mlt_service">qimage</property>
  <property name="kdenlive:duration">00:00:05.000</property>
  <property name="xml">was here</property>
  <property name="kdenlive:folderid">4</property>
  <property name="kdenlive:id">5</property>
  <property name="kdenlive:control_uuid">{84374d58-7f5d-41e1-abb9-1e71c0dfffc9}</property>
  <property name="kdenlive:clip_type">2</property>
  <property name="kdenlive:file_size">524899</property>
  <property name="kdenlive:file_hash">da86f8e9bbb85dac89b0d1e1263d47d2</property>
  <property name="kdenlive:monitorPosition">0</property>
  <filter id="filter8">
   <property name="rotate_center">1</property>
   <property name="mlt_service">qtblend</property>
   <property name="kdenlive_id">qtblend</property>
   <property name="compositing">0</property>
   <property name="distort">0</property>
   <property name="rect">0=0 0 1280 720 1</property>
   <property name="rotation">0=0</property>
   <property name="disable">1</property>
   <property name="kdenlive:kfrhidden">1</property>
   <property name="kdenlive:collapsed">1</property>
   <property name="kdenlive:builtin">1</property>
  </filter>
 </producer>
 <producer id="producer2" in="00:00:00.000" out="00:00:04.967">
  <property name="length">00:00:05.000</property>
  <property name="eof">pause</property>
  <property name="resource">02_Assets/ppt/design_tool.png</property>
  <property name="ttl">25</property>
  <property name="aspect_ratio">1</property>
  <property name="meta.media.progressive">1</property>
  <property name="seekable">1</property>
  <property name="format">1</property>
  <property name="meta.media.width">1920</property>
  <property name="meta.media.height">1080</property>
  <property name="mlt_service">qimage</property>
  <property name="kdenlive:duration">00:00:05.000</property>
  <property name="xml">was here</property>
  <property name="kdenlive:folderid">6</property>
  <property name="kdenlive:id">7</property>
  <property name="kdenlive:control_uuid">{10b36e3c-b527-48ff-b98d-1e3cc73bdd90}</property>
  <property name="kdenlive:clip_type">2</property>
  <property name="kdenlive:file_size">186747</property>
  <property name="kdenlive:file_hash">d11e5f7894da8162cf96d28f7cd827a1</property>
  <property name="kdenlive:monitorPosition">0</property>
  <filter id="filter0">
   <property name="rotate_center">1</property>
   <property name="mlt_service">qtblend</property>
   <property name="kdenlive_id">qtblend</property>
   <property name="compositing">0</property>
   <property name="distort">0</property>
   <property name="rect">0=0 0 1920 1080 1</property>
   <property name="rotation">0=0</property>
   <property name="disable">1</property>
   <property name="kdenlive:kfrhidden">1</property>
   <property name="kdenlive:collapsed">1</property>
   <property name="kdenlive:builtin">1</property>
  </filter>
 </producer>
 <producer id="producer3" in="00:00:00.000" out="00:00:04.967">
  <property name="length">00:00:05.000</property>
  <property name="eof">pause</property>
  <property name="resource">02_Assets/ppt/fn_anatomy.png</property>
  <property name="ttl">25</property>
  <property name="aspect_ratio">1</property>
  <property name="meta.media.progressive">1</property>
  <property name="seekable">1</property>
  <property name="format">2</property>
  <property name="meta.media.width">1920</property>
  <property name="meta.media.height">1080</property>
  <property name="mlt_service">qimage</property>
  <property name="kdenlive:duration">00:00:05.000</property>
  <property name="xml">was here</property>
  <property name="kdenlive:folderid">6</property>
  <property name="kdenlive:id">8</property>
  <property name="kdenlive:control_uuid">{f9f865f8-129c-4a71-9a0b-6912cb710af1}</property>
  <property name="kdenlive:clip_type">2</property>
  <property name="kdenlive:file_size">90983</property>
  <property name="kdenlive:file_hash">b1dceac9ba9b164faa084cc48097f7cf</property>
  <property name="kdenlive:monitorPosition">0</property>
  <filter id="filter1">
   <property name="rotate_center">1</property>
   <property name="mlt_service">qtblend</property>
   <property name="kdenlive_id">qtblend</property>
   <property name="compositing">0</property>
   <property name="distort">0</property>
   <property name="rect">0=0 0 1920 1080 1</property>
   <property name="rotation">0=0</property>
   <property name="disable">1</property>
   <property name="kdenlive:kfrhidden">1</property>
   <property name="kdenlive:collapsed">1</property>
   <property name="kdenlive:builtin">1</property>
  </filter>
 </producer>
 <producer id="producer4" in="00:00:00.000" out="00:00:11.667">
  <property name="length">351</property>
  <property name="eof">pause</property>
  <property name="resource">02_Assets/ppt/intent_extraction.png</property>
  <property name="ttl">25</property>
  <property name="aspect_ratio">1</property>
  <property name="meta.media.progressive">1</property>
  <property name="seekable">1</property>
  <property name="format">1</property>
  <property name="meta.media.width">1920</property>
  <property name="meta.media.height">1080</property>
  <property name="mlt_service">qimage</property>
  <property name="kdenlive:duration">00:00:05.000</property>
  <property name="xml">was here</property>
  <property name="kdenlive:folderid">6</property>
  <property name="kdenlive:id">9</property>
  <property name="kdenlive:control_uuid">{821b7235-ad7b-41b1-9694-362110a2c27d}</property>
  <property name="kdenlive:clip_type">2</property>
  <property name="kdenlive:file_size">126549</property>
  <property name="kdenlive:file_hash">b2df5e8c5c55bd0f3bb1342e662bdca9</property>
  <property name="kdenlive:monitorPosition">0</property>
  <filter id="filter2">
   <property name="rotate_center">1</property>
   <property name="mlt_service">qtblend</property>
   <property name="kdenlive_id">qtblend</property>
   <property name="compositing">0</property>
   <property name="distort">0</property>
   <property name="rect">0=0 0 1920 1080 1</property>
   <property name="rotation">0=0</property>
   <property name="disable">1</property>
   <property name="kdenlive:kfrhidden">1</property>
   <property name="kdenlive:collapsed">1</property>
   <property name="kdenlive:builtin">1</property>
  </filter>
 </producer>
 <producer id="producer5" in="00:00:00.000" out="00:00:11.900">
  <property name="length">358</property>
  <property name="eof">pause</property>
  <property name="resource">02_Assets/ppt/intent_extraction_f.png</property>
  <property name="ttl">25</property>
  <property name="aspect_ratio">1</property>
  <property name="meta.media.progressive">1</property>
  <property name="seekable">1</property>
  <property name="format">2</property>
  <property name="meta.media.width">1920</property>
  <property name="meta.media.height">1080</property>
  <property name="mlt_service">qimage</property>
  <property name="kdenlive:duration">00:00:05.000</property>
  <property name="xml">was here</property>
  <property name="kdenlive:folderid">6</property>
  <property name="kdenlive:id">10</property>
  <property name="kdenlive:control_uuid">{8b3668d2-9dbe-4284-83a1-0550d69546e9}</property>
  <property name="kdenlive:clip_type">2</property>
  <property name="kdenlive:file_size">184233</property>
  <property name="kdenlive:file_hash">d8c030af56c8e850ceb83537106a40e6</property>
  <property name="kdenlive:monitorPosition">22</property>
  <filter id="filter3">
   <property name="rotate_center">1</property>
   <property name="mlt_service">qtblend</property>
   <property name="kdenlive_id">qtblend</property>
   <property name="compositing">0</property>
   <property name="distort">0</property>
   <property name="rect">0=0 0 1920 1080 1</property>
   <property name="rotation">0=0</property>
   <property name="disable">1</property>
   <property name="kdenlive:kfrhidden">1</property>
   <property name="kdenlive:collapsed">1</property>
   <property name="kdenlive:builtin">1</property>
  </filter>
 </producer>
 <producer id="producer6" in="00:00:00.000" out="00:00:20.800">
  <property name="length">625</property>
  <property name="eof">pause</property>
  <property name="resource">02_Assets/ppt/intent_extraction_s.png</property>
  <property name="ttl">25</property>
  <property name="aspect_ratio">1</property>
  <property name="meta.media.progressive">1</property>
  <property name="seekable">1</property>
  <property name="format">2</property>
  <property name="meta.media.width">1920</property>
  <property name="meta.media.height">1080</property>
  <property name="mlt_service">qimage</property>
  <property name="kdenlive:duration">00:00:05.000</property>
  <property name="xml">was here</property>
  <property name="kdenlive:folderid">6</property>
  <property name="kdenlive:id">11</property>
  <property name="kdenlive:control_uuid">{286f06b7-d6ab-4a31-99f5-54b1cb1e1ba6}</property>
  <property name="kdenlive:clip_type">2</property>
  <property name="kdenlive:file_size">236090</property>
  <property name="kdenlive:file_hash">12eae2d0a0f076f299da0b5529db06ff</property>
  <property name="kdenlive:monitorPosition">280</property>
  <filter id="filter4">
   <property name="rotate_center">1</property>
   <property name="mlt_service">qtblend</property>
   <property name="kdenlive_id">qtblend</property>
   <property name="compositing">0</property>
   <property name="distort">0</property>
   <property name="rect">0=0 0 1920 1080 1</property>
   <property name="rotation">0=0</property>
   <property name="disable">1</property>
   <property name="kdenlive:kfrhidden">1</property>
   <property name="kdenlive:collapsed">1</property>
   <property name="kdenlive:builtin">1</property>
  </filter>
 </producer>
 <producer id="producer17" in="00:00:00.000" out="00:00:32.100">
  <property name="length">964</property>
  <property name="eof">pause</property>
  <property name="resource">02_Assets/ppt/IntentVsInstruction.png</property>
  <property name="ttl">25</property>
  <property name="aspect_ratio">1</property>
  <property name="meta.media.progressive">1</property>
  <property name="seekable">1</property>
  <property name="format">1</property>
  <property name="meta.media.width">1920</property>
  <property name="meta.media.height">1080</property>
  <property name="mlt_service">qimage</property>
  <property name="kdenlive:duration">00:00:05.000</property>
  <property name="xml">was here</property>
  <property name="kdenlive:folderid">6</property>
  <property name="kdenlive:id">12</property>
  <property name="kdenlive:control_uuid">{d83d2a2e-7e3f-4996-9576-153c632eee58}</property>
  <property name="kdenlive:clip_type">2</property>
  <property name="kdenlive:file_size">97499</property>
  <property name="kdenlive:file_hash">5d1d95c22e42fec348975a2634870d33</property>
  <property name="kdenlive:monitorPosition">149</property>
  <filter id="filter5">
   <property name="rotate_center">1</property>
   <property name="mlt_service">qtblend</property>
   <property name="kdenlive_id">qtblend</property>
   <property name="compositing">0</property>
   <property name="distort">0</property>
   <property name="rect">0=0 0 1920 1080 1</property>
   <property name="rotation">0=0</property>
   <property name="disable">1</property>
   <property name="kdenlive:kfrhidden">1</property>
   <property name="kdenlive:collapsed">1</property>
   <property name="kdenlive:builtin">1</property>
  </filter>
 </producer>
 <chain id="chain3" out="00:00:07.067">
  <property name="length">213</property>
  <property name="eof">pause</property>
  <property name="resource">/run/media/uberdev/edrv/vid_editor_content/stock_footages/actions_footages/jumps/boy_jump_3840_2160_24fps.mp4</property>
  <property name="mlt_service">avformat-novalidate</property>
  <property name="meta.media.nb_streams">2</property>
  <property name="meta.media.0.stream.type">video</property>
  <property name="meta.media.0.stream.frame_rate">23.976</property>
  <property name="meta.media.0.stream.sample_aspect_ratio">0</property>
  <property name="meta.media.0.codec.width">3840</property>
  <property name="meta.media.0.codec.height">2160</property>
  <property name="meta.media.0.codec.rotate">0</property>
  <property name="meta.media.0.codec.pix_fmt">yuv420p</property>
  <property name="meta.media.0.codec.sample_aspect_ratio">0</property>
  <property name="meta.media.0.codec.colorspace">709</property>
  <property name="meta.media.0.codec.color_trc">1</property>
  <property name="meta.media.0.codec.name">h264</property>
  <property name="meta.media.0.codec.long_name">H.264 / AVC / MPEG-4 AVC / MPEG-4 part 10</property>
  <property name="meta.media.0.codec.bit_rate">21195637</property>
  <property name="meta.attr.0.stream.creation_time.markup">2020-02-04T16:22:25.000000Z</property>
  <property name="meta.attr.0.stream.handler_name.markup">L-SMASH Video Handler</property>
  <property name="meta.attr.0.stream.vendor_id.markup">[0][0][0][0]</property>
  <property name="meta.attr.0.stream.encoder.markup">AVC Coding</property>
  <property name="meta.media.1.stream.type">audio</property>
  <property name="meta.media.1.codec.sample_fmt">fltp</property>
  <property name="meta.media.1.codec.sample_rate">48000</property>
  <property name="meta.media.1.codec.channels">2</property>
  <property name="meta.media.1.codec.layout">stereo</property>
  <property name="meta.media.1.codec.name">aac</property>
  <property name="meta.media.1.codec.long_name">AAC (Advanced Audio Coding)</property>
  <property name="meta.media.1.codec.bit_rate">253375</property>
  <property name="meta.attr.1.stream.creation_time.markup">2020-02-04T16:22:25.000000Z</property>
  <property name="meta.attr.1.stream.handler_name.markup">L-SMASH Audio Handler</property>
  <property name="meta.attr.1.stream.vendor_id.markup">[0][0][0][0]</property>
  <property name="meta.attr.major_brand.markup">mp42</property>
  <property name="meta.attr.minor_version.markup">0</property>
  <property name="meta.attr.compatible_brands.markup">mp42mp41isomavc1</property>
  <property name="meta.attr.creation_time.markup">2020-02-04T16:22:25.000000Z</property>
  <property name="seekable">1</property>
  <property name="meta.media.sample_aspect_num">1</property>
  <property name="meta.media.sample_aspect_den">1</property>
  <property name="format">3</property>
  <property name="audio_index">1</property>
  <property name="video_index">0</property>
  <property name="vstream">0</property>
  <property name="meta.media.frame_rate_num">24000</property>
  <property name="meta.media.frame_rate_den">1001</property>
  <property name="meta.media.colorspace">709</property>
  <property name="meta.media.color_trc">1</property>
  <property name="meta.media.has_b_frames">2</property>
  <property name="meta.media.width">3840</property>
  <property name="meta.media.height">2160</property>
  <property name="meta.media.aspect_ratio">1</property>
  <property name="meta.media.color_range">mpeg</property>
  <property name="astream">0</property>
  <property name="meta.media.top_field_first">0</property>
  <property name="meta.media.progressive">1</property>
  <property name="kdenlive:control_uuid">{f2bb2430-6422-4899-b6f1-4b1cb89fa3fc}</property>
  <property name="kdenlive:id">18</property>
  <property name="kdenlive:clip_type">0</property>
  <property name="kdenlive:file_size">19015651</property>
  <property name="kdenlive:file_hash">5bf509d6d23e554ec98f0abecc418d08</property>
  <property name="kdenlive:folderid">13</property>
  <property name="kdenlive:audio_max1">1</property>
  <property name="mute_on_pause">0</property>
  <property name="kdenlive:monitorPosition">191</property>
  <property name="kdenlive:zone_in">54</property>
  <property name="kdenlive:zone_out">192</property>
  <property name="kdenlive:clipzones">[
    {
        "in": 54,
        "name": "Zone 1",
        "out": 191
    }
]
</property>
  <filter id="filter12">
   <property name="rotate_center">1</property>
   <property name="mlt_service">qtblend</property>
   <property name="kdenlive_id">qtblend</property>
   <property name="compositing">0</property>
   <property name="distort">0</property>
   <property name="rect">0=0 0 1280 720 1</property>
   <property name="rotation">0=0</property>
   <property name="disable">1</property>
   <property name="kdenlive:kfrhidden">1</property>
   <property name="kdenlive:collapsed">1</property>
   <property name="kdenlive:builtin">1</property>
  </filter>
  <filter id="filter13">
   <property name="window">75</property>
   <property name="max_gain">20dB</property>
   <property name="level">0=0</property>
   <property name="mlt_service">volume</property>
   <property name="kdenlive_id">volume</property>
   <property name="disable">1</property>
   <property name="kdenlive:kfrhidden">1</property>
   <property name="kdenlive:builtin">1</property>
   <property name="kdenlive:collapsed">0</property>
  </filter>
 </chain>
 <chain id="chain0" out="00:00:19.967">
  <property name="length">600</property>
  <property name="eof">pause</property>
  <property name="resource">/run/media/uberdev/edrv/vid_editor_content/sound_effects/action_footages/bg_motions/3141210-hd_1280_720_25fps.mp4</property>
  <property name="mlt_service">avformat-novalidate</property>
  <property name="meta.media.nb_streams">1</property>
  <property name="meta.media.0.stream.type">video</property>
  <property name="meta.media.0.stream.frame_rate">25</property>
  <property name="meta.media.0.stream.sample_aspect_ratio">0</property>
  <property name="meta.media.0.codec.width">1280</property>
  <property name="meta.media.0.codec.height">720</property>
  <property name="meta.media.0.codec.rotate">0</property>
  <property name="meta.media.0.codec.pix_fmt">yuv420p</property>
  <property name="meta.media.0.codec.sample_aspect_ratio">0</property>
  <property name="meta.media.0.codec.colorspace">709</property>
  <property name="meta.media.0.codec.color_trc">1</property>
  <property name="meta.media.0.codec.name">h264</property>
  <property name="meta.media.0.codec.long_name">H.264 / AVC / MPEG-4 AVC / MPEG-4 part 10</property>
  <property name="meta.media.0.codec.bit_rate">2745589</property>
  <property name="meta.attr.0.stream.creation_time.markup">2019-10-28T08:53:30.000000Z</property>
  <property name="meta.attr.0.stream.handler_name.markup">L-SMASH Video Handler</property>
  <property name="meta.attr.0.stream.vendor_id.markup">[0][0][0][0]</property>
  <property name="meta.attr.0.stream.encoder.markup">AVC Coding</property>
  <property name="meta.attr.major_brand.markup">mp42</property>
  <property name="meta.attr.minor_version.markup">0</property>
  <property name="meta.attr.compatible_brands.markup">mp42mp41isomavc1</property>
  <property name="meta.attr.creation_time.markup">2019-10-28T08:53:30.000000Z</property>
  <property name="seekable">1</property>
  <property name="meta.media.sample_aspect_num">1</property>
  <property name="meta.media.sample_aspect_den">1</property>
  <property name="format">3</property>
  <property name="audio_index">-1</property>
  <property name="video_index">0</property>
  <property name="vstream">0</property>
  <property name="meta.media.frame_rate_num">25</property>
  <property name="meta.media.frame_rate_den">1</property>
  <property name="meta.media.colorspace">709</property>
  <property name="meta.media.color_trc">1</property>
  <property name="meta.media.has_b_frames">2</property>
  <property name="meta.media.width">1280</property>
  <property name="meta.media.height">720</property>
  <property name="meta.media.aspect_ratio">1</property>
  <property name="meta.media.color_range">mpeg</property>
  <property name="meta.media.top_field_first">0</property>
  <property name="meta.media.progressive">1</property>
  <property name="kdenlive:control_uuid">{aba893a6-cb50-4632-8643-abb1ea59d8da}</property>
  <property name="kdenlive:id">20</property>
  <property name="kdenlive:clip_type">2</property>
  <property name="kdenlive:file_size">6871384</property>
  <property name="kdenlive:file_hash">28bf8f5daf71a4ffc8c5c37a4431c174</property>
  <property name="kdenlive:folderid">14</property>
  <property name="mute_on_pause">0</property>
  <property name="kdenlive:zone_in">60</property>
  <property name="kdenlive:zone_out">211</property>
  <property name="kdenlive:clipzones">[
    {
        "in": 60,
        "name": "Zone 1",
        "out": 150
    },
    {
        "in": 60,
        "name": "Zone 2",
        "out": 210
    }
]
</property>
  <property name="kdenlive:monitorPosition">210</property>
  <filter id="filter9">
   <property name="rotate_center">1</property>
   <property name="mlt_service">qtblend</property>
   <property name="kdenlive_id">qtblend</property>
   <property name="compositing">0</property>
   <property name="distort">0</property>
   <property name="rect">0=0 0 1280 720 1</property>
   <property name="rotation">0=0</property>
   <property name="disable">1</property>
   <property name="kdenlive:kfrhidden">1</property>
   <property name="kdenlive:collapsed">1</property>
   <property name="kdenlive:builtin">1</property>
  </filter>
 </chain>
 <chain id="chain1" out="00:00:29.967">
  <property name="length">900</property>
  <property name="eof">pause</property>
  <property name="resource">/run/media/uberdev/edrv/vid_editor_content/sound_effects/action_footages/bg_motions/3163534-hd_1280_720_30fps.mp4</property>
  <property name="mlt_service">avformat-novalidate</property>
  <property name="meta.media.nb_streams">1</property>
  <property name="meta.media.0.stream.type">video</property>
  <property name="meta.media.0.stream.frame_rate">30</property>
  <property name="meta.media.0.stream.sample_aspect_ratio">0</property>
  <property name="meta.media.0.codec.width">1280</property>
  <property name="meta.media.0.codec.height">720</property>
  <property name="meta.media.0.codec.rotate">0</property>
  <property name="meta.media.0.codec.pix_fmt">yuv420p</property>
  <property name="meta.media.0.codec.sample_aspect_ratio">0</property>
  <property name="meta.media.0.codec.colorspace">709</property>
  <property name="meta.media.0.codec.color_trc">1</property>
  <property name="meta.media.0.codec.name">h264</property>
  <property name="meta.media.0.codec.long_name">H.264 / AVC / MPEG-4 AVC / MPEG-4 part 10</property>
  <property name="meta.media.0.codec.bit_rate">2818322</property>
  <property name="meta.attr.0.stream.creation_time.markup">2019-11-02T08:32:54.000000Z</property>
  <property name="meta.attr.0.stream.handler_name.markup">L-SMASH Video Handler</property>
  <property name="meta.attr.0.stream.vendor_id.markup">[0][0][0][0]</property>
  <property name="meta.attr.0.stream.encoder.markup">AVC Coding</property>
  <property name="meta.attr.major_brand.markup">mp42</property>
  <property name="meta.attr.minor_version.markup">0</property>
  <property name="meta.attr.compatible_brands.markup">mp42mp41isomavc1</property>
  <property name="meta.attr.creation_time.markup">2019-11-02T08:32:54.000000Z</property>
  <property name="seekable">1</property>
  <property name="meta.media.sample_aspect_num">1</property>
  <property name="meta.media.sample_aspect_den">1</property>
  <property name="format">3</property>
  <property name="audio_index">-1</property>
  <property name="video_index">0</property>
  <property name="vstream">0</property>
  <property name="meta.media.frame_rate_num">30</property>
  <property name="meta.media.frame_rate_den">1</property>
  <property name="meta.media.colorspace">709</property>
  <property name="meta.media.color_trc">1</property>
  <property name="meta.media.has_b_frames">2</property>
  <property name="meta.media.width">1280</property>
  <property name="meta.media.height">720</property>
  <property name="meta.media.aspect_ratio">1</property>
  <property name="meta.media.color_range">mpeg</property>
  <property name="meta.media.top_field_first">0</property>
  <property name="meta.media.progressive">1</property>
  <property name="kdenlive:control_uuid">{d73a5039-3b55-46a7-8f1f-6c62c4294bee}</property>
  <property name="kdenlive:id">24</property>
  <property name="kdenlive:clip_type">2</property>
  <property name="kdenlive:file_size">10581309</property>
  <property name="kdenlive:file_hash">15c1a2d0f64e49b6feb1f8a19ce79950</property>
  <property name="kdenlive:folderid">14</property>
  <property name="mute_on_pause">0</property>
  <property name="kdenlive:monitorPosition">325</property>
  <property name="kdenlive:zone_in">175</property>
  <property name="kdenlive:zone_out">326</property>
  <property name="kdenlive:clipzones">[
    {
        "in": 175,
        "name": "Zone 1",
        "out": 325
    }
]
</property>
  <filter id="filter6">
   <property name="rotate_center">1</property>
   <property name="mlt_service">qtblend</property>
   <property name="kdenlive_id">qtblend</property>
   <property name="compositing">0</property>
   <property name="distort">0</property>
   <property name="rect">0=0 0 1920 1080 1</property>
   <property name="rotation">0=0</property>
   <property name="disable">1</property>
   <property name="kdenlive:kfrhidden">1</property>
   <property name="kdenlive:collapsed">1</property>
   <property name="kdenlive:builtin">1</property>
  </filter>
 </chain>
 <chain id="chain2" out="00:00:04.367">
  <property name="length">132</property>
  <property name="eof">pause</property>
  <property name="resource">/run/media/uberdev/edrv/vid_editor_content/stock_footages_01/cliff_height/13489521_720_1280_30fps.mp4</property>
  <property name="mlt_service">avformat-novalidate</property>
  <property name="meta.media.nb_streams">1</property>
  <property name="meta.media.0.stream.type">video</property>
  <property name="meta.media.0.stream.frame_rate">30</property>
  <property name="meta.media.0.stream.sample_aspect_ratio">0</property>
  <property name="meta.media.0.codec.width">720</property>
  <property name="meta.media.0.codec.height">1280</property>
  <property name="meta.media.0.codec.rotate">0</property>
  <property name="meta.media.0.codec.pix_fmt">yuv420p</property>
  <property name="meta.media.0.codec.sample_aspect_ratio">0</property>
  <property name="meta.media.0.codec.colorspace">709</property>
  <property name="meta.media.0.codec.color_trc">1</property>
  <property name="meta.media.0.codec.name">h264</property>
  <property name="meta.media.0.codec.long_name">H.264 / AVC / MPEG-4 AVC / MPEG-4 part 10</property>
  <property name="meta.media.0.codec.bit_rate">3004451</property>
  <property name="meta.attr.0.stream.handler_name.markup">Core Media Video</property>
  <property name="meta.attr.0.stream.vendor_id.markup">[0][0][0][0]</property>
  <property name="meta.attr.0.stream.encoder.markup">Lavc60.31.102 libx264</property>
  <property name="meta.attr.major_brand.markup">iso5</property>
  <property name="meta.attr.minor_version.markup">512</property>
  <property name="meta.attr.compatible_brands.markup">iso5iso6mp41</property>
  <property name="meta.attr.encoder.markup">Lavf60.16.100</property>
  <property name="seekable">1</property>
  <property name="meta.media.sample_aspect_num">1</property>
  <property name="meta.media.sample_aspect_den">1</property>
  <property name="format">3</property>
  <property name="audio_index">-1</property>
  <property name="video_index">0</property>
  <property name="vstream">0</property>
  <property name="meta.media.frame_rate_num">30</property>
  <property name="meta.media.frame_rate_den">1</property>
  <property name="meta.media.colorspace">709</property>
  <property name="meta.media.color_trc">1</property>
  <property name="meta.media.has_b_frames">2</property>
  <property name="meta.media.width">720</property>
  <property name="meta.media.height">1280</property>
  <property name="meta.media.aspect_ratio">1</property>
  <property name="meta.media.color_range">mpeg</property>
  <property name="meta.media.top_field_first">0</property>
  <property name="meta.media.progressive">1</property>
  <property name="kdenlive:control_uuid">{27851c58-9d9f-472f-9b46-058d93c85cb8}</property>
  <property name="kdenlive:id">26</property>
  <property name="kdenlive:clip_type">2</property>
  <property name="kdenlive:file_size">1654440</property>
  <property name="kdenlive:file_hash">9774d868c1f0cfce25e4392268042954</property>
  <property name="kdenlive:folderid">14</property>
  <property name="mute_on_pause">0</property>
  <property name="kdenlive:monitorPosition">131</property>
  <property name="kdenlive:zone_in">0</property>
  <property name="kdenlive:zone_out">132</property>
  <filter id="filter10">
   <property name="rotate_center">1</property>
   <property name="mlt_service">qtblend</property>
   <property name="kdenlive_id">qtblend</property>
   <property name="compositing">0</property>
   <property name="distort">0</property>
   <property name="rect">0=0 0 1280 720 1</property>
   <property name="rotation">0=0</property>
   <property name="disable">1</property>
   <property name="kdenlive:kfrhidden">1</property>
   <property name="kdenlive:collapsed">1</property>
   <property name="kdenlive:builtin">1</property>
  </filter>
 </chain>
 <producer id="producer8" in="00:00:00.000" out="00:00:04.967">
  <property name="length">00:00:05.000</property>
  <property name="eof">pause</property>
  <property name="resource">/run/media/uberdev/edrv/vid_editor_content/stock_footages_01/pics_ai/pexels-ron-lach-9783353.jpg</property>
  <property name="ttl">25</property>
  <property name="aspect_ratio">1</property>
  <property name="meta.media.progressive">1</property>
  <property name="seekable">1</property>
  <property name="format">1</property>
  <property name="meta.media.width">5384</property>
  <property name="meta.media.height">3589</property>
  <property name="mlt_service">qimage</property>
  <property name="kdenlive:duration">00:00:05.000</property>
  <property name="xml">was here</property>
  <property name="kdenlive:folderid">22</property>
  <property name="kdenlive:id">27</property>
  <property name="kdenlive:control_uuid">{615d27e7-0ea6-4d3f-91fd-f8f2eacc5c31}</property>
  <property name="kdenlive:clip_type">2</property>
  <property name="kdenlive:file_size">1965904</property>
  <property name="kdenlive:file_hash">b8ec39fd56946dbfc8605ba7ede5bdf0</property>
  <property name="kdenlive:monitorPosition">0</property>
  <property name="kdenlive:activeeffect">0</property>
  <filter id="filter11">
   <property name="rotate_center">1</property>
   <property name="mlt_service">qtblend</property>
   <property name="kdenlive_id">qtblend</property>
   <property name="compositing">0</property>
   <property name="distort">0</property>
   <property name="rect">00:00:00.000=0 0 1280 720 1</property>
   <property name="rotation">00:00:00.000=0</property>
   <property name="kdenlive:kfrhidden">1</property>
   <property name="kdenlive:collapsed">0</property>
   <property name="kdenlive:builtin">1</property>
  </filter>
 </producer>
 <chain id="chain10" out="00:00:39.300">
  <property name="length">1180</property>
  <property name="eof">pause</property>
  <property name="resource">/run/media/uberdev/edrv/vid_editor_content/stock_footages_01/hitting_head/9080632-hd_720_1366_25fps.mp4</property>
  <property name="mlt_service">avformat-novalidate</property>
  <property name="meta.media.nb_streams">1</property>
  <property name="meta.media.0.stream.type">video</property>
  <property name="meta.media.0.stream.frame_rate">25</property>
  <property name="meta.media.0.stream.sample_aspect_ratio">0</property>
  <property name="meta.media.0.codec.width">720</property>
  <property name="meta.media.0.codec.height">1366</property>
  <property name="meta.media.0.codec.rotate">0</property>
  <property name="meta.media.0.codec.pix_fmt">yuv420p</property>
  <property name="meta.media.0.codec.sample_aspect_ratio">0</property>
  <property name="meta.media.0.codec.colorspace">709</property>
  <property name="meta.media.0.codec.color_trc">1</property>
  <property name="meta.media.0.codec.name">h264</property>
  <property name="meta.media.0.codec.long_name">H.264 / AVC / MPEG-4 AVC / MPEG-4 part 10</property>
  <property name="meta.media.0.codec.bit_rate">1092696</property>
  <property name="meta.attr.0.stream.creation_time.markup">2021-08-05T16:55:20.000000Z</property>
  <property name="meta.attr.0.stream.handler_name.markup">L-SMASH Video Handler</property>
  <property name="meta.attr.0.stream.vendor_id.markup">[0][0][0][0]</property>
  <property name="meta.attr.0.stream.encoder.markup">AVC Coding</property>
  <property name="meta.attr.major_brand.markup">mp42</property>
  <property name="meta.attr.minor_version.markup">0</property>
  <property name="meta.attr.compatible_brands.markup">mp42mp41isomavc1</property>
  <property name="meta.attr.creation_time.markup">2021-08-05T16:55:20.000000Z</property>
  <property name="seekable">1</property>
  <property name="meta.media.sample_aspect_num">1</property>
  <property name="meta.media.sample_aspect_den">1</property>
  <property name="format">3</property>
  <property name="audio_index">-1</property>
  <property name="video_index">0</property>
  <property name="vstream">0</property>
  <property name="meta.media.frame_rate_num">25</property>
  <property name="meta.media.frame_rate_den">1</property>
  <property name="meta.media.colorspace">709</property>
  <property name="meta.media.color_trc">1</property>
  <property name="meta.media.has_b_frames">2</property>
  <property name="meta.media.width">720</property>
  <property name="meta.media.height">1366</property>
  <property name="meta.media.aspect_ratio">1</property>
  <property name="meta.media.color_range">mpeg</property>
  <property name="meta.media.top_field_first">0</property>
  <property name="meta.media.progressive">1</property>
  <property name="kdenlive:folderid">13</property>
  <property name="kdenlive:id">28</property>
  <property name="kdenlive:control_uuid">{a8272024-9fb9-4176-bc8c-4f41defac1cb}</property>
  <property name="mute_on_pause">0</property>
  <property name="kdenlive:clip_type">2</property>
  <property name="kdenlive:file_size">5384196</property>
  <property name="kdenlive:file_hash">15a58e2dba0955c8fd960f74e77e2392</property>
  <property name="kdenlive:monitorPosition">1106</property>
  <property name="kdenlive:zone_in">921</property>
  <property name="kdenlive:zone_out">1107</property>
  <property name="kdenlive:clipzones">[
    {
        "in": 921,
        "name": "Zone 1",
        "out": 1011
    }
]
</property>
  <filter id="filter47">
   <property name="rotate_center">1</property>
   <property name="mlt_service">qtblend</property>
   <property name="kdenlive_id">qtblend</property>
   <property name="compositing">0</property>
   <property name="distort">0</property>
   <property name="rect">0=0 0 1920 1080 1</property>
   <property name="rotation">0=0</property>
   <property name="disable">1</property>
   <property name="kdenlive:kfrhidden">1</property>
   <property name="kdenlive:collapsed">1</property>
   <property name="kdenlive:builtin">1</property>
  </filter>
 </chain>
 <chain id="chain11" out="00:00:19.967">
  <property name="length">600</property>
  <property name="eof">pause</property>
  <property name="resource">/run/media/uberdev/edrv/vid_editor_content/stock_footages_01/hitting_head/7698695-hd_720_1366_25fps.mp4</property>
  <property name="mlt_service">avformat-novalidate</property>
  <property name="meta.media.nb_streams">1</property>
  <property name="meta.media.0.stream.type">video</property>
  <property name="meta.media.0.stream.frame_rate">25</property>
  <property name="meta.media.0.stream.sample_aspect_ratio">0</property>
  <property name="meta.media.0.codec.width">720</property>
  <property name="meta.media.0.codec.height">1366</property>
  <property name="meta.media.0.codec.rotate">0</property>
  <property name="meta.media.0.codec.pix_fmt">yuv420p</property>
  <property name="meta.media.0.codec.sample_aspect_ratio">0</property>
  <property name="meta.media.0.codec.colorspace">709</property>
  <property name="meta.media.0.codec.color_trc">1</property>
  <property name="meta.media.0.codec.name">h264</property>
  <property name="meta.media.0.codec.long_name">H.264 / AVC / MPEG-4 AVC / MPEG-4 part 10</property>
  <property name="meta.media.0.codec.bit_rate">1072177</property>
  <property name="meta.attr.0.stream.creation_time.markup">2021-04-28T21:32:03.000000Z</property>
  <property name="meta.attr.0.stream.handler_name.markup">L-SMASH Video Handler</property>
  <property name="meta.attr.0.stream.vendor_id.markup">[0][0][0][0]</property>
  <property name="meta.attr.0.stream.encoder.markup">AVC Coding</property>
  <property name="meta.attr.major_brand.markup">mp42</property>
  <property name="meta.attr.minor_version.markup">0</property>
  <property name="meta.attr.compatible_brands.markup">mp42mp41isomavc1</property>
  <property name="meta.attr.creation_time.markup">2021-04-28T21:32:03.000000Z</property>
  <property name="seekable">1</property>
  <property name="meta.media.sample_aspect_num">1</property>
  <property name="meta.media.sample_aspect_den">1</property>
  <property name="format">3</property>
  <property name="audio_index">-1</property>
  <property name="video_index">0</property>
  <property name="vstream">0</property>
  <property name="meta.media.frame_rate_num">25</property>
  <property name="meta.media.frame_rate_den">1</property>
  <property name="meta.media.colorspace">709</property>
  <property name="meta.media.color_trc">1</property>
  <property name="meta.media.has_b_frames">2</property>
  <property name="meta.media.width">720</property>
  <property name="meta.media.height">1366</property>
  <property name="meta.media.aspect_ratio">1</property>
  <property name="meta.media.color_range">mpeg</property>
  <property name="meta.media.top_field_first">0</property>
  <property name="meta.media.progressive">1</property>
  <property name="kdenlive:folderid">13</property>
  <property name="kdenlive:id">30</property>
  <property name="kdenlive:control_uuid">{225ad199-af22-47fa-ae15-c7a0d3bc94f4}</property>
  <property name="mute_on_pause">0</property>
  <property name="kdenlive:clip_type">2</property>
  <property name="kdenlive:file_size">2687943</property>
  <property name="kdenlive:file_hash">6ef4c88f59b983a84b0234f0d20ff0ce</property>
  <property name="kdenlive:monitorPosition">0</property>
  <filter id="filter48">
   <property name="rotate_center">1</property>
   <property name="mlt_service">qtblend</property>
   <property name="kdenlive_id">qtblend</property>
   <property name="compositing">0</property>
   <property name="distort">0</property>
   <property name="rect">0=0 0 1920 1080 1</property>
   <property name="rotation">0=0</property>
   <property name="disable">1</property>
   <property name="kdenlive:kfrhidden">1</property>
   <property name="kdenlive:collapsed">1</property>
   <property name="kdenlive:builtin">1</property>
  </filter>
 </chain>
 <producer id="producer11" in="00:00:00.000" out="00:00:09.567">
  <property name="length">288</property>
  <property name="eof">pause</property>
  <property name="resource"/>
  <property name="meta.media.progressive">1</property>
  <property name="aspect_ratio">1</property>
  <property name="seekable">1</property>
  <property name="mlt_service">kdenlivetitle</property>
  <property name="kdenlive:duration">00:00:05:00</property>
  <property name="kdenlive:clipname">INTent?</property>
  <property name="xmldata">&lt;kdenlivetitle LC_NUMERIC="C" duration="150" height="1080" out="149" width="1920">
 &lt;item type="QGraphicsTextItem" z-index="2">
  &lt;position x="0" y="763">
   &lt;transform>1,0,0,0,1,0,0,0,1&lt;/transform>
  &lt;/position>
  &lt;content alignment="1" box-height="266" box-width="1886.5" font="Bangers" font-color="255,236,25,255" font-italic="0" font-outline="0" font-outline-color="0,0,0,255" font-pixel-size="250" font-underline="0" font-weight="400" letter-spacing="-2" line-spacing="0" shadow="0;#64000000;3;3;3" tab-width="80" typewriter="0;2;1;0;0">Code Walkthrough!!!&lt;/content>
 &lt;/item>
 &lt;item type="QGraphicsTextItem" z-index="1">
  &lt;position x="191" y="409">
   &lt;transform>1,0,0,0,1,0,0,0,1&lt;/transform>
  &lt;/position>
  &lt;content alignment="1" box-height="266" box-width="1661" font="Bangers" font-color="255,236,25,255" font-italic="0" font-outline="0" font-outline-color="0,0,0,255" font-pixel-size="250" font-underline="0" font-weight="400" letter-spacing="-2" line-spacing="0" shadow="0;#64000000;3;3;3" tab-width="80" typewriter="0;2;1;0;0">Intent Extraction?&lt;/content>
 &lt;/item>
 &lt;item type="QGraphicsTextItem" z-index="0">
  &lt;position x="1076" y="55">
   &lt;transform>1,0,0,0,1,0,0,0,1&lt;/transform>
  &lt;/position>
  &lt;content alignment="1" box-height="293" box-width="724.156" font="Bangers" font-color="255,236,25,255" font-italic="0" font-outline="0" font-outline-color="0,0,0,255" font-pixel-size="275" font-underline="0" font-weight="400" letter-spacing="-2" line-spacing="0" shadow="0;#64000000;3;3;3" tab-width="80" typewriter="0;2;1;0;0">INTent?&lt;/content>
 &lt;/item>
 &lt;startviewport rect="0,0,1920,1080"/>
 &lt;endviewport rect="0,0,1920,1080"/>
 &lt;background color="255,255,255,0"/>
&lt;/kdenlivetitle>
</property>
  <property name="xml">was here</property>
  <property name="kdenlive:folderid">17</property>
  <property name="kdenlive:id">31</property>
  <property name="kdenlive:control_uuid">{26025f6a-29cb-4bdd-bdf2-e6fd64ffc41a}</property>
  <property name="kdenlive:clip_type">2</property>
  <property name="kdenlive:uniqueId">{4d28bddb-6bc8-40a2-bca2-8d3d1c88994c}</property>
  <property name="kdenlive:file_hash">c1b141c1ef23cb3dc09a080b8bd00520</property>
  <property name="force_reload">0</property>
  <property name="meta.media.width">1920</property>
  <property name="meta.media.height">1080</property>
  <property name="kdenlive:monitorPosition">49</property>
  <filter id="filter35">
   <property name="rotate_center">1</property>
   <property name="mlt_service">qtblend</property>
   <property name="kdenlive_id">qtblend</property>
   <property name="compositing">0</property>
   <property name="distort">0</property>
   <property name="rect">0=0 0 1920 1080 1</property>
   <property name="rotation">0=0</property>
   <property name="disable">1</property>
   <property name="kdenlive:kfrhidden">1</property>
   <property name="kdenlive:collapsed">1</property>
   <property name="kdenlive:builtin">1</property>
  </filter>
 </producer>
 <producer id="producer13" in="00:00:00.000" out="00:00:10.300">
  <property name="length">310</property>
  <property name="eof">pause</property>
  <property name="resource">02_Assets/ppt/mnt.png</property>
  <property name="ttl">25</property>
  <property name="aspect_ratio">1</property>
  <property name="meta.media.progressive">1</property>
  <property name="seekable">1</property>
  <property name="format">2</property>
  <property name="meta.media.width">1920</property>
  <property name="meta.media.height">1080</property>
  <property name="mlt_service">qimage</property>
  <property name="kdenlive:duration">00:00:05:00</property>
  <property name="xml">was here</property>
  <property name="kdenlive:folderid">17</property>
  <property name="kdenlive:id">32</property>
  <property name="kdenlive:control_uuid">{76028b6b-fa45-4991-abf3-e18c889afd4c}</property>
  <property name="kdenlive:clip_type">2</property>
  <property name="kdenlive:file_size">117193</property>
  <property name="kdenlive:file_hash">ec6136f3ff55167b2e8bb6b0ebeffc32</property>
  <property name="kdenlive:monitorPosition">300</property>
  <filter id="filter49">
   <property name="rotate_center">1</property>
   <property name="mlt_service">qtblend</property>
   <property name="kdenlive_id">qtblend</property>
   <property name="compositing">0</property>
   <property name="distort">0</property>
   <property name="rect">0=0 0 1920 1080 1</property>
   <property name="rotation">0=0</property>
   <property name="disable">1</property>
   <property name="kdenlive:kfrhidden">1</property>
   <property name="kdenlive:collapsed">1</property>
   <property name="kdenlive:builtin">1</property>
  </filter>
 </producer>
 <producer id="producer14" in="00:00:00.000" out="00:00:04.967">
  <property name="length">00:00:05.000</property>
  <property name="eof">pause</property>
  <property name="resource">/run/media/uberdev/edrv/raw_videos/braindump_with_mcp_notion_server/02_Assets/thumbnails/braindump_01.png</property>
  <property name="ttl">25</property>
  <property name="aspect_ratio">1</property>
  <property name="meta.media.progressive">1</property>
  <property name="seekable">1</property>
  <property name="format">2</property>
  <property name="meta.media.width">1280</property>
  <property name="meta.media.height">720</property>
  <property name="mlt_service">qimage</property>
  <property name="kdenlive:duration">00:00:05:00</property>
  <property name="xml">was here</property>
  <property name="kdenlive:folderid">4</property>
  <property name="kdenlive:id">34</property>
  <property name="kdenlive:control_uuid">{54fa3ef6-e077-4e72-b697-2dadd2959610}</property>
  <property name="kdenlive:clip_type">2</property>
  <property name="kdenlive:file_size">129378</property>
  <property name="kdenlive:file_hash">ac0685392bedf2ab0e15a2e1c63100e5</property>
  <property name="kdenlive:monitorPosition">0</property>
  <filter id="filter50">
   <property name="rotate_center">1</property>
   <property name="mlt_service">qtblend</property>
   <property name="kdenlive_id">qtblend</property>
   <property name="compositing">0</property>
   <property name="distort">0</property>
   <property name="rect">0=0 0 1920 1080 1</property>
   <property name="rotation">0=0</property>
   <property name="disable">1</property>
   <property name="kdenlive:kfrhidden">1</property>
   <property name="kdenlive:collapsed">1</property>
   <property name="kdenlive:builtin">1</property>
  </filter>
 </producer>
 <producer id="producer15" in="00:00:00.000" out="00:00:46.700">
  <property name="length">1402</property>
  <property name="eof">pause</property>
  <property name="resource">02_Assets/ppt/add_task_bd.png</property>
  <property name="ttl">25</property>
  <property name="aspect_ratio">1</property>
  <property name="meta.media.progressive">1</property>
  <property name="seekable">1</property>
  <property name="format">2</property>
  <property name="meta.media.width">1920</property>
  <property name="meta.media.height">1080</property>
  <property name="mlt_service">qimage</property>
  <property name="kdenlive:duration">00:00:05:00</property>
  <property name="xml">was here</property>
  <property name="kdenlive:folderid">6</property>
  <property name="kdenlive:id">35</property>
  <property name="kdenlive:control_uuid">{572fc0af-2907-470c-8cc1-3eb31e9b98ef}</property>
  <property name="kdenlive:clip_type">2</property>
  <property name="kdenlive:file_size">147022</property>
  <property name="kdenlive:file_hash">26e1300ae8661a6ce25e179af5a97b32</property>
  <property name="kdenlive:monitorPosition">0</property>
  <filter id="filter51">
   <property name="rotate_center">1</property>
   <property name="mlt_service">qtblend</property>
   <property name="kdenlive_id">qtblend</property>
   <property name="compositing">0</property>
   <property name="distort">0</property>
   <property name="rect">0=0 0 1920 1080 1</property>
   <property name="rotation">0=0</property>
   <property name="disable">1</property>
   <property name="kdenlive:kfrhidden">1</property>
   <property name="kdenlive:collapsed">1</property>
   <property name="kdenlive:builtin">1</property>
  </filter>
 </producer>
 <chain id="chain12" out="00:06:08.133">
  <property name="length">11045</property>
  <property name="eof">pause</property>
  <property name="resource">/run/media/uberdev/edrv/raw_videos/braindump_with_mcp_notion_server/01_Pre_Prdn/raw_footage/02all_tool_working_mcpclient.mkv</property>
  <property name="mlt_service">avformat-novalidate</property>
  <property name="meta.media.nb_streams">2</property>
  <property name="meta.media.0.stream.type">video</property>
  <property name="meta.media.0.stream.frame_rate">30</property>
  <property name="meta.media.0.stream.sample_aspect_ratio">0</property>
  <property name="meta.media.0.codec.width">1920</property>
  <property name="meta.media.0.codec.height">1080</property>
  <property name="meta.media.0.codec.rotate">0</property>
  <property name="meta.media.0.codec.pix_fmt">yuv420p</property>
  <property name="meta.media.0.codec.sample_aspect_ratio">1</property>
  <property name="meta.media.0.codec.colorspace">709</property>
  <property name="meta.media.0.codec.color_trc">1</property>
  <property name="meta.media.0.codec.name">h264</property>
  <property name="meta.media.0.codec.long_name">H.264 / AVC / MPEG-4 AVC / MPEG-4 part 10</property>
  <property name="meta.media.0.codec.bit_rate">0</property>
  <property name="meta.attr.0.stream.DURATION.markup">00:06:08.166000000</property>
  <property name="meta.media.1.stream.type">audio</property>
  <property name="meta.media.1.codec.sample_fmt">fltp</property>
  <property name="meta.media.1.codec.sample_rate">48000</property>
  <property name="meta.media.1.codec.channels">2</property>
  <property name="meta.media.1.codec.layout">stereo</property>
  <property name="meta.media.1.codec.name">aac</property>
  <property name="meta.media.1.codec.long_name">AAC (Advanced Audio Coding)</property>
  <property name="meta.media.1.codec.bit_rate">0</property>
  <property name="meta.attr.1.stream.title.markup">simple_aac_recording0</property>
  <property name="meta.attr.1.stream.DURATION.markup">00:06:08.042000000</property>
  <property name="meta.attr.ENCODER.markup">Lavf60.16.100</property>
  <property name="seekable">1</property>
  <property name="meta.media.sample_aspect_num">1</property>
  <property name="meta.media.sample_aspect_den">1</property>
  <property name="format">3</property>
  <property name="audio_index">1</property>
  <property name="video_index">0</property>
  <property name="vstream">0</property>
  <property name="meta.media.frame_rate_num">30</property>
  <property name="meta.media.frame_rate_den">1</property>
  <property name="meta.media.colorspace">709</property>
  <property name="meta.media.color_trc">1</property>
  <property name="meta.media.has_b_frames">2</property>
  <property name="meta.media.width">1920</property>
  <property name="meta.media.height">1080</property>
  <property name="meta.media.aspect_ratio">1</property>
  <property name="meta.media.color_range">mpeg</property>
  <property name="astream">0</property>
  <property name="meta.media.top_field_first">0</property>
  <property name="meta.media.progressive">1</property>
  <property name="kdenlive:folderid">16</property>
  <property name="kdenlive:id">36</property>
  <property name="kdenlive:control_uuid">{1dd09840-aa67-4f41-9a56-6dea76a844d6}</property>
  <property name="mute_on_pause">0</property>
  <property name="kdenlive:clip_type">0</property>
  <property name="kdenlive:file_size">18101570</property>
  <property name="kdenlive:file_hash">baf8976458aaeba409e21f3068431c75</property>
  <property name="kdenlive:audio_max1">1</property>
  <property name="kdenlive:monitorPosition">1590</property>
  <property name="kdenlive:zone_in">660</property>
  <property name="kdenlive:zone_out">1591</property>
  <property name="kdenlive:clipzones">[
    {
        "in": 660,
        "name": "Zone 1",
        "out": 1590
    }
]
</property>
  <filter id="filter52">
   <property name="rotate_center">1</property>
   <property name="mlt_service">qtblend</property>
   <property name="kdenlive_id">qtblend</property>
   <property name="compositing">0</property>
   <property name="distort">0</property>
   <property name="rect">0=0 0 1920 1080 1</property>
   <property name="rotation">0=0</property>
   <property name="disable">1</property>
   <property name="kdenlive:kfrhidden">1</property>
   <property name="kdenlive:collapsed">1</property>
   <property name="kdenlive:builtin">1</property>
  </filter>
  <filter id="filter53">
   <property name="window">75</property>
   <property name="max_gain">20dB</property>
   <property name="level">0=0</property>
   <property name="mlt_service">volume</property>
   <property name="kdenlive_id">volume</property>
   <property name="disable">1</property>
   <property name="kdenlive:kfrhidden">1</property>
   <property name="kdenlive:builtin">1</property>
   <property name="kdenlive:collapsed">0</property>
  </filter>
 </chain>
 <producer id="producer16" in="00:00:00.000" out="00:00:04.967">
  <property name="length">150</property>
  <property name="eof">pause</property>
  <property name="resource"/>
  <property name="meta.media.progressive">1</property>
  <property name="aspect_ratio">1</property>
  <property name="seekable">1</property>
  <property name="mlt_service">kdenlivetitle</property>
  <property name="kdenlive:duration">00:00:05:00</property>
  <property name="kdenlive:clipname">https://www....</property>
  <property name="xmldata">&lt;kdenlivetitle LC_NUMERIC="C" duration="150" height="1080" out="149" width="1920">
 &lt;item type="QGraphicsTextItem" z-index="0">
  &lt;position x="65" y="290">
   &lt;transform>1,0,0,0,1,0,0,0,1&lt;/transform>
  &lt;/position>
  &lt;content alignment="1" box-height="500" box-width="1789.8" font="Impacted" font-color="255,236,25,255" font-italic="0" font-outline="0" font-outline-color="0,0,0,255" font-pixel-size="167" font-underline="0" font-weight="400" letter-spacing="-2" line-spacing="0" shadow="0;#64000000;3;3;3" tab-width="80" typewriter="0;2;1;0;0">https://www.youtube.com/
@insightbuilder&lt;/content>
 &lt;/item>
 &lt;startviewport rect="0,0,1920,1080"/>
 &lt;endviewport rect="0,0,1920,1080"/>
 &lt;background color="255,255,255,0"/>
&lt;/kdenlivetitle>
</property>
  <property name="xml">was here</property>
  <property name="kdenlive:folderid">17</property>
  <property name="kdenlive:id">38</property>
  <property name="kdenlive:control_uuid">{649b3fc3-90f3-4beb-b37e-361f376cd51b}</property>
  <property name="kdenlive:clip_type">2</property>
  <property name="kdenlive:uniqueId">{1bf3c8d0-1365-4851-ba60-d36d21f0c58b}</property>
  <property name="kdenlive:file_hash">31263e24cd47f96954869e0a8c18da0b</property>
  <property name="force_reload">0</property>
  <property name="meta.media.width">1920</property>
  <property name="meta.media.height">1080</property>
  <property name="kdenlive:monitorPosition">0</property>
  <filter id="filter54">
   <property name="rotate_center">1</property>
   <property name="mlt_service">qtblend</property>
   <property name="kdenlive_id">qtblend</property>
   <property name="compositing">0</property>
   <property name="distort">0</property>
   <property name="rect">0=0 0 1920 1080 1</property>
   <property name="rotation">0=0</property>
   <property name="disable">1</property>
   <property name="kdenlive:kfrhidden">1</property>
   <property name="kdenlive:collapsed">1</property>
   <property name="kdenlive:builtin">1</property>
  </filter>
 </producer>
 <chain id="chain13" out="00:00:20.967">
  <property name="length">630</property>
  <property name="eof">pause</property>
  <property name="resource">02_Assets/audio_tracks/hook.mp3</property>
  <property name="mlt_service">avformat</property>
  <property name="meta.media.nb_streams">1</property>
  <property name="meta.media.0.stream.type">audio</property>
  <property name="meta.media.0.codec.sample_fmt">fltp</property>
  <property name="meta.media.0.codec.sample_rate">24000</property>
  <property name="meta.media.0.codec.channels">1</property>
  <property name="meta.media.0.codec.layout">mono</property>
  <property name="meta.media.0.codec.name">mp3float</property>
  <property name="meta.media.0.codec.long_name">MP3 (MPEG audio layer 3)</property>
  <property name="meta.media.0.codec.bit_rate">160000</property>
  <property name="seekable">1</property>
  <property name="audio_index">0</property>
  <property name="video_index">-1</property>
  <property name="astream">0</property>
  <property name="kdenlive:folderid">33</property>
  <property name="kdenlive:id">39</property>
  <property name="kdenlive:control_uuid">{544e6df0-44cd-40d8-b335-94206aa40ab9}</property>
  <property name="kdenlive:clip_type">1</property>
  <property name="kdenlive:file_size">420000</property>
  <property name="kdenlive:file_hash">da51c37c88b5a54ec7157a3e085e8285</property>
  <property name="kdenlive:audio_max0">180</property>
  <property name="kdenlive:monitorPosition">0</property>
  <filter id="filter55">
   <property name="window">75</property>
   <property name="max_gain">20dB</property>
   <property name="level">0=0</property>
   <property name="mlt_service">volume</property>
   <property name="kdenlive_id">volume</property>
   <property name="disable">1</property>
   <property name="kdenlive:kfrhidden">1</property>
   <property name="kdenlive:builtin">1</property>
   <property name="kdenlive:collapsed">0</property>
  </filter>
 </chain>
 <chain id="chain14" out="00:00:32.333">
  <property name="length">971</property>
  <property name="eof">pause</property>
  <property name="resource">02_Assets/audio_tracks/context.mp3</property>
  <property name="mlt_service">avformat</property>
  <property name="meta.media.nb_streams">1</property>
  <property name="meta.media.0.stream.type">audio</property>
  <property name="meta.media.0.codec.sample_fmt">fltp</property>
  <property name="meta.media.0.codec.sample_rate">24000</property>
  <property name="meta.media.0.codec.channels">1</property>
  <property name="meta.media.0.codec.layout">mono</property>
  <property name="meta.media.0.codec.name">mp3float</property>
  <property name="meta.media.0.codec.long_name">MP3 (MPEG audio layer 3)</property>
  <property name="meta.media.0.codec.bit_rate">160000</property>
  <property name="seekable">1</property>
  <property name="audio_index">0</property>
  <property name="video_index">-1</property>
  <property name="astream">0</property>
  <property name="kdenlive:folderid">33</property>
  <property name="kdenlive:id">40</property>
  <property name="kdenlive:control_uuid">{79f02def-eb7d-44df-a5f0-785cd37d7081}</property>
  <property name="kdenlive:clip_type">1</property>
  <property name="kdenlive:file_size">647040</property>
  <property name="kdenlive:file_hash">886ba6b4e8998c88d0866adc11d2d226</property>
  <property name="kdenlive:audio_max0">175</property>
  <property name="kdenlive:monitorPosition">0</property>
  <filter id="filter56">
   <property name="window">75</property>
   <property name="max_gain">20dB</property>
   <property name="level">0=0</property>
   <property name="mlt_service">volume</property>
   <property name="kdenlive_id">volume</property>
   <property name="disable">1</property>
   <property name="kdenlive:kfrhidden">1</property>
   <property name="kdenlive:builtin">1</property>
   <property name="kdenlive:collapsed">0</property>
  </filter>
 </chain>
 <chain id="chain15" out="00:00:17.500">
  <property name="length">526</property>
  <property name="eof">pause</property>
  <property name="resource">/run/media/uberdev/edrv/vid_editor_content/stock_footages_01/throw_catch/dropped-hd_720_1366_25fps.mp4</property>
  <property name="mlt_service">avformat-novalidate</property>
  <property name="meta.media.nb_streams">2</property>
  <property name="meta.media.0.stream.type">video</property>
  <property name="meta.media.0.stream.frame_rate">25</property>
  <property name="meta.media.0.stream.sample_aspect_ratio">0</property>
  <property name="meta.media.0.codec.width">720</property>
  <property name="meta.media.0.codec.height">1366</property>
  <property name="meta.media.0.codec.rotate">0</property>
  <property name="meta.media.0.codec.pix_fmt">yuv420p</property>
  <property name="meta.media.0.codec.sample_aspect_ratio">0</property>
  <property name="meta.media.0.codec.colorspace">709</property>
  <property name="meta.media.0.codec.color_trc">1</property>
  <property name="meta.media.0.codec.name">h264</property>
  <property name="meta.media.0.codec.long_name">H.264 / AVC / MPEG-4 AVC / MPEG-4 part 10</property>
  <property name="meta.media.0.codec.bit_rate">2627820</property>
  <property name="meta.attr.0.stream.creation_time.markup">2021-03-31T17:13:47.000000Z</property>
  <property name="meta.attr.0.stream.handler_name.markup">L-SMASH Video Handler</property>
  <property name="meta.attr.0.stream.vendor_id.markup">[0][0][0][0]</property>
  <property name="meta.attr.0.stream.encoder.markup">AVC Coding</property>
  <property name="meta.media.1.stream.type">audio</property>
  <property name="meta.media.1.codec.sample_fmt">fltp</property>
  <property name="meta.media.1.codec.sample_rate">48000</property>
  <property name="meta.media.1.codec.channels">2</property>
  <property name="meta.media.1.codec.layout">stereo</property>
  <property name="meta.media.1.codec.name">aac</property>
  <property name="meta.media.1.codec.long_name">AAC (Advanced Audio Coding)</property>
  <property name="meta.media.1.codec.bit_rate">253375</property>
  <property name="meta.attr.1.stream.creation_time.markup">2021-03-31T17:13:47.000000Z</property>
  <property name="meta.attr.1.stream.handler_name.markup">L-SMASH Audio Handler</property>
  <property name="meta.attr.1.stream.vendor_id.markup">[0][0][0][0]</property>
  <property name="meta.attr.major_brand.markup">mp42</property>
  <property name="meta.attr.minor_version.markup">0</property>
  <property name="meta.attr.compatible_brands.markup">mp42mp41isomavc1</property>
  <property name="meta.attr.creation_time.markup">2021-03-31T17:13:47.000000Z</property>
  <property name="seekable">1</property>
  <property name="meta.media.sample_aspect_num">1</property>
  <property name="meta.media.sample_aspect_den">1</property>
  <property name="format">3</property>
  <property name="audio_index">1</property>
  <property name="video_index">0</property>
  <property name="vstream">0</property>
  <property name="meta.media.frame_rate_num">25</property>
  <property name="meta.media.frame_rate_den">1</property>
  <property name="meta.media.colorspace">709</property>
  <property name="meta.media.color_trc">1</property>
  <property name="meta.media.has_b_frames">2</property>
  <property name="meta.media.width">720</property>
  <property name="meta.media.height">1366</property>
  <property name="meta.media.aspect_ratio">1</property>
  <property name="meta.media.color_range">mpeg</property>
  <property name="astream">0</property>
  <property name="meta.media.top_field_first">0</property>
  <property name="meta.media.progressive">1</property>
  <property name="kdenlive:folderid">13</property>
  <property name="kdenlive:id">41</property>
  <property name="kdenlive:control_uuid">{711b0078-3cc4-443f-9032-435e9c9b84ae}</property>
  <property name="mute_on_pause">0</property>
  <property name="kdenlive:clip_type">0</property>
  <property name="kdenlive:file_size">6320933</property>
  <property name="kdenlive:file_hash">07b0f129b331b0d7ed7a1c28217b4a06</property>
  <property name="kdenlive:audio_max1">1</property>
  <property name="kdenlive:zone_in">123</property>
  <property name="kdenlive:zone_out">274</property>
  <property name="kdenlive:clipzones">[
    {
        "in": 123,
        "name": "Zone 1",
        "out": 273
    },
    {
        "in": 123,
        "name": "Zone 2",
        "out": 273
    }
]
</property>
  <property name="kdenlive:monitorPosition">0</property>
  <filter id="filter57">
   <property name="rotate_center">1</property>
   <property name="mlt_service">qtblend</property>
   <property name="kdenlive_id">qtblend</property>
   <property name="compositing">0</property>
   <property name="distort">0</property>
   <property name="rect">0=0 0 1920 1080 1</property>
   <property name="rotation">0=0</property>
   <property name="disable">1</property>
   <property name="kdenlive:kfrhidden">1</property>
   <property name="kdenlive:collapsed">1</property>
   <property name="kdenlive:builtin">1</property>
  </filter>
  <filter id="filter58">
   <property name="window">75</property>
   <property name="max_gain">20dB</property>
   <property name="level">0=0</property>
   <property name="mlt_service">volume</property>
   <property name="kdenlive_id">volume</property>
   <property name="disable">1</property>
   <property name="kdenlive:kfrhidden">1</property>
   <property name="kdenlive:builtin">1</property>
   <property name="kdenlive:collapsed">0</property>
  </filter>
 </chain>
 <producer id="producer10" in="00:00:00.000" out="00:00:05.067">
  <property name="length">153</property>
  <property name="eof">pause</property>
  <property name="resource"/>
  <property name="meta.media.progressive">1</property>
  <property name="aspect_ratio">1</property>
  <property name="seekable">1</property>
  <property name="mlt_service">kdenlivetitle</property>
  <property name="kdenlive:duration">00:00:05:00</property>
  <property name="kdenlive:clipname">INTent NOT C...</property>
  <property name="xmldata">&lt;kdenlivetitle LC_NUMERIC="C" duration="150" height="1080" out="149" width="1920">
 &lt;item type="QGraphicsTextItem" z-index="0">
  &lt;position x="215" y="244">
   &lt;transform>1,0,0,0,1,0,0,0,1&lt;/transform>
  &lt;/position>
  &lt;content alignment="4" box-height="586" box-width="1462.44" font="Bangers" font-color="255,236,25,255" font-italic="0" font-outline="0" font-outline-color="0,0,0,255" font-pixel-size="275" font-underline="0" font-weight="400" letter-spacing="-2" line-spacing="0" shadow="0;#64000000;3;3;3" tab-width="80" typewriter="0;2;1;0;0">MODEL Missing 
INTent &lt;/content>
 &lt;/item>
 &lt;startviewport rect="0,0,1920,1080"/>
 &lt;endviewport rect="0,0,1920,1080"/>
 &lt;background color="255,255,255,0"/>
&lt;/kdenlivetitle>
</property>
  <property name="xml">was here</property>
  <property name="kdenlive:folderid">17</property>
  <property name="kdenlive:id">44</property>
  <property name="kdenlive:clip_type">2</property>
  <property name="kdenlive:file_hash">d89ef060a290a872d09410e587c3a94d</property>
  <property name="force_reload">0</property>
  <property name="kdenlive:monitorPosition">76</property>
  <property name="kdenlive:control_uuid">{1a110a16-e2b9-47e7-97ef-7a8362d250c8}</property>
  <property name="kdenlive:uniqueId">{093f2936-5405-4f50-8a97-57f0f7e9e164}</property>
  <property name="meta.media.width">1920</property>
  <property name="meta.media.height">1080</property>
  <filter id="filter34">
   <property name="rotate_center">1</property>
   <property name="mlt_service">qtblend</property>
   <property name="kdenlive_id">qtblend</property>
   <property name="compositing">0</property>
   <property name="distort">0</property>
   <property name="rect">0=0 0 1920 1080 1</property>
   <property name="rotation">0=0</property>
   <property name="kdenlive:builtin">1</property>
   <property name="kdenlive:kfrhidden">1</property>
   <property name="kdenlive:collapsed">1</property>
   <property name="disable">1</property>
  </filter>
 </producer>
 <producer id="producer7" in="00:00:00.000" out="00:00:05.067">
  <property name="length">153</property>
  <property name="eof">pause</property>
  <property name="resource"/>
  <property name="meta.media.progressive">1</property>
  <property name="aspect_ratio">1</property>
  <property name="seekable">1</property>
  <property name="mlt_service">kdenlivetitle</property>
  <property name="kdenlive:duration">00:00:05:00</property>
  <property name="kdenlive:clipname">NOT GIVING E...</property>
  <property name="xmldata">&lt;kdenlivetitle LC_NUMERIC="C" duration="150" height="1080" out="149" width="1920">
 &lt;item type="QGraphicsTextItem" z-index="0">
  &lt;position x="324" y="247">
   &lt;transform>1,0,0,0,1,0,0,0,1&lt;/transform>
  &lt;/position>
  &lt;content alignment="4" box-height="586" box-width="1271.56" font="Bangers" font-color="255,236,25,255" font-italic="0" font-pixel-size="275" font-underline="0" font-weight="400" letter-spacing="-2" line-spacing="0" shadow="0;#64000000;3;3;3" tab-width="80" typewriter="0;2;1;0;0">TOOLS DESIGN
Not Enough&lt;/content>
 &lt;/item>
 &lt;startviewport rect="0,0,1920,1080"/>
 &lt;endviewport rect="0,0,1920,1080"/>
 &lt;background color="255,255,255,0"/>
&lt;/kdenlivetitle>
</property>
  <property name="xml">was here</property>
  <property name="kdenlive:folderid">17</property>
  <property name="kdenlive:id">45</property>
  <property name="kdenlive:clip_type">2</property>
  <property name="kdenlive:file_hash">0b72ae974b6d17893d9e95eb15c17575</property>
  <property name="force_reload">0</property>
  <property name="kdenlive:monitorPosition">149</property>
  <property name="kdenlive:control_uuid">{4054c6f8-67d8-4c42-ae2d-da8233c9aa9a}</property>
  <property name="kdenlive:uniqueId">{0f0783d4-2d07-42f9-af20-def07a849f0f}</property>
  <property name="meta.media.width">1920</property>
  <property name="meta.media.height">1080</property>
  <filter id="filter24">
   <property name="rotate_center">1</property>
   <property name="mlt_service">qtblend</property>
   <property name="kdenlive_id">qtblend</property>
   <property name="compositing">0</property>
   <property name="distort">0</property>
   <property name="rect">0=0 0 1920 1080 1</property>
   <property name="rotation">0=0</property>
   <property name="kdenlive:builtin">1</property>
   <property name="kdenlive:kfrhidden">1</property>
   <property name="kdenlive:collapsed">1</property>
   <property name="disable">1</property>
  </filter>
 </producer>
 <chain id="chain16" out="00:00:07.400">
  <property name="length">223</property>
  <property name="eof">pause</property>
  <property name="resource">/run/media/uberdev/edrv/vid_editor_content/editing_assets_01/common_clips/yt_intro_video.mp4</property>
  <property name="mlt_service">avformat-novalidate</property>
  <property name="meta.media.nb_streams">2</property>
  <property name="meta.media.0.stream.type">video</property>
  <property name="meta.media.0.stream.frame_rate">30</property>
  <property name="meta.media.0.stream.sample_aspect_ratio">1</property>
  <property name="meta.media.0.codec.width">1920</property>
  <property name="meta.media.0.codec.height">1080</property>
  <property name="meta.media.0.codec.rotate">0</property>
  <property name="meta.media.0.codec.pix_fmt">yuv420p</property>
  <property name="meta.media.0.codec.sample_aspect_ratio">1</property>
  <property name="meta.media.0.codec.colorspace">709</property>
  <property name="meta.media.0.codec.color_trc">1</property>
  <property name="meta.media.0.codec.name">h264</property>
  <property name="meta.media.0.codec.long_name">H.264 / AVC / MPEG-4 AVC / MPEG-4 part 10</property>
  <property name="meta.media.0.codec.bit_rate">378840</property>
  <property name="meta.attr.0.stream.handler_name.markup">VideoHandler</property>
  <property name="meta.attr.0.stream.vendor_id.markup">[0][0][0][0]</property>
  <property name="meta.media.1.stream.type">audio</property>
  <property name="meta.media.1.codec.sample_fmt">fltp</property>
  <property name="meta.media.1.codec.sample_rate">48000</property>
  <property name="meta.media.1.codec.channels">2</property>
  <property name="meta.media.1.codec.layout">stereo</property>
  <property name="meta.media.1.codec.name">aac</property>
  <property name="meta.media.1.codec.long_name">AAC (Advanced Audio Coding)</property>
  <property name="meta.media.1.codec.bit_rate">158247</property>
  <property name="meta.attr.1.stream.handler_name.markup">SoundHandler</property>
  <property name="meta.attr.1.stream.vendor_id.markup">[0][0][0][0]</property>
  <property name="meta.attr.major_brand.markup">isom</property>
  <property name="meta.attr.minor_version.markup">512</property>
  <property name="meta.attr.compatible_brands.markup">isomiso2avc1mp41</property>
  <property name="meta.attr.encoder.markup">Lavf61.7.100</property>
  <property name="seekable">1</property>
  <property name="meta.media.sample_aspect_num">1</property>
  <property name="meta.media.sample_aspect_den">1</property>
  <property name="format">3</property>
  <property name="audio_index">1</property>
  <property name="video_index">0</property>
  <property name="vstream">0</property>
  <property name="meta.media.frame_rate_num">30</property>
  <property name="meta.media.frame_rate_den">1</property>
  <property name="meta.media.colorspace">709</property>
  <property name="meta.media.color_trc">1</property>
  <property name="meta.media.has_b_frames">2</property>
  <property name="meta.media.width">1920</property>
  <property name="meta.media.height">1080</property>
  <property name="meta.media.aspect_ratio">1</property>
  <property name="meta.media.color_range">mpeg</property>
  <property name="astream">0</property>
  <property name="meta.media.top_field_first">0</property>
  <property name="meta.media.progressive">1</property>
  <property name="kdenlive:folderid">16</property>
  <property name="kdenlive:id">46</property>
  <property name="kdenlive:control_uuid">{bc1eed88-1988-4f01-97fa-6c6e43d63938}</property>
  <property name="mute_on_pause">0</property>
  <property name="kdenlive:clip_type">0</property>
  <property name="kdenlive:file_size">509205</property>
  <property name="kdenlive:file_hash">0ef992144ac107cbcd32ba6195a81380</property>
  <property name="kdenlive:audio_max1">197</property>
  <property name="kdenlive:monitorPosition">70</property>
  <filter id="filter59">
   <property name="rotate_center">1</property>
   <property name="mlt_service">qtblend</property>
   <property name="kdenlive_id">qtblend</property>
   <property name="compositing">0</property>
   <property name="distort">0</property>
   <property name="rect">0=0 0 1920 1080 1</property>
   <property name="rotation">0=0</property>
   <property name="disable">1</property>
   <property name="kdenlive:kfrhidden">1</property>
   <property name="kdenlive:collapsed">1</property>
   <property name="kdenlive:builtin">1</property>
  </filter>
  <filter id="filter60">
   <property name="window">75</property>
   <property name="max_gain">20dB</property>
   <property name="level">0=0</property>
   <property name="mlt_service">volume</property>
   <property name="kdenlive_id">volume</property>
   <property name="disable">1</property>
   <property name="kdenlive:kfrhidden">1</property>
   <property name="kdenlive:builtin">1</property>
   <property name="kdenlive:collapsed">0</property>
  </filter>
 </chain>
 <producer id="producer9" in="00:00:00.000" out="00:00:06.967">
  <property name="length">210</property>
  <property name="eof">pause</property>
  <property name="resource">02_Assets/ppt/channel_vid.png</property>
  <property name="ttl">25</property>
  <property name="aspect_ratio">1</property>
  <property name="meta.media.progressive">1</property>
  <property name="seekable">1</property>
  <property name="format">2</property>
  <property name="meta.media.width">1120</property>
  <property name="meta.media.height">522</property>
  <property name="mlt_service">qimage</property>
  <property name="kdenlive:duration">00:00:05:00</property>
  <property name="xml">was here</property>
  <property name="kdenlive:folderid">6</property>
  <property name="kdenlive:id">47</property>
  <property name="kdenlive:control_uuid">{6bd60e03-fb2d-49c4-80dc-28ba81233fe6}</property>
  <property name="kdenlive:clip_type">2</property>
  <property name="kdenlive:file_size">354722</property>
  <property name="kdenlive:file_hash">04936b8413c73aded6187ea7bc4156eb</property>
  <property name="kdenlive:monitorPosition">0</property>
  <filter id="filter26">
   <property name="rotate_center">1</property>
   <property name="mlt_service">qtblend</property>
   <property name="kdenlive_id">qtblend</property>
   <property name="compositing">0</property>
   <property name="distort">0</property>
   <property name="rect">0=0 0 1920 1080 1</property>
   <property name="rotation">0=0</property>
   <property name="disable">1</property>
   <property name="kdenlive:kfrhidden">1</property>
   <property name="kdenlive:collapsed">1</property>
   <property name="kdenlive:builtin">1</property>
  </filter>
 </producer>
 <chain id="chain20" out="00:00:44.933">
  <property name="length">1349</property>
  <property name="eof">pause</property>
  <property name="resource">02_Assets/audio_tracks/intent_t1.mp3</property>
  <property name="mlt_service">avformat</property>
  <property name="meta.media.nb_streams">1</property>
  <property name="meta.media.0.stream.type">audio</property>
  <property name="meta.media.0.codec.sample_fmt">fltp</property>
  <property name="meta.media.0.codec.sample_rate">24000</property>
  <property name="meta.media.0.codec.channels">1</property>
  <property name="meta.media.0.codec.layout">mono</property>
  <property name="meta.media.0.codec.name">mp3float</property>
  <property name="meta.media.0.codec.long_name">MP3 (MPEG audio layer 3)</property>
  <property name="meta.media.0.codec.bit_rate">160000</property>
  <property name="seekable">1</property>
  <property name="audio_index">0</property>
  <property name="video_index">-1</property>
  <property name="astream">0</property>
  <property name="kdenlive:folderid">33</property>
  <property name="kdenlive:id">48</property>
  <property name="kdenlive:control_uuid">{f445dd58-7a08-4878-8116-de8b2c0a2af6}</property>
  <property name="kdenlive:clip_type">1</property>
  <property name="kdenlive:file_size">899040</property>
  <property name="kdenlive:file_hash">cccaa0a8ae93b52ef89ca2e4069be06b</property>
  <property name="kdenlive:audio_max0">178</property>
  <property name="kdenlive:monitorPosition">0</property>
  <filter id="filter101">
   <property name="window">75</property>
   <property name="max_gain">20dB</property>
   <property name="level">0=0</property>
   <property name="mlt_service">volume</property>
   <property name="kdenlive_id">volume</property>
   <property name="disable">1</property>
   <property name="kdenlive:kfrhidden">1</property>
   <property name="kdenlive:builtin">1</property>
   <property name="kdenlive:collapsed">0</property>
  </filter>
 </chain>
 <producer id="producer20" in="00:00:00.000" out="00:00:04.967">
  <property name="length">00:00:05.000</property>
  <property name="eof">pause</property>
  <property name="resource">02_Assets/ppt/whtiscommon.png</property>
  <property name="ttl">25</property>
  <property name="aspect_ratio">1</property>
  <property name="meta.media.progressive">1</property>
  <property name="seekable">1</property>
  <property name="format">1</property>
  <property name="meta.media.width">1920</property>
  <property name="meta.media.height">1080</property>
  <property name="mlt_service">qimage</property>
  <property name="kdenlive:duration">00:00:05:00</property>
  <property name="xml">was here</property>
  <property name="kdenlive:folderid">6</property>
  <property name="kdenlive:id">49</property>
  <property name="kdenlive:control_uuid">{4db0a70d-534d-423b-aaa4-8260a157c912}</property>
  <property name="kdenlive:clip_type">2</property>
  <property name="kdenlive:file_size">51300</property>
  <property name="kdenlive:file_hash">8b7300a533593424ae2e43f8e3aeb78a</property>
  <property name="kdenlive:monitorPosition">149</property>
  <filter id="filter77">
   <property name="rotate_center">1</property>
   <property name="mlt_service">qtblend</property>
   <property name="kdenlive_id">qtblend</property>
   <property name="compositing">0</property>
   <property name="distort">0</property>
   <property name="rect">0=0 0 1920 1080 1</property>
   <property name="rotation">0=0</property>
   <property name="disable">1</property>
   <property name="kdenlive:kfrhidden">1</property>
   <property name="kdenlive:collapsed">1</property>
   <property name="kdenlive:builtin">1</property>
  </filter>
 </producer>
 <chain id="chain21" out="00:00:21.600">
  <property name="length">649</property>
  <property name="eof">pause</property>
  <property name="resource">02_Assets/audio_tracks/intent_ext_t2_ol.mp3</property>
  <property name="mlt_service">avformat</property>
  <property name="meta.media.nb_streams">1</property>
  <property name="meta.media.0.stream.type">audio</property>
  <property name="meta.media.0.codec.sample_fmt">fltp</property>
  <property name="meta.media.0.codec.sample_rate">24000</property>
  <property name="meta.media.0.codec.channels">1</property>
  <property name="meta.media.0.codec.layout">mono</property>
  <property name="meta.media.0.codec.name">mp3float</property>
  <property name="meta.media.0.codec.long_name">MP3 (MPEG audio layer 3)</property>
  <property name="meta.media.0.codec.bit_rate">160000</property>
  <property name="seekable">1</property>
  <property name="audio_index">0</property>
  <property name="video_index">-1</property>
  <property name="astream">0</property>
  <property name="kdenlive:folderid">33</property>
  <property name="kdenlive:id">50</property>
  <property name="kdenlive:control_uuid">{4525b433-1c31-4cbd-91d3-c317a65edea7}</property>
  <property name="kdenlive:clip_type">1</property>
  <property name="kdenlive:file_size">432960</property>
  <property name="kdenlive:file_hash">088573b87c49787031c65cafe4476742</property>
  <property name="kdenlive:audio_max0">173</property>
  <property name="kdenlive:activeeffect">0</property>
  <property name="kdenlive:monitorPosition">0</property>
  <filter id="filter102">
   <property name="window">75</property>
   <property name="max_gain">20dB</property>
   <property name="level">00:00:00.000=15</property>
   <property name="mlt_service">volume</property>
   <property name="kdenlive_id">volume</property>
   <property name="kdenlive:kfrhidden">1</property>
   <property name="kdenlive:builtin">1</property>
   <property name="kdenlive:collapsed">0</property>
  </filter>
 </chain>
 <producer id="producer22" in="00:00:00.000" out="00:00:10.000">
  <property name="length">301</property>
  <property name="eof">pause</property>
  <property name="resource"/>
  <property name="meta.media.progressive">1</property>
  <property name="aspect_ratio">1</property>
  <property name="seekable">1</property>
  <property name="mlt_service">kdenlivetitle</property>
  <property name="kdenlive:duration">00:00:05:00</property>
  <property name="kdenlive:clipname">HOW INTENT E...</property>
  <property name="xmldata">&lt;kdenlivetitle LC_NUMERIC="C" duration="150" height="1080" out="149" width="1920">
 &lt;item type="QGraphicsTextItem" z-index="0">
  &lt;position x="57" y="244">
   &lt;transform>1,0,0,0,1,0,0,0,1&lt;/transform>
  &lt;/position>
  &lt;content alignment="4" box-height="586" box-width="1780.38" font="Bangers" font-color="255,236,25,255" font-italic="0" font-pixel-size="275" font-underline="0" font-weight="400" letter-spacing="-2" line-spacing="0" shadow="0;#64000000;3;3;3" tab-width="80" typewriter="0;2;1;0;0">HOW INTENT
EXTRACTION WORKS&lt;/content>
 &lt;/item>
 &lt;startviewport rect="0,0,1920,1080"/>
 &lt;endviewport rect="0,0,1920,1080"/>
 &lt;background color="255,255,255,0"/>
&lt;/kdenlivetitle>
</property>
  <property name="xml">was here</property>
  <property name="kdenlive:folderid">17</property>
  <property name="kdenlive:id">51</property>
  <property name="kdenlive:clip_type">2</property>
  <property name="kdenlive:file_hash">617dca2bca2bd2d3caae767199ccf59b</property>
  <property name="force_reload">0</property>
  <property name="kdenlive:monitorPosition">76</property>
  <property name="kdenlive:control_uuid">{e517e913-8e51-4a47-8e9a-2fd09e870922}</property>
  <property name="kdenlive:uniqueId">{7b3235b6-607e-4343-8eb5-1a4cbde5530a}</property>
  <property name="meta.media.width">1920</property>
  <property name="meta.media.height">1080</property>
  <filter id="filter80">
   <property name="rotate_center">1</property>
   <property name="mlt_service">qtblend</property>
   <property name="kdenlive_id">qtblend</property>
   <property name="compositing">0</property>
   <property name="distort">0</property>
   <property name="rect">0=0 0 1920 1080 1</property>
   <property name="rotation">0=0</property>
   <property name="kdenlive:builtin">1</property>
   <property name="kdenlive:kfrhidden">1</property>
   <property name="kdenlive:collapsed">1</property>
   <property name="disable">1</property>
  </filter>
 </producer>
 <chain id="chain22" out="00:00:41.767">
  <property name="length">1254</property>
  <property name="eof">pause</property>
  <property name="resource">02_Assets/audio_tracks/intent_ext_t2.mp3</property>
  <property name="mlt_service">avformat</property>
  <property name="meta.media.nb_streams">1</property>
  <property name="meta.media.0.stream.type">audio</property>
  <property name="meta.media.0.codec.sample_fmt">fltp</property>
  <property name="meta.media.0.codec.sample_rate">24000</property>
  <property name="meta.media.0.codec.channels">1</property>
  <property name="meta.media.0.codec.layout">mono</property>
  <property name="meta.media.0.codec.name">mp3float</property>
  <property name="meta.media.0.codec.long_name">MP3 (MPEG audio layer 3)</property>
  <property name="meta.media.0.codec.bit_rate">160000</property>
  <property name="seekable">1</property>
  <property name="audio_index">0</property>
  <property name="video_index">-1</property>
  <property name="astream">0</property>
  <property name="kdenlive:folderid">33</property>
  <property name="kdenlive:id">52</property>
  <property name="kdenlive:control_uuid">{ced44cd6-8be9-48f7-9a08-8be273adb16d}</property>
  <property name="kdenlive:clip_type">1</property>
  <property name="kdenlive:file_size">836160</property>
  <property name="kdenlive:file_hash">3f1db1417be178b36573c31005a98116</property>
  <property name="kdenlive:audio_max0">173</property>
  <property name="kdenlive:activeeffect">0</property>
  <property name="kdenlive:monitorPosition">0</property>
  <filter id="filter103">
   <property name="window">75</property>
   <property name="max_gain">20dB</property>
   <property name="level">00:00:00.000=15</property>
   <property name="mlt_service">volume</property>
   <property name="kdenlive_id">volume</property>
   <property name="kdenlive:kfrhidden">1</property>
   <property name="kdenlive:builtin">1</property>
   <property name="kdenlive:collapsed">0</property>
  </filter>
 </chain>
 <producer id="producer24" in="00:00:00.000" out="00:00:22.667">
  <property name="length">681</property>
  <property name="eof">pause</property>
  <property name="resource">/run/media/uberdev/edrv/vid_editor_content/stock_footages/openmoji-hiqual-color/001/1F446.png</property>
  <property name="ttl">25</property>
  <property name="aspect_ratio">1</property>
  <property name="meta.media.progressive">1</property>
  <property name="seekable">1</property>
  <property name="format">2</property>
  <property name="meta.media.width">618</property>
  <property name="meta.media.height">618</property>
  <property name="mlt_service">qimage</property>
  <property name="kdenlive:duration">00:00:05:00</property>
  <property name="xml">was here</property>
  <property name="kdenlive:folderid">22</property>
  <property name="kdenlive:id">53</property>
  <property name="kdenlive:control_uuid">{9cfd8508-6be5-46d5-a85f-627a389d0f24}</property>
  <property name="kdenlive:clip_type">2</property>
  <property name="kdenlive:file_size">7924</property>
  <property name="kdenlive:file_hash">a749eb603f85475d1995f00e3aa27058</property>
  <property name="kdenlive:monitorPosition">680</property>
  <filter id="filter104">
   <property name="rotate_center">1</property>
   <property name="mlt_service">qtblend</property>
   <property name="kdenlive_id">qtblend</property>
   <property name="compositing">0</property>
   <property name="distort">0</property>
   <property name="rect">0=0 0 1920 1080 1</property>
   <property name="rotation">0=0</property>
   <property name="disable">1</property>
   <property name="kdenlive:kfrhidden">1</property>
   <property name="kdenlive:collapsed">1</property>
   <property name="kdenlive:builtin">1</property>
  </filter>
 </producer>
 <producer id="producer25" in="00:00:00.000" out="00:00:06.433">
  <property name="length">194</property>
  <property name="eof">pause</property>
  <property name="resource">/run/media/uberdev/edrv/vid_editor_content/stock_footages/openmoji-hiqual-color/001/1F447.png</property>
  <property name="ttl">25</property>
  <property name="aspect_ratio">1</property>
  <property name="meta.media.progressive">1</property>
  <property name="seekable">1</property>
  <property name="format">2</property>
  <property name="meta.media.width">618</property>
  <property name="meta.media.height">618</property>
  <property name="mlt_service">qimage</property>
  <property name="kdenlive:duration">00:00:05:00</property>
  <property name="xml">was here</property>
  <property name="kdenlive:folderid">22</property>
  <property name="kdenlive:id">54</property>
  <property name="kdenlive:control_uuid">{c0e8075c-fa55-46d5-b10f-6b49fe45c126}</property>
  <property name="kdenlive:clip_type">2</property>
  <property name="kdenlive:file_size">7829</property>
  <property name="kdenlive:file_hash">925b102dccf1451f141dbe4879300904</property>
  <property name="kdenlive:monitorPosition">107</property>
  <filter id="filter7">
   <property name="rotate_center">1</property>
   <property name="mlt_service">qtblend</property>
   <property name="kdenlive_id">qtblend</property>
   <property name="compositing">0</property>
   <property name="distort">0</property>
   <property name="rect">0=0 0 1920 1080 1</property>
   <property name="rotation">0=0</property>
   <property name="disable">1</property>
   <property name="kdenlive:kfrhidden">1</property>
   <property name="kdenlive:collapsed">1</property>
   <property name="kdenlive:builtin">1</property>
  </filter>
 </producer>
 <producer id="producer26" in="00:00:00.000" out="00:00:11.867">
  <property name="length">357</property>
  <property name="eof">pause</property>
  <property name="resource">/run/media/uberdev/edrv/vid_editor_content/stock_footages/openmoji-hiqual-color/001/1F448.png</property>
  <property name="ttl">25</property>
  <property name="aspect_ratio">1</property>
  <property name="meta.media.progressive">1</property>
  <property name="seekable">1</property>
  <property name="format">2</property>
  <property name="meta.media.width">618</property>
  <property name="meta.media.height">618</property>
  <property name="mlt_service">qimage</property>
  <property name="kdenlive:duration">00:00:05:00</property>
  <property name="xml">was here</property>
  <property name="kdenlive:folderid">22</property>
  <property name="kdenlive:id">55</property>
  <property name="kdenlive:control_uuid">{858aa906-24ca-4e43-9ea9-26b49aa544dc}</property>
  <property name="kdenlive:clip_type">2</property>
  <property name="kdenlive:file_size">6993</property>
  <property name="kdenlive:file_hash">cb40e40f1378680cf38348bc9e4623f7</property>
  <property name="kdenlive:monitorPosition">356</property>
  <filter id="filter14">
   <property name="rotate_center">1</property>
   <property name="mlt_service">qtblend</property>
   <property name="kdenlive_id">qtblend</property>
   <property name="compositing">0</property>
   <property name="distort">0</property>
   <property name="rect">0=0 0 1920 1080 1</property>
   <property name="rotation">0=0</property>
   <property name="disable">1</property>
   <property name="kdenlive:kfrhidden">1</property>
   <property name="kdenlive:collapsed">1</property>
   <property name="kdenlive:builtin">1</property>
  </filter>
 </producer>
 <producer id="producer23" in="00:00:00.000" out="00:00:12.567">
  <property name="length">378</property>
  <property name="eof">pause</property>
  <property name="resource">/run/media/uberdev/edrv/vid_editor_content/stock_footages/openmoji-hiqual-color/001/1F449.png</property>
  <property name="ttl">25</property>
  <property name="aspect_ratio">1</property>
  <property name="meta.media.progressive">1</property>
  <property name="seekable">1</property>
  <property name="format">2</property>
  <property name="meta.media.width">618</property>
  <property name="meta.media.height">618</property>
  <property name="mlt_service">qimage</property>
  <property name="kdenlive:duration">00:00:05:00</property>
  <property name="xml">was here</property>
  <property name="kdenlive:folderid">22</property>
  <property name="kdenlive:id">56</property>
  <property name="kdenlive:control_uuid">{c2bbff4e-9909-4600-a921-ceaef29d0c61}</property>
  <property name="kdenlive:clip_type">2</property>
  <property name="kdenlive:file_size">7414</property>
  <property name="kdenlive:file_hash">50b0c07c734e814671fe0f6cd3fcac7f</property>
  <property name="kdenlive:monitorPosition">0</property>
  <filter id="filter81">
   <property name="rotate_center">1</property>
   <property name="mlt_service">qtblend</property>
   <property name="kdenlive_id">qtblend</property>
   <property name="compositing">0</property>
   <property name="distort">0</property>
   <property name="rect">0=0 0 1920 1080 1</property>
   <property name="rotation">0=0</property>
   <property name="disable">1</property>
   <property name="kdenlive:kfrhidden">1</property>
   <property name="kdenlive:collapsed">1</property>
   <property name="kdenlive:builtin">1</property>
  </filter>
 </producer>
 <chain id="chain26" out="00:00:28.133">
  <property name="length">845</property>
  <property name="eof">pause</property>
  <property name="resource">02_Assets/audio_tracks/design_tool_t3_ol.mp3</property>
  <property name="mlt_service">avformat</property>
  <property name="meta.media.nb_streams">1</property>
  <property name="meta.media.0.stream.type">audio</property>
  <property name="meta.media.0.codec.sample_fmt">fltp</property>
  <property name="meta.media.0.codec.sample_rate">24000</property>
  <property name="meta.media.0.codec.channels">1</property>
  <property name="meta.media.0.codec.layout">mono</property>
  <property name="meta.media.0.codec.name">mp3float</property>
  <property name="meta.media.0.codec.long_name">MP3 (MPEG audio layer 3)</property>
  <property name="meta.media.0.codec.bit_rate">160000</property>
  <property name="seekable">1</property>
  <property name="audio_index">0</property>
  <property name="video_index">-1</property>
  <property name="astream">0</property>
  <property name="kdenlive:folderid">33</property>
  <property name="kdenlive:id">57</property>
  <property name="kdenlive:control_uuid">{85c64fa0-1bbb-4f8b-9d7b-adf9134f0b19}</property>
  <property name="kdenlive:clip_type">1</property>
  <property name="kdenlive:file_size">563040</property>
  <property name="kdenlive:file_hash">60f1451a5abe25c0d83cc9b360600a82</property>
  <property name="kdenlive:audio_max0">174</property>
  <property name="kdenlive:monitorPosition">0</property>
  <filter id="filter124">
   <property name="window">75</property>
   <property name="max_gain">20dB</property>
   <property name="level">0=0</property>
   <property name="mlt_service">volume</property>
   <property name="kdenlive_id">volume</property>
   <property name="disable">1</property>
   <property name="kdenlive:kfrhidden">1</property>
   <property name="kdenlive:builtin">1</property>
   <property name="kdenlive:collapsed">0</property>
  </filter>
 </chain>
 <chain id="chain27" out="00:00:52.667">
  <property name="length">1581</property>
  <property name="eof">pause</property>
  <property name="resource">/run/media/uberdev/edrv/vid_editor_content/sound_effects/action_footages/buzz_confused/moving_fast-hd_1008_2048_24fps.mp4</property>
  <property name="mlt_service">avformat-novalidate</property>
  <property name="meta.media.nb_streams">1</property>
  <property name="meta.media.0.stream.type">video</property>
  <property name="meta.media.0.stream.frame_rate">24</property>
  <property name="meta.media.0.stream.sample_aspect_ratio">0</property>
  <property name="meta.media.0.codec.width">1008</property>
  <property name="meta.media.0.codec.height">2048</property>
  <property name="meta.media.0.codec.rotate">0</property>
  <property name="meta.media.0.codec.pix_fmt">yuv420p</property>
  <property name="meta.media.0.codec.sample_aspect_ratio">0</property>
  <property name="meta.media.0.codec.colorspace">709</property>
  <property name="meta.media.0.codec.color_trc">1</property>
  <property name="meta.media.0.codec.name">h264</property>
  <property name="meta.media.0.codec.long_name">H.264 / AVC / MPEG-4 AVC / MPEG-4 part 10</property>
  <property name="meta.media.0.codec.bit_rate">5435694</property>
  <property name="meta.attr.0.stream.creation_time.markup">2020-08-18T17:04:05.000000Z</property>
  <property name="meta.attr.0.stream.handler_name.markup">L-SMASH Video Handler</property>
  <property name="meta.attr.0.stream.vendor_id.markup">[0][0][0][0]</property>
  <property name="meta.attr.0.stream.encoder.markup">AVC Coding</property>
  <property name="meta.attr.major_brand.markup">mp42</property>
  <property name="meta.attr.minor_version.markup">0</property>
  <property name="meta.attr.compatible_brands.markup">mp42mp41isomavc1</property>
  <property name="meta.attr.creation_time.markup">2020-08-18T17:04:05.000000Z</property>
  <property name="seekable">1</property>
  <property name="meta.media.sample_aspect_num">1</property>
  <property name="meta.media.sample_aspect_den">1</property>
  <property name="format">3</property>
  <property name="audio_index">-1</property>
  <property name="video_index">0</property>
  <property name="vstream">0</property>
  <property name="meta.media.frame_rate_num">24</property>
  <property name="meta.media.frame_rate_den">1</property>
  <property name="meta.media.colorspace">709</property>
  <property name="meta.media.color_trc">1</property>
  <property name="meta.media.has_b_frames">2</property>
  <property name="meta.media.width">1008</property>
  <property name="meta.media.height">2048</property>
  <property name="meta.media.aspect_ratio">1</property>
  <property name="meta.media.color_range">mpeg</property>
  <property name="meta.media.top_field_first">0</property>
  <property name="meta.media.progressive">1</property>
  <property name="kdenlive:folderid">13</property>
  <property name="kdenlive:id">58</property>
  <property name="kdenlive:control_uuid">{d07a0c84-0c3b-4dc8-9f65-b953eec8f04a}</property>
  <property name="mute_on_pause">0</property>
  <property name="kdenlive:clip_type">2</property>
  <property name="kdenlive:file_size">35829576</property>
  <property name="kdenlive:file_hash">76e27802660b57ff2bc7265ad7c16538</property>
  <property name="kdenlive:zone_in">75</property>
  <property name="kdenlive:zone_out">349</property>
  <property name="kdenlive:monitorPosition">60</property>
  <property name="kdenlive:clipzones">[
    {
        "in": 75,
        "name": "Zone 1",
        "out": 255
    }
]
</property>
  <property name="kdenlive:activeeffect">0</property>
  <filter id="filter125">
   <property name="rotate_center">1</property>
   <property name="mlt_service">qtblend</property>
   <property name="kdenlive_id">qtblend</property>
   <property name="compositing">0</property>
   <property name="distort">0</property>
   <property name="rect">00:00:00.000=0 0 1920 1080 1</property>
   <property name="rotation">00:00:00.000=0</property>
   <property name="kdenlive:kfrhidden">1</property>
   <property name="kdenlive:collapsed">1</property>
   <property name="kdenlive:builtin">1</property>
  </filter>
 </chain>
 <producer id="producer21" in="00:00:00.000" out="00:00:07.900">
  <property name="length">238</property>
  <property name="eof">pause</property>
  <property name="resource"/>
  <property name="meta.media.progressive">1</property>
  <property name="aspect_ratio">1</property>
  <property name="seekable">1</property>
  <property name="mlt_service">kdenlivetitle</property>
  <property name="kdenlive:duration">00:00:05:00</property>
  <property name="kdenlive:clipname">Start From t...</property>
  <property name="xmldata">&lt;kdenlivetitle LC_NUMERIC="C" duration="150" height="1080" out="149" width="1920">
 &lt;item type="QGraphicsTextItem" z-index="0">
  &lt;position x="393" y="247">
   &lt;transform>1,0,0,0,1,0,0,0,1&lt;/transform>
  &lt;/position>
  &lt;content alignment="4" box-height="586" box-width="1133.77" font="Bangers" font-color="255,236,25,255" font-italic="0" font-pixel-size="275" font-underline="0" font-weight="400" letter-spacing="-2" line-spacing="0" shadow="0;#64000000;3;3;3" tab-width="80" typewriter="0;2;1;0;0">Start From
the End&lt;/content>
 &lt;/item>
 &lt;startviewport rect="0,0,1920,1080"/>
 &lt;endviewport rect="0,0,1920,1080"/>
 &lt;background color="255,255,255,0"/>
&lt;/kdenlivetitle>
</property>
  <property name="xml">was here</property>
  <property name="kdenlive:folderid">17</property>
  <property name="kdenlive:id">60</property>
  <property name="kdenlive:clip_type">2</property>
  <property name="kdenlive:file_hash">6762e87c33ce37afebf736f88d78d3aa</property>
  <property name="force_reload">0</property>
  <property name="kdenlive:monitorPosition">91</property>
  <property name="kdenlive:control_uuid">{c0092f81-c1e8-4cd6-b10d-88d98acaf76c}</property>
  <property name="kdenlive:uniqueId">{eb0660ea-8866-488c-bb03-964a8ae16d49}</property>
  <property name="meta.media.width">1920</property>
  <property name="meta.media.height">1080</property>
  <filter id="filter70">
   <property name="rotate_center">1</property>
   <property name="mlt_service">qtblend</property>
   <property name="kdenlive_id">qtblend</property>
   <property name="compositing">0</property>
   <property name="distort">0</property>
   <property name="rect">0=0 0 1920 1080 1</property>
   <property name="rotation">0=0</property>
   <property name="kdenlive:builtin">1</property>
   <property name="kdenlive:kfrhidden">1</property>
   <property name="kdenlive:collapsed">1</property>
   <property name="disable">1</property>
  </filter>
 </producer>
 <producer id="producer30" in="00:00:00.000" out="00:00:11.667">
  <property name="length">351</property>
  <property name="eof">pause</property>
  <property name="resource"/>
  <property name="meta.media.progressive">1</property>
  <property name="aspect_ratio">1</property>
  <property name="seekable">1</property>
  <property name="mlt_service">kdenlivetitle</property>
  <property name="kdenlive:duration">00:00:05:00</property>
  <property name="kdenlive:clipname">What is the ...</property>
  <property name="xmldata">&lt;kdenlivetitle LC_NUMERIC="C" duration="150" height="1080" out="149" width="1920">
 &lt;item type="QGraphicsTextItem" z-index="0">
  &lt;position x="395" y="247">
   &lt;transform>1,0,0,0,1,0,0,0,1&lt;/transform>
  &lt;/position>
  &lt;content alignment="4" box-height="586" box-width="1130.39" font="Bangers" font-color="255,236,25,255" font-italic="0" font-pixel-size="275" font-underline="0" font-weight="400" letter-spacing="-2" line-spacing="0" shadow="0;#64000000;3;3;3" tab-width="80" typewriter="0;2;1;0;0">What is the 
Input&lt;/content>
 &lt;/item>
 &lt;startviewport rect="0,0,1920,1080"/>
 &lt;endviewport rect="0,0,1920,1080"/>
 &lt;background color="255,255,255,0"/>
&lt;/kdenlivetitle>
</property>
  <property name="xml">was here</property>
  <property name="kdenlive:folderid">17</property>
  <property name="kdenlive:id">61</property>
  <property name="kdenlive:clip_type">2</property>
  <property name="kdenlive:file_hash">d09578d3a80f574c2fb1c5fa6399a25f</property>
  <property name="force_reload">0</property>
  <property name="kdenlive:monitorPosition">91</property>
  <property name="kdenlive:control_uuid">{fc98e80e-6a02-4bd4-8d2a-a7b0d3ceaf04}</property>
  <property name="kdenlive:uniqueId">{821b1537-e49b-42ea-b942-c7588d1842ef}</property>
  <property name="meta.media.width">1920</property>
  <property name="meta.media.height">1080</property>
  <filter id="filter96">
   <property name="rotate_center">1</property>
   <property name="mlt_service">qtblend</property>
   <property name="kdenlive_id">qtblend</property>
   <property name="compositing">0</property>
   <property name="distort">0</property>
   <property name="rect">0=0 0 1920 1080 1</property>
   <property name="rotation">0=0</property>
   <property name="kdenlive:builtin">1</property>
   <property name="kdenlive:kfrhidden">1</property>
   <property name="kdenlive:collapsed">1</property>
   <property name="disable">1</property>
  </filter>
 </producer>
 <producer id="producer27" in="00:00:00.000" out="00:00:05.067">
  <property name="length">153</property>
  <property name="eof">pause</property>
  <property name="resource"/>
  <property name="meta.media.progressive">1</property>
  <property name="aspect_ratio">1</property>
  <property name="seekable">1</property>
  <property name="mlt_service">kdenlivetitle</property>
  <property name="kdenlive:duration">00:00:05:00</property>
  <property name="kdenlive:clipname">Then the LOg...</property>
  <property name="xmldata">&lt;kdenlivetitle LC_NUMERIC="C" duration="150" height="1080" out="149" width="1920">
 &lt;item type="QGraphicsTextItem" z-index="0">
  &lt;position x="547" y="247">
   &lt;transform>1,0,0,0,1,0,0,0,1&lt;/transform>
  &lt;/position>
  &lt;content alignment="4" box-height="586" box-width="823.078" font="Bangers" font-color="255,236,25,255" font-italic="0" font-pixel-size="275" font-underline="0" font-weight="400" letter-spacing="-2" line-spacing="0" shadow="0;#64000000;3;3;3" tab-width="80" typewriter="0;2;1;0;0">Then the
LOgic&lt;/content>
 &lt;/item>
 &lt;startviewport rect="0,0,1920,1080"/>
 &lt;endviewport rect="0,0,1920,1080"/>
 &lt;background color="255,255,255,0"/>
&lt;/kdenlivetitle>
</property>
  <property name="xml">was here</property>
  <property name="kdenlive:folderid">17</property>
  <property name="kdenlive:id">62</property>
  <property name="kdenlive:clip_type">2</property>
  <property name="kdenlive:file_hash">07a73cb5f3c24ddb86ba1fa112ffdb40</property>
  <property name="force_reload">0</property>
  <property name="kdenlive:monitorPosition">91</property>
  <property name="kdenlive:control_uuid">{71097c85-2fa1-468b-8ac5-3c2825cebcb6}</property>
  <property name="kdenlive:uniqueId">{36a42247-7692-4108-a48b-ca4c21c53906}</property>
  <property name="meta.media.width">1920</property>
  <property name="meta.media.height">1080</property>
  <filter id="filter71">
   <property name="rotate_center">1</property>
   <property name="mlt_service">qtblend</property>
   <property name="kdenlive_id">qtblend</property>
   <property name="compositing">0</property>
   <property name="distort">0</property>
   <property name="rect">0=0 0 1920 1080 1</property>
   <property name="rotation">0=0</property>
   <property name="kdenlive:builtin">1</property>
   <property name="kdenlive:kfrhidden">1</property>
   <property name="kdenlive:collapsed">1</property>
   <property name="disable">1</property>
  </filter>
 </producer>
 <chain id="chain28" out="00:00:26.967">
  <property name="length">810</property>
  <property name="eof">pause</property>
  <property name="resource">/run/media/uberdev/edrv/vid_editor_content/stock_footages_01/thinking_lost/4873122-hd_1280_720_25fps.mp4</property>
  <property name="mlt_service">avformat-novalidate</property>
  <property name="meta.media.nb_streams">1</property>
  <property name="meta.media.0.stream.type">video</property>
  <property name="meta.media.0.stream.frame_rate">25</property>
  <property name="meta.media.0.stream.sample_aspect_ratio">0</property>
  <property name="meta.media.0.codec.width">1280</property>
  <property name="meta.media.0.codec.height">720</property>
  <property name="meta.media.0.codec.rotate">0</property>
  <property name="meta.media.0.codec.pix_fmt">yuv420p</property>
  <property name="meta.media.0.codec.sample_aspect_ratio">0</property>
  <property name="meta.media.0.codec.colorspace">709</property>
  <property name="meta.media.0.codec.color_trc">1</property>
  <property name="meta.media.0.codec.name">h264</property>
  <property name="meta.media.0.codec.long_name">H.264 / AVC / MPEG-4 AVC / MPEG-4 part 10</property>
  <property name="meta.media.0.codec.bit_rate">1454678</property>
  <property name="meta.attr.0.stream.creation_time.markup">2020-07-15T07:07:20.000000Z</property>
  <property name="meta.attr.0.stream.handler_name.markup">L-SMASH Video Handler</property>
  <property name="meta.attr.0.stream.vendor_id.markup">[0][0][0][0]</property>
  <property name="meta.attr.0.stream.encoder.markup">AVC Coding</property>
  <property name="meta.attr.major_brand.markup">mp42</property>
  <property name="meta.attr.minor_version.markup">0</property>
  <property name="meta.attr.compatible_brands.markup">mp42mp41isomavc1</property>
  <property name="meta.attr.creation_time.markup">2020-07-15T07:07:20.000000Z</property>
  <property name="seekable">1</property>
  <property name="meta.media.sample_aspect_num">1</property>
  <property name="meta.media.sample_aspect_den">1</property>
  <property name="format">3</property>
  <property name="audio_index">-1</property>
  <property name="video_index">0</property>
  <property name="vstream">0</property>
  <property name="meta.media.frame_rate_num">25</property>
  <property name="meta.media.frame_rate_den">1</property>
  <property name="meta.media.colorspace">709</property>
  <property name="meta.media.color_trc">1</property>
  <property name="meta.media.has_b_frames">2</property>
  <property name="meta.media.width">1280</property>
  <property name="meta.media.height">720</property>
  <property name="meta.media.aspect_ratio">1</property>
  <property name="meta.media.color_range">mpeg</property>
  <property name="meta.media.top_field_first">0</property>
  <property name="meta.media.progressive">1</property>
  <property name="kdenlive:folderid">13</property>
  <property name="kdenlive:id">63</property>
  <property name="kdenlive:control_uuid">{92ae98ad-ef25-4092-b181-f067a2cf53ac}</property>
  <property name="mute_on_pause">0</property>
  <property name="kdenlive:clip_type">2</property>
  <property name="kdenlive:file_size">4919350</property>
  <property name="kdenlive:file_hash">aa30709d289d6a920b5ddeca790ad6d8</property>
  <property name="kdenlive:zone_in">67</property>
  <property name="kdenlive:zone_out">301</property>
  <property name="kdenlive:activeeffect">0</property>
  <property name="kdenlive:monitorPosition">209</property>
  <filter id="filter126">
   <property name="rotate_center">1</property>
   <property name="mlt_service">qtblend</property>
   <property name="kdenlive_id">qtblend</property>
   <property name="compositing">0</property>
   <property name="distort">0</property>
   <property name="rect">00:00:00.000=0 0 1920 1080 1.000000;00:00:06.967=0 0 1920 1080 1.000000</property>
   <property name="rotation">00:00:00.000=0;00:00:06.967=0</property>
   <property name="kdenlive:kfrhidden">0</property>
   <property name="kdenlive:collapsed">0</property>
   <property name="kdenlive:builtin">1</property>
  </filter>
 </chain>
 <chain id="chain29" out="00:00:46.400">
  <property name="length">1393</property>
  <property name="eof">pause</property>
  <property name="resource">02_Assets/audio_tracks/design_tool_t3.mp3</property>
  <property name="mlt_service">avformat</property>
  <property name="meta.media.nb_streams">1</property>
  <property name="meta.media.0.stream.type">audio</property>
  <property name="meta.media.0.codec.sample_fmt">fltp</property>
  <property name="meta.media.0.codec.sample_rate">24000</property>
  <property name="meta.media.0.codec.channels">1</property>
  <property name="meta.media.0.codec.layout">mono</property>
  <property name="meta.media.0.codec.name">mp3float</property>
  <property name="meta.media.0.codec.long_name">MP3 (MPEG audio layer 3)</property>
  <property name="meta.media.0.codec.bit_rate">160000</property>
  <property name="seekable">1</property>
  <property name="audio_index">0</property>
  <property name="video_index">-1</property>
  <property name="astream">0</property>
  <property name="kdenlive:folderid">33</property>
  <property name="kdenlive:id">64</property>
  <property name="kdenlive:control_uuid">{99edb04e-3e72-415b-a49d-bd19b14c3ff6}</property>
  <property name="kdenlive:clip_type">1</property>
  <property name="kdenlive:file_size">928800</property>
  <property name="kdenlive:file_hash">bbe76b714edd55e0c15df01e474c0be3</property>
  <property name="kdenlive:audio_max0">176</property>
  <property name="kdenlive:monitorPosition">0</property>
  <filter id="filter127">
   <property name="window">75</property>
   <property name="max_gain">20dB</property>
   <property name="level">0=0</property>
   <property name="mlt_service">volume</property>
   <property name="kdenlive_id">volume</property>
   <property name="disable">1</property>
   <property name="kdenlive:kfrhidden">1</property>
   <property name="kdenlive:builtin">1</property>
   <property name="kdenlive:collapsed">0</property>
  </filter>
 </chain>
 <chain id="chain34" out="00:00:17.667">
  <property name="length">531</property>
  <property name="eof">pause</property>
  <property name="resource">02_Assets/audio_tracks/code_wt_t4_ol.mp3</property>
  <property name="mlt_service">avformat</property>
  <property name="meta.media.nb_streams">1</property>
  <property name="meta.media.0.stream.type">audio</property>
  <property name="meta.media.0.codec.sample_fmt">fltp</property>
  <property name="meta.media.0.codec.sample_rate">24000</property>
  <property name="meta.media.0.codec.channels">1</property>
  <property name="meta.media.0.codec.layout">mono</property>
  <property name="meta.media.0.codec.name">mp3float</property>
  <property name="meta.media.0.codec.long_name">MP3 (MPEG audio layer 3)</property>
  <property name="meta.media.0.codec.bit_rate">160000</property>
  <property name="seekable">1</property>
  <property name="audio_index">0</property>
  <property name="video_index">-1</property>
  <property name="astream">0</property>
  <property name="kdenlive:folderid">33</property>
  <property name="kdenlive:id">65</property>
  <property name="kdenlive:control_uuid">{f18bcddd-7332-4902-b7a5-277bd8fafdb9}</property>
  <property name="kdenlive:clip_type">1</property>
  <property name="kdenlive:file_size">354240</property>
  <property name="kdenlive:file_hash">ddf38852e9b0da83cdbc6d8800c58dfb</property>
  <property name="kdenlive:audio_max0">182</property>
  <property name="kdenlive:monitorPosition">0</property>
  <filter id="filter164">
   <property name="window">75</property>
   <property name="max_gain">20dB</property>
   <property name="level">0=0</property>
   <property name="mlt_service">volume</property>
   <property name="kdenlive_id">volume</property>
   <property name="disable">1</property>
   <property name="kdenlive:kfrhidden">1</property>
   <property name="kdenlive:builtin">1</property>
   <property name="kdenlive:collapsed">0</property>
  </filter>
 </chain>
 <producer id="producer37" in="00:00:00.000" out="00:00:13.367">
  <property name="length">402</property>
  <property name="eof">pause</property>
  <property name="resource"/>
  <property name="meta.media.progressive">1</property>
  <property name="aspect_ratio">1</property>
  <property name="seekable">1</property>
  <property name="mlt_service">kdenlivetitle</property>
  <property name="kdenlive:duration">00:00:05:00</property>
  <property name="kdenlive:clipname">MCP in Actio...</property>
  <property name="xmldata">&lt;kdenlivetitle LC_NUMERIC="C" duration="150" height="1080" out="149" width="1920">
 &lt;item type="QGraphicsTextItem" z-index="0">
  &lt;position x="109" y="247">
   &lt;transform>1,0,0,0,1,0,0,0,1&lt;/transform>
  &lt;/position>
  &lt;content alignment="4" box-height="586" box-width="1702.69" font="Bangers" font-color="255,236,25,255" font-italic="0" font-pixel-size="275" font-underline="0" font-weight="400" letter-spacing="-2" line-spacing="0" shadow="0;#64000000;3;3;3" tab-width="80" typewriter="0;2;1;0;0">MCP in Action
ADD TASK Example&lt;/content>
 &lt;/item>
 &lt;startviewport rect="0,0,1920,1080"/>
 &lt;endviewport rect="0,0,1920,1080"/>
 &lt;background color="255,255,255,0"/>
&lt;/kdenlivetitle>
</property>
  <property name="xml">was here</property>
  <property name="kdenlive:folderid">17</property>
  <property name="kdenlive:id">66</property>
  <property name="kdenlive:clip_type">2</property>
  <property name="kdenlive:file_hash">8ddfd7e55413e744313db8f84420b7dc</property>
  <property name="force_reload">0</property>
  <property name="kdenlive:monitorPosition">91</property>
  <property name="kdenlive:control_uuid">{a8ec2804-e923-41dc-b196-468c8a2a0e36}</property>
  <property name="kdenlive:uniqueId">{00b74198-0954-4fcf-93c8-3dc21e13a351}</property>
  <property name="meta.media.width">1920</property>
  <property name="meta.media.height">1080</property>
  <filter id="filter157">
   <property name="rotate_center">1</property>
   <property name="mlt_service">qtblend</property>
   <property name="kdenlive_id">qtblend</property>
   <property name="compositing">0</property>
   <property name="distort">0</property>
   <property name="rect">0=0 0 1920 1080 1</property>
   <property name="rotation">0=0</property>
   <property name="kdenlive:builtin">1</property>
   <property name="kdenlive:kfrhidden">1</property>
   <property name="kdenlive:collapsed">1</property>
   <property name="disable">1</property>
  </filter>
 </producer>
 <producer id="producer28" in="00:00:00.000" out="00:00:18.333">
  <property name="length">551</property>
  <property name="eof">pause</property>
  <property name="resource">02_Assets/ppt/add_task_code.png</property>
  <property name="ttl">25</property>
  <property name="aspect_ratio">1</property>
  <property name="meta.media.progressive">1</property>
  <property name="seekable">1</property>
  <property name="format">2</property>
  <property name="meta.media.width">1063</property>
  <property name="meta.media.height">450</property>
  <property name="mlt_service">qimage</property>
  <property name="kdenlive:duration">00:00:05:00</property>
  <property name="xml">was here</property>
  <property name="kdenlive:folderid">6</property>
  <property name="kdenlive:id">67</property>
  <property name="kdenlive:control_uuid">{ab981ca6-a1d8-4247-a1e6-9e5a38cbbf22}</property>
  <property name="kdenlive:clip_type">2</property>
  <property name="kdenlive:file_size">71658</property>
  <property name="kdenlive:file_hash">34f4878326fb1179378e034462a1f08e</property>
  <property name="kdenlive:monitorPosition">0</property>
  <filter id="filter88">
   <property name="rotate_center">1</property>
   <property name="mlt_service">qtblend</property>
   <property name="kdenlive_id">qtblend</property>
   <property name="compositing">0</property>
   <property name="distort">0</property>
   <property name="rect">0=0 0 1920 1080 1</property>
   <property name="rotation">0=0</property>
   <property name="disable">1</property>
   <property name="kdenlive:kfrhidden">1</property>
   <property name="kdenlive:collapsed">1</property>
   <property name="kdenlive:builtin">1</property>
  </filter>
 </producer>
 <chain id="chain35" out="00:00:17.767">
  <property name="length">534</property>
  <property name="eof">pause</property>
  <property name="resource">02_Assets/audio_tracks/code_wt_t4.mp3</property>
  <property name="mlt_service">avformat</property>
  <property name="meta.media.nb_streams">1</property>
  <property name="meta.media.0.stream.type">audio</property>
  <property name="meta.media.0.codec.sample_fmt">fltp</property>
  <property name="meta.media.0.codec.sample_rate">24000</property>
  <property name="meta.media.0.codec.channels">1</property>
  <property name="meta.media.0.codec.layout">mono</property>
  <property name="meta.media.0.codec.name">mp3float</property>
  <property name="meta.media.0.codec.long_name">MP3 (MPEG audio layer 3)</property>
  <property name="meta.media.0.codec.bit_rate">160000</property>
  <property name="seekable">1</property>
  <property name="audio_index">0</property>
  <property name="video_index">-1</property>
  <property name="astream">0</property>
  <property name="kdenlive:folderid">33</property>
  <property name="kdenlive:id">68</property>
  <property name="kdenlive:control_uuid">{70cfe133-9dff-4c53-ba63-8bf05b934528}</property>
  <property name="kdenlive:clip_type">1</property>
  <property name="kdenlive:file_size">356160</property>
  <property name="kdenlive:file_hash">708b1b830c3bdc75cb7872a56e14ee68</property>
  <property name="kdenlive:audio_max0">176</property>
  <property name="kdenlive:monitorPosition">0</property>
  <filter id="filter165">
   <property name="window">75</property>
   <property name="max_gain">20dB</property>
   <property name="level">0=0</property>
   <property name="mlt_service">volume</property>
   <property name="kdenlive_id">volume</property>
   <property name="disable">1</property>
   <property name="kdenlive:kfrhidden">1</property>
   <property name="kdenlive:builtin">1</property>
   <property name="kdenlive:collapsed">0</property>
  </filter>
 </chain>
 <producer id="producer31" in="00:00:00.000" out="00:00:13.367">
  <property name="length">402</property>
  <property name="eof">pause</property>
  <property name="resource"/>
  <property name="meta.media.progressive">1</property>
  <property name="aspect_ratio">1</property>
  <property name="seekable">1</property>
  <property name="mlt_service">kdenlivetitle</property>
  <property name="kdenlive:duration">00:00:05:00</property>
  <property name="kdenlive:clipname">HOW WILL THE...</property>
  <property name="xmldata">&lt;kdenlivetitle LC_NUMERIC="C" duration="150" height="1080" out="149" width="1920">
 &lt;item type="QGraphicsTextItem" z-index="0">
  &lt;position x="29" y="247">
   &lt;transform>1,0,0,0,1,0,0,0,1&lt;/transform>
  &lt;/position>
  &lt;content alignment="4" box-height="586" box-width="1861.39" font="Bangers" font-color="255,236,25,255" font-italic="0" font-pixel-size="275" font-underline="0" font-weight="400" letter-spacing="-2" line-spacing="0" shadow="0;#64000000;3;3;3" tab-width="80" typewriter="0;2;1;0;0">HOW WILL THE USER
ASK FOR SOMETHING&lt;/content>
 &lt;/item>
 &lt;startviewport rect="0,0,1920,1080"/>
 &lt;endviewport rect="0,0,1920,1080"/>
 &lt;background color="255,255,255,0"/>
&lt;/kdenlivetitle>
</property>
  <property name="xml">was here</property>
  <property name="kdenlive:folderid">17</property>
  <property name="kdenlive:id">69</property>
  <property name="kdenlive:clip_type">2</property>
  <property name="kdenlive:file_hash">a88d2932df1ae1568c08d94ed758ce80</property>
  <property name="force_reload">0</property>
  <property name="kdenlive:monitorPosition">91</property>
  <property name="kdenlive:control_uuid">{4e37698c-4036-4074-9d4c-90619f3e5b56}</property>
  <property name="kdenlive:uniqueId">{b4a69d8b-7c0f-4a77-a033-f7d35601d519}</property>
  <property name="meta.media.width">1920</property>
  <property name="meta.media.height">1080</property>
  <filter id="filter90">
   <property name="rotate_center">1</property>
   <property name="mlt_service">qtblend</property>
   <property name="kdenlive_id">qtblend</property>
   <property name="compositing">0</property>
   <property name="distort">0</property>
   <property name="rect">0=0 0 1920 1080 1</property>
   <property name="rotation">0=0</property>
   <property name="kdenlive:builtin">1</property>
   <property name="kdenlive:kfrhidden">1</property>
   <property name="kdenlive:collapsed">1</property>
   <property name="disable">1</property>
  </filter>
 </producer>
 <chain id="chain36" out="00:00:27.600">
  <property name="length">829</property>
  <property name="eof">pause</property>
  <property name="resource">02_Assets/audio_tracks/next_video_hook.mp3</property>
  <property name="mlt_service">avformat</property>
  <property name="meta.media.nb_streams">1</property>
  <property name="meta.media.0.stream.type">audio</property>
  <property name="meta.media.0.codec.sample_fmt">fltp</property>
  <property name="meta.media.0.codec.sample_rate">24000</property>
  <property name="meta.media.0.codec.channels">1</property>
  <property name="meta.media.0.codec.layout">mono</property>
  <property name="meta.media.0.codec.name">mp3float</property>
  <property name="meta.media.0.codec.long_name">MP3 (MPEG audio layer 3)</property>
  <property name="meta.media.0.codec.bit_rate">160000</property>
  <property name="seekable">1</property>
  <property name="audio_index">0</property>
  <property name="video_index">-1</property>
  <property name="astream">0</property>
  <property name="kdenlive:folderid">33</property>
  <property name="kdenlive:id">70</property>
  <property name="kdenlive:control_uuid">{7dcfc58a-501f-4dc5-be7e-74e5d9a328df}</property>
  <property name="kdenlive:clip_type">1</property>
  <property name="kdenlive:file_size">552480</property>
  <property name="kdenlive:file_hash">34a26cc8437346974558620ce3c2c4cf</property>
  <property name="kdenlive:audio_max0">170</property>
  <property name="kdenlive:monitorPosition">0</property>
  <filter id="filter166">
   <property name="window">75</property>
   <property name="max_gain">20dB</property>
   <property name="level">0=0</property>
   <property name="mlt_service">volume</property>
   <property name="kdenlive_id">volume</property>
   <property name="disable">1</property>
   <property name="kdenlive:kfrhidden">1</property>
   <property name="kdenlive:builtin">1</property>
   <property name="kdenlive:collapsed">0</property>
  </filter>
 </chain>
 <producer id="producer29" in="00:00:00.000" out="00:00:13.367">
  <property name="length">402</property>
  <property name="eof">pause</property>
  <property name="resource"/>
  <property name="meta.media.progressive">1</property>
  <property name="aspect_ratio">1</property>
  <property name="seekable">1</property>
  <property name="mlt_service">kdenlivetitle</property>
  <property name="kdenlive:duration">00:00:05:00</property>
  <property name="kdenlive:clipname">MCP SERver i...</property>
  <property name="xmldata">&lt;kdenlivetitle LC_NUMERIC="C" duration="150" height="1080" out="149" width="1920">
 &lt;item type="QGraphicsTextItem" z-index="0">
  &lt;position x="180" y="247">
   &lt;transform>1,0,0,0,1,0,0,0,1&lt;/transform>
  &lt;/position>
  &lt;content alignment="4" box-height="586" box-width="1561.08" font="Bangers" font-color="255,236,25,255" font-italic="0" font-pixel-size="275" font-underline="0" font-weight="400" letter-spacing="-2" line-spacing="0" shadow="0;#64000000;3;3;3" tab-width="80" typewriter="0;2;1;0;0">MCP SERver is 
Dynamic System&lt;/content>
 &lt;/item>
 &lt;startviewport rect="0,0,1920,1080"/>
 &lt;endviewport rect="0,0,1920,1080"/>
 &lt;background color="255,255,255,0"/>
&lt;/kdenlivetitle>
</property>
  <property name="xml">was here</property>
  <property name="kdenlive:folderid">17</property>
  <property name="kdenlive:id">71</property>
  <property name="kdenlive:clip_type">2</property>
  <property name="kdenlive:file_hash">4ce4660a1cbc344cd53abde7b67fd145</property>
  <property name="force_reload">0</property>
  <property name="kdenlive:monitorPosition">91</property>
  <property name="kdenlive:control_uuid">{1aca8aaf-dd43-42af-811a-185daecad4e2}</property>
  <property name="kdenlive:uniqueId">{7f84b6b1-bcff-4c5a-bf02-4dc6640a4f5e}</property>
  <property name="meta.media.width">1920</property>
  <property name="meta.media.height">1080</property>
  <filter id="filter89">
   <property name="rotate_center">1</property>
   <property name="mlt_service">qtblend</property>
   <property name="kdenlive_id">qtblend</property>
   <property name="compositing">0</property>
   <property name="distort">0</property>
   <property name="rect">0=0 0 1920 1080 1</property>
   <property name="rotation">0=0</property>
   <property name="kdenlive:builtin">1</property>
   <property name="kdenlive:kfrhidden">1</property>
   <property name="kdenlive:collapsed">1</property>
   <property name="disable">1</property>
  </filter>
 </producer>
 <producer id="producer32" in="00:00:00.000" out="00:00:06.300">
  <property name="length">190</property>
  <property name="eof">pause</property>
  <property name="resource"/>
  <property name="meta.media.progressive">1</property>
  <property name="aspect_ratio">1</property>
  <property name="seekable">1</property>
  <property name="mlt_service">kdenlivetitle</property>
  <property name="kdenlive:duration">00:00:05:00</property>
  <property name="kdenlive:clipname">REAL WORLD M...</property>
  <property name="xmldata">&lt;kdenlivetitle LC_NUMERIC="C" duration="150" height="1080" out="149" width="1920">
 &lt;item type="QGraphicsTextItem" z-index="0">
  &lt;position x="178" y="247">
   &lt;transform>1,0,0,0,1,0,0,0,1&lt;/transform>
  &lt;/position>
  &lt;content alignment="4" box-height="586" box-width="1561.33" font="Bangers" font-color="255,236,25,255" font-italic="0" font-pixel-size="275" font-underline="0" font-weight="400" letter-spacing="-2" line-spacing="0" shadow="0;#64000000;3;3;3" tab-width="80" typewriter="0;2;1;0;0">REAL WORLD MCP 
SERVER&lt;/content>
 &lt;/item>
 &lt;startviewport rect="0,0,1920,1080"/>
 &lt;endviewport rect="0,0,1920,1080"/>
 &lt;background color="255,255,255,0"/>
&lt;/kdenlivetitle>
</property>
  <property name="xml">was here</property>
  <property name="kdenlive:folderid">17</property>
  <property name="kdenlive:id">72</property>
  <property name="kdenlive:clip_type">2</property>
  <property name="kdenlive:file_hash">0a0ddf32f1a5d2446a9ab9f1bb7d26c6</property>
  <property name="force_reload">0</property>
  <property name="kdenlive:monitorPosition">91</property>
  <property name="kdenlive:control_uuid">{3c00be22-cc7c-48ec-9671-22d95eac5b42}</property>
  <property name="kdenlive:uniqueId">{5da74441-6b4d-4147-99be-0205c27124e3}</property>
  <property name="meta.media.width">1920</property>
  <property name="meta.media.height">1080</property>
  <filter id="filter91">
   <property name="rotate_center">1</property>
   <property name="mlt_service">qtblend</property>
   <property name="kdenlive_id">qtblend</property>
   <property name="compositing">0</property>
   <property name="distort">0</property>
   <property name="rect">0=0 0 1920 1080 1</property>
   <property name="rotation">0=0</property>
   <property name="kdenlive:builtin">1</property>
   <property name="kdenlive:kfrhidden">1</property>
   <property name="kdenlive:collapsed">1</property>
   <property name="disable">1</property>
  </filter>
 </producer>
 <producer id="producer33" in="00:00:00.000" out="00:00:04.967">
  <property name="length">00:00:05.000</property>
  <property name="eof">pause</property>
  <property name="resource">02_Assets/thumbnails/mcp_code_5min.png</property>
  <property name="ttl">25</property>
  <property name="aspect_ratio">1</property>
  <property name="meta.media.progressive">1</property>
  <property name="seekable">1</property>
  <property name="format">2</property>
  <property name="meta.media.width">1280</property>
  <property name="meta.media.height">720</property>
  <property name="mlt_service">qimage</property>
  <property name="kdenlive:duration">00:00:05:00</property>
  <property name="xml">was here</property>
  <property name="kdenlive:folderid">4</property>
  <property name="kdenlive:id">73</property>
  <property name="kdenlive:control_uuid">{ad60ce01-ef9d-4d1d-8813-8d6223f88ee1}</property>
  <property name="kdenlive:clip_type">2</property>
  <property name="kdenlive:file_size">525962</property>
  <property name="kdenlive:file_hash">a35d1fd0191d05b5be461b70bd59064f</property>
  <property name="kdenlive:monitorPosition">0</property>
  <filter id="filter128">
   <property name="rotate_center">1</property>
   <property name="mlt_service">qtblend</property>
   <property name="kdenlive_id">qtblend</property>
   <property name="compositing">0</property>
   <property name="distort">0</property>
   <property name="rect">0=0 0 1920 1080 1</property>
   <property name="rotation">0=0</property>
   <property name="disable">1</property>
   <property name="kdenlive:kfrhidden">1</property>
   <property name="kdenlive:collapsed">1</property>
   <property name="kdenlive:builtin">1</property>
  </filter>
 </producer>
 <producer id="producer0" in="00:00:00.000" out="00:10:00.100">
  <property name="length">2147483647</property>
  <property name="eof">continue</property>
  <property name="resource">black</property>
  <property name="aspect_ratio">1</property>
  <property name="mlt_service">color</property>
  <property name="kdenlive:playlistid">black_track</property>
  <property name="mlt_image_format">rgba</property>
  <property name="set.test_audio">0</property>
 </producer>
 <chain id="chain4" out="00:00:07.400">
  <property name="length">223</property>
  <property name="eof">pause</property>
  <property name="resource">/run/media/uberdev/edrv/vid_editor_content/editing_assets_01/common_clips/yt_intro_video.mp4</property>
  <property name="mlt_service">avformat-novalidate</property>
  <property name="seekable">1</property>
  <property name="format">3</property>
  <property name="audio_index">1</property>
  <property name="video_index">0</property>
  <property name="vstream">0</property>
  <property name="astream">0</property>
  <property name="kdenlive:folderid">16</property>
  <property name="kdenlive:id">46</property>
  <property name="kdenlive:control_uuid">{bc1eed88-1988-4f01-97fa-6c6e43d63938}</property>
  <property name="mute_on_pause">0</property>
  <property name="kdenlive:clip_type">0</property>
  <property name="kdenlive:file_size">509205</property>
  <property name="kdenlive:file_hash">0ef992144ac107cbcd32ba6195a81380</property>
  <property name="kdenlive:audio_max1">197</property>
  <property name="meta.media.nb_streams">2</property>
  <property name="meta.media.0.stream.type">video</property>
  <property name="meta.media.0.stream.frame_rate">30</property>
  <property name="meta.media.0.stream.sample_aspect_ratio">1</property>
  <property name="meta.media.0.codec.width">1920</property>
  <property name="meta.media.0.codec.height">1080</property>
  <property name="meta.media.0.codec.rotate">0</property>
  <property name="meta.media.0.codec.pix_fmt">yuv420p</property>
  <property name="meta.media.0.codec.sample_aspect_ratio">1</property>
  <property name="meta.media.0.codec.colorspace">709</property>
  <property name="meta.media.0.codec.color_trc">1</property>
  <property name="meta.media.0.codec.name">h264</property>
  <property name="meta.media.0.codec.long_name">H.264 / AVC / MPEG-4 AVC / MPEG-4 part 10</property>
  <property name="meta.media.0.codec.bit_rate">378840</property>
  <property name="meta.attr.0.stream.handler_name.markup">VideoHandler</property>
  <property name="meta.attr.0.stream.vendor_id.markup">[0][0][0][0]</property>
  <property name="meta.media.1.stream.type">audio</property>
  <property name="meta.media.1.codec.sample_fmt">fltp</property>
  <property name="meta.media.1.codec.sample_rate">48000</property>
  <property name="meta.media.1.codec.channels">2</property>
  <property name="meta.media.1.codec.layout">stereo</property>
  <property name="meta.media.1.codec.name">aac</property>
  <property name="meta.media.1.codec.long_name">AAC (Advanced Audio Coding)</property>
  <property name="meta.media.1.codec.bit_rate">158247</property>
  <property name="meta.attr.1.stream.handler_name.markup">SoundHandler</property>
  <property name="meta.attr.1.stream.vendor_id.markup">[0][0][0][0]</property>
  <property name="meta.attr.major_brand.markup">isom</property>
  <property name="meta.attr.minor_version.markup">512</property>
  <property name="meta.attr.compatible_brands.markup">isomiso2avc1mp41</property>
  <property name="meta.attr.encoder.markup">Lavf61.7.100</property>
  <property name="meta.media.sample_aspect_num">1</property>
  <property name="meta.media.sample_aspect_den">1</property>
  <property name="meta.media.frame_rate_num">30</property>
  <property name="meta.media.frame_rate_den">1</property>
  <property name="meta.media.colorspace">709</property>
  <property name="meta.media.color_trc">1</property>
  <property name="meta.media.has_b_frames">2</property>
  <property name="meta.media.width">1920</property>
  <property name="meta.media.height">1080</property>
  <property name="meta.media.aspect_ratio">1</property>
  <property name="meta.media.color_range">mpeg</property>
  <property name="xml">was here</property>
  <property name="meta.media.top_field_first">0</property>
  <property name="meta.media.progressive">1</property>
  <property name="set.test_audio">0</property>
  <property name="set.test_image">1</property>
  <filter id="filter15">
   <property name="rotate_center">1</property>
   <property name="mlt_service">qtblend</property>
   <property name="kdenlive_id">qtblend</property>
   <property name="compositing">0</property>
   <property name="distort">0</property>
   <property name="rect">0=0 0 1920 1080 1</property>
   <property name="rotation">0=0</property>
   <property name="disable">1</property>
  </filter>
  <filter id="filter16">
   <property name="window">75</property>
   <property name="max_gain">20dB</property>
   <property name="level">0=0</property>
   <property name="mlt_service">volume</property>
   <property name="kdenlive_id">volume</property>
   <property name="disable">1</property>
  </filter>
 </chain>
 <playlist id="playlist0">
  <property name="kdenlive:audio_track">1</property>
  <blank length="00:00:21.000"/>
  <entry in="00:00:00.000" out="00:00:07.400" producer="chain4">
   <property name="kdenlive:id">46</property>
  </entry>
 </playlist>
 <playlist id="playlist1">
  <property name="kdenlive:audio_track">1</property>
 </playlist>
 <tractor id="tractor0" in="00:00:00.000" out="00:00:28.400">
  <property name="kdenlive:audio_track">1</property>
  <property name="kdenlive:trackheight">30</property>
  <property name="kdenlive:timeline_active">1</property>
  <property name="kdenlive:collapsed">0</property>
  <property name="kdenlive:thumbs_format"/>
  <property name="kdenlive:audio_rec"/>
  <track hide="video" producer="playlist0"/>
  <track hide="video" producer="playlist1"/>
  <filter id="filter17">
   <property name="window">75</property>
   <property name="max_gain">20dB</property>
   <property name="mlt_service">volume</property>
   <property name="internal_added">237</property>
   <property name="disable">1</property>
  </filter>
  <filter id="filter18">
   <property name="channel">-1</property>
   <property name="mlt_service">panner</property>
   <property name="internal_added">237</property>
   <property name="start">0.5</property>
   <property name="disable">1</property>
  </filter>
  <filter id="filter19">
   <property name="iec_scale">0</property>
   <property name="mlt_service">audiolevel</property>
   <property name="dbpeak">1</property>
   <property name="disable">1</property>
  </filter>
 </tractor>
 <chain id="chain5" out="00:00:20.967">
  <property name="length">630</property>
  <property name="eof">pause</property>
  <property name="resource">02_Assets/audio_tracks/hook.mp3</property>
  <property name="mlt_service">avformat-novalidate</property>
  <property name="seekable">1</property>
  <property name="audio_index">0</property>
  <property name="video_index">-1</property>
  <property name="astream">0</property>
  <property name="kdenlive:folderid">33</property>
  <property name="kdenlive:id">39</property>
  <property name="kdenlive:control_uuid">{544e6df0-44cd-40d8-b335-94206aa40ab9}</property>
  <property name="kdenlive:clip_type">1</property>
  <property name="kdenlive:file_size">420000</property>
  <property name="kdenlive:file_hash">da51c37c88b5a54ec7157a3e085e8285</property>
  <property name="kdenlive:audio_max0">180</property>
  <property name="kdenlive:monitorPosition">0</property>
  <property name="meta.media.nb_streams">1</property>
  <property name="meta.media.0.stream.type">audio</property>
  <property name="meta.media.0.codec.sample_fmt">fltp</property>
  <property name="meta.media.0.codec.sample_rate">24000</property>
  <property name="meta.media.0.codec.channels">1</property>
  <property name="meta.media.0.codec.layout">mono</property>
  <property name="meta.media.0.codec.name">mp3float</property>
  <property name="meta.media.0.codec.long_name">MP3 (MPEG audio layer 3)</property>
  <property name="meta.media.0.codec.bit_rate">160000</property>
  <property name="xml">was here</property>
  <property name="mute_on_pause">0</property>
  <property name="set.test_audio">0</property>
  <property name="set.test_image">1</property>
  <filter id="filter20">
   <property name="window">75</property>
   <property name="max_gain">20dB</property>
   <property name="level">0=0</property>
   <property name="mlt_service">volume</property>
   <property name="kdenlive_id">volume</property>
   <property name="disable">1</property>
  </filter>
 </chain>
 <chain id="chain6" out="00:00:32.333">
  <property name="length">971</property>
  <property name="eof">pause</property>
  <property name="resource">02_Assets/audio_tracks/context.mp3</property>
  <property name="mlt_service">avformat-novalidate</property>
  <property name="seekable">1</property>
  <property name="audio_index">0</property>
  <property name="video_index">-1</property>
  <property name="astream">0</property>
  <property name="kdenlive:folderid">33</property>
  <property name="kdenlive:id">40</property>
  <property name="kdenlive:control_uuid">{79f02def-eb7d-44df-a5f0-785cd37d7081}</property>
  <property name="kdenlive:clip_type">1</property>
  <property name="kdenlive:file_size">647040</property>
  <property name="kdenlive:file_hash">886ba6b4e8998c88d0866adc11d2d226</property>
  <property name="kdenlive:audio_max0">175</property>
  <property name="meta.media.nb_streams">1</property>
  <property name="meta.media.0.stream.type">audio</property>
  <property name="meta.media.0.codec.sample_fmt">fltp</property>
  <property name="meta.media.0.codec.sample_rate">24000</property>
  <property name="meta.media.0.codec.channels">1</property>
  <property name="meta.media.0.codec.layout">mono</property>
  <property name="meta.media.0.codec.name">mp3float</property>
  <property name="meta.media.0.codec.long_name">MP3 (MPEG audio layer 3)</property>
  <property name="meta.media.0.codec.bit_rate">160000</property>
  <property name="xml">was here</property>
  <property name="mute_on_pause">0</property>
  <property name="set.test_audio">0</property>
  <property name="set.test_image">1</property>
  <filter id="filter21">
   <property name="window">75</property>
   <property name="max_gain">20dB</property>
   <property name="level">0=0</property>
   <property name="mlt_service">volume</property>
   <property name="kdenlive_id">volume</property>
   <property name="disable">1</property>
  </filter>
 </chain>
 <chain id="chain7" out="00:00:44.933">
  <property name="length">1349</property>
  <property name="eof">pause</property>
  <property name="resource">02_Assets/audio_tracks/intent_t1.mp3</property>
  <property name="mlt_service">avformat-novalidate</property>
  <property name="seekable">1</property>
  <property name="audio_index">0</property>
  <property name="video_index">-1</property>
  <property name="astream">0</property>
  <property name="kdenlive:folderid">33</property>
  <property name="kdenlive:id">48</property>
  <property name="kdenlive:control_uuid">{f445dd58-7a08-4878-8116-de8b2c0a2af6}</property>
  <property name="kdenlive:clip_type">1</property>
  <property name="kdenlive:file_size">899040</property>
  <property name="kdenlive:file_hash">cccaa0a8ae93b52ef89ca2e4069be06b</property>
  <property name="kdenlive:audio_max0">178</property>
  <property name="meta.media.nb_streams">1</property>
  <property name="meta.media.0.stream.type">audio</property>
  <property name="meta.media.0.codec.sample_fmt">fltp</property>
  <property name="meta.media.0.codec.sample_rate">24000</property>
  <property name="meta.media.0.codec.channels">1</property>
  <property name="meta.media.0.codec.layout">mono</property>
  <property name="meta.media.0.codec.name">mp3float</property>
  <property name="meta.media.0.codec.long_name">MP3 (MPEG audio layer 3)</property>
  <property name="meta.media.0.codec.bit_rate">160000</property>
  <property name="xml">was here</property>
  <property name="mute_on_pause">0</property>
  <property name="set.test_audio">0</property>
  <property name="set.test_image">1</property>
  <filter id="filter22">
   <property name="window">75</property>
   <property name="max_gain">20dB</property>
   <property name="level">0=0</property>
   <property name="mlt_service">volume</property>
   <property name="kdenlive_id">volume</property>
   <property name="disable">1</property>
  </filter>
 </chain>
 <chain id="chain8" out="00:00:21.600">
  <property name="length">649</property>
  <property name="eof">pause</property>
  <property name="resource">02_Assets/audio_tracks/intent_ext_t2_ol.mp3</property>
  <property name="mlt_service">avformat-novalidate</property>
  <property name="seekable">1</property>
  <property name="audio_index">0</property>
  <property name="video_index">-1</property>
  <property name="astream">0</property>
  <property name="kdenlive:folderid">33</property>
  <property name="kdenlive:id">50</property>
  <property name="kdenlive:control_uuid">{4525b433-1c31-4cbd-91d3-c317a65edea7}</property>
  <property name="kdenlive:clip_type">1</property>
  <property name="kdenlive:file_size">432960</property>
  <property name="kdenlive:file_hash">088573b87c49787031c65cafe4476742</property>
  <property name="kdenlive:audio_max0">173</property>
  <property name="meta.media.nb_streams">1</property>
  <property name="meta.media.0.stream.type">audio</property>
  <property name="meta.media.0.codec.sample_fmt">fltp</property>
  <property name="meta.media.0.codec.sample_rate">24000</property>
  <property name="meta.media.0.codec.channels">1</property>
  <property name="meta.media.0.codec.layout">mono</property>
  <property name="meta.media.0.codec.name">mp3float</property>
  <property name="meta.media.0.codec.long_name">MP3 (MPEG audio layer 3)</property>
  <property name="meta.media.0.codec.bit_rate">160000</property>
  <property name="xml">was here</property>
  <property name="mute_on_pause">0</property>
  <property name="set.test_audio">0</property>
  <property name="set.test_image">1</property>
  <filter id="filter23">
   <property name="window">75</property>
   <property name="max_gain">20dB</property>
   <property name="level">00:00:00.000=15</property>
   <property name="mlt_service">volume</property>
   <property name="kdenlive_id">volume</property>
  </filter>
 </chain>
 <chain id="chain9" out="00:00:41.767">
  <property name="length">1254</property>
  <property name="eof">pause</property>
  <property name="resource">02_Assets/audio_tracks/intent_ext_t2.mp3</property>
  <property name="mlt_service">avformat-novalidate</property>
  <property name="seekable">1</property>
  <property name="audio_index">0</property>
  <property name="video_index">-1</property>
  <property name="astream">0</property>
  <property name="kdenlive:folderid">33</property>
  <property name="kdenlive:id">52</property>
  <property name="kdenlive:control_uuid">{ced44cd6-8be9-48f7-9a08-8be273adb16d}</property>
  <property name="kdenlive:clip_type">1</property>
  <property name="kdenlive:file_size">836160</property>
  <property name="kdenlive:file_hash">3f1db1417be178b36573c31005a98116</property>
  <property name="kdenlive:audio_max0">173</property>
  <property name="meta.media.nb_streams">1</property>
  <property name="meta.media.0.stream.type">audio</property>
  <property name="meta.media.0.codec.sample_fmt">fltp</property>
  <property name="meta.media.0.codec.sample_rate">24000</property>
  <property name="meta.media.0.codec.channels">1</property>
  <property name="meta.media.0.codec.layout">mono</property>
  <property name="meta.media.0.codec.name">mp3float</property>
  <property name="meta.media.0.codec.long_name">MP3 (MPEG audio layer 3)</property>
  <property name="meta.media.0.codec.bit_rate">160000</property>
  <property name="xml">was here</property>
  <property name="mute_on_pause">0</property>
  <property name="set.test_audio">0</property>
  <property name="set.test_image">1</property>
  <filter id="filter25">
   <property name="window">75</property>
   <property name="max_gain">20dB</property>
   <property name="level">00:00:00.000=15</property>
   <property name="mlt_service">volume</property>
   <property name="kdenlive_id">volume</property>
  </filter>
 </chain>
 <chain id="chain17" out="00:00:28.133">
  <property name="length">845</property>
  <property name="eof">pause</property>
  <property name="resource">02_Assets/audio_tracks/design_tool_t3_ol.mp3</property>
  <property name="mlt_service">avformat-novalidate</property>
  <property name="seekable">1</property>
  <property name="audio_index">0</property>
  <property name="video_index">-1</property>
  <property name="astream">0</property>
  <property name="kdenlive:folderid">33</property>
  <property name="kdenlive:id">57</property>
  <property name="kdenlive:control_uuid">{85c64fa0-1bbb-4f8b-9d7b-adf9134f0b19}</property>
  <property name="kdenlive:clip_type">1</property>
  <property name="kdenlive:file_size">563040</property>
  <property name="kdenlive:file_hash">60f1451a5abe25c0d83cc9b360600a82</property>
  <property name="kdenlive:audio_max0">174</property>
  <property name="meta.media.nb_streams">1</property>
  <property name="meta.media.0.stream.type">audio</property>
  <property name="meta.media.0.codec.sample_fmt">fltp</property>
  <property name="meta.media.0.codec.sample_rate">24000</property>
  <property name="meta.media.0.codec.channels">1</property>
  <property name="meta.media.0.codec.layout">mono</property>
  <property name="meta.media.0.codec.name">mp3float</property>
  <property name="meta.media.0.codec.long_name">MP3 (MPEG audio layer 3)</property>
  <property name="meta.media.0.codec.bit_rate">160000</property>
  <property name="xml">was here</property>
  <property name="mute_on_pause">0</property>
  <property name="set.test_audio">0</property>
  <property name="set.test_image">1</property>
  <filter id="filter27">
   <property name="window">75</property>
   <property name="max_gain">20dB</property>
   <property name="level">0=0</property>
   <property name="mlt_service">volume</property>
   <property name="kdenlive_id">volume</property>
   <property name="disable">1</property>
  </filter>
 </chain>
 <chain id="chain18" out="00:00:46.400">
  <property name="length">1393</property>
  <property name="eof">pause</property>
  <property name="resource">02_Assets/audio_tracks/design_tool_t3.mp3</property>
  <property name="mlt_service">avformat-novalidate</property>
  <property name="seekable">1</property>
  <property name="audio_index">0</property>
  <property name="video_index">-1</property>
  <property name="astream">0</property>
  <property name="kdenlive:folderid">33</property>
  <property name="kdenlive:id">64</property>
  <property name="kdenlive:control_uuid">{99edb04e-3e72-415b-a49d-bd19b14c3ff6}</property>
  <property name="kdenlive:clip_type">1</property>
  <property name="kdenlive:file_size">928800</property>
  <property name="kdenlive:file_hash">bbe76b714edd55e0c15df01e474c0be3</property>
  <property name="kdenlive:audio_max0">176</property>
  <property name="meta.media.nb_streams">1</property>
  <property name="meta.media.0.stream.type">audio</property>
  <property name="meta.media.0.codec.sample_fmt">fltp</property>
  <property name="meta.media.0.codec.sample_rate">24000</property>
  <property name="meta.media.0.codec.channels">1</property>
  <property name="meta.media.0.codec.layout">mono</property>
  <property name="meta.media.0.codec.name">mp3float</property>
  <property name="meta.media.0.codec.long_name">MP3 (MPEG audio layer 3)</property>
  <property name="meta.media.0.codec.bit_rate">160000</property>
  <property name="xml">was here</property>
  <property name="mute_on_pause">0</property>
  <property name="set.test_audio">0</property>
  <property name="set.test_image">1</property>
  <filter id="filter28">
   <property name="window">75</property>
   <property name="max_gain">20dB</property>
   <property name="level">0=0</property>
   <property name="mlt_service">volume</property>
   <property name="kdenlive_id">volume</property>
   <property name="disable">1</property>
  </filter>
 </chain>
 <chain id="chain19" out="00:00:17.667">
  <property name="length">531</property>
  <property name="eof">pause</property>
  <property name="resource">02_Assets/audio_tracks/code_wt_t4_ol.mp3</property>
  <property name="mlt_service">avformat-novalidate</property>
  <property name="seekable">1</property>
  <property name="audio_index">0</property>
  <property name="video_index">-1</property>
  <property name="astream">0</property>
  <property name="kdenlive:folderid">33</property>
  <property name="kdenlive:id">65</property>
  <property name="kdenlive:control_uuid">{f18bcddd-7332-4902-b7a5-277bd8fafdb9}</property>
  <property name="kdenlive:clip_type">1</property>
  <property name="kdenlive:file_size">354240</property>
  <property name="kdenlive:file_hash">ddf38852e9b0da83cdbc6d8800c58dfb</property>
  <property name="kdenlive:audio_max0">182</property>
  <property name="meta.media.nb_streams">1</property>
  <property name="meta.media.0.stream.type">audio</property>
  <property name="meta.media.0.codec.sample_fmt">fltp</property>
  <property name="meta.media.0.codec.sample_rate">24000</property>
  <property name="meta.media.0.codec.channels">1</property>
  <property name="meta.media.0.codec.layout">mono</property>
  <property name="meta.media.0.codec.name">mp3float</property>
  <property name="meta.media.0.codec.long_name">MP3 (MPEG audio layer 3)</property>
  <property name="meta.media.0.codec.bit_rate">160000</property>
  <property name="xml">was here</property>
  <property name="mute_on_pause">0</property>
  <property name="set.test_audio">0</property>
  <property name="set.test_image">1</property>
  <filter id="filter29">
   <property name="window">75</property>
   <property name="max_gain">20dB</property>
   <property name="level">0=0</property>
   <property name="mlt_service">volume</property>
   <property name="kdenlive_id">volume</property>
   <property name="disable">1</property>
  </filter>
 </chain>
 <chain id="chain23" out="00:00:17.767">
  <property name="length">534</property>
  <property name="eof">pause</property>
  <property name="resource">02_Assets/audio_tracks/code_wt_t4.mp3</property>
  <property name="mlt_service">avformat-novalidate</property>
  <property name="seekable">1</property>
  <property name="audio_index">0</property>
  <property name="video_index">-1</property>
  <property name="astream">0</property>
  <property name="kdenlive:folderid">33</property>
  <property name="kdenlive:id">68</property>
  <property name="kdenlive:control_uuid">{70cfe133-9dff-4c53-ba63-8bf05b934528}</property>
  <property name="kdenlive:clip_type">1</property>
  <property name="kdenlive:file_size">356160</property>
  <property name="kdenlive:file_hash">708b1b830c3bdc75cb7872a56e14ee68</property>
  <property name="kdenlive:audio_max0">176</property>
  <property name="meta.media.nb_streams">1</property>
  <property name="meta.media.0.stream.type">audio</property>
  <property name="meta.media.0.codec.sample_fmt">fltp</property>
  <property name="meta.media.0.codec.sample_rate">24000</property>
  <property name="meta.media.0.codec.channels">1</property>
  <property name="meta.media.0.codec.layout">mono</property>
  <property name="meta.media.0.codec.name">mp3float</property>
  <property name="meta.media.0.codec.long_name">MP3 (MPEG audio layer 3)</property>
  <property name="meta.media.0.codec.bit_rate">160000</property>
  <property name="xml">was here</property>
  <property name="mute_on_pause">0</property>
  <property name="set.test_audio">0</property>
  <property name="set.test_image">1</property>
  <filter id="filter30">
   <property name="window">75</property>
   <property name="max_gain">20dB</property>
   <property name="level">0=0</property>
   <property name="mlt_service">volume</property>
   <property name="kdenlive_id">volume</property>
   <property name="disable">1</property>
  </filter>
 </chain>
 <chain id="chain24" out="00:00:27.600">
  <property name="length">829</property>
  <property name="eof">pause</property>
  <property name="resource">02_Assets/audio_tracks/next_video_hook.mp3</property>
  <property name="mlt_service">avformat-novalidate</property>
  <property name="seekable">1</property>
  <property name="audio_index">0</property>
  <property name="video_index">-1</property>
  <property name="astream">0</property>
  <property name="kdenlive:folderid">33</property>
  <property name="kdenlive:id">70</property>
  <property name="kdenlive:control_uuid">{7dcfc58a-501f-4dc5-be7e-74e5d9a328df}</property>
  <property name="kdenlive:clip_type">1</property>
  <property name="kdenlive:file_size">552480</property>
  <property name="kdenlive:file_hash">34a26cc8437346974558620ce3c2c4cf</property>
  <property name="kdenlive:audio_max0">170</property>
  <property name="meta.media.nb_streams">1</property>
  <property name="meta.media.0.stream.type">audio</property>
  <property name="meta.media.0.codec.sample_fmt">fltp</property>
  <property name="meta.media.0.codec.sample_rate">24000</property>
  <property name="meta.media.0.codec.channels">1</property>
  <property name="meta.media.0.codec.layout">mono</property>
  <property name="meta.media.0.codec.name">mp3float</property>
  <property name="meta.media.0.codec.long_name">MP3 (MPEG audio layer 3)</property>
  <property name="meta.media.0.codec.bit_rate">160000</property>
  <property name="xml">was here</property>
  <property name="mute_on_pause">0</property>
  <property name="set.test_audio">0</property>
  <property name="set.test_image">1</property>
  <filter id="filter31">
   <property name="window">75</property>
   <property name="max_gain">20dB</property>
   <property name="level">0=0</property>
   <property name="mlt_service">volume</property>
   <property name="kdenlive_id">volume</property>
   <property name="disable">1</property>
  </filter>
 </chain>
 <playlist id="playlist2">
  <property name="kdenlive:audio_track">1</property>
  <entry in="00:00:00.000" out="00:00:20.967" producer="chain5">
   <property name="kdenlive:id">39</property>
   <filter id="filter32">
    <property name="window">75</property>
    <property name="max_gain">20dB</property>
    <property name="level">00:00:00.000=15</property>
    <property name="mlt_service">volume</property>
    <property name="kdenlive_id">volume</property>
    <property name="kdenlive:kfrhidden">1</property>
    <property name="kdenlive:builtin">1</property>
    <property name="kdenlive:collapsed">0</property>
   </filter>
  </entry>
  <blank length="00:00:06.767"/>
  <entry in="00:00:00.000" out="00:00:07.100" producer="chain6">
   <property name="kdenlive:id">40</property>
   <filter id="filter33">
    <property name="window">75</property>
    <property name="max_gain">20dB</property>
    <property name="level">00:00:00.000=15</property>
    <property name="mlt_service">volume</property>
    <property name="kdenlive_id">volume</property>
    <property name="kdenlive:kfrhidden">1</property>
    <property name="kdenlive:builtin">1</property>
    <property name="kdenlive:collapsed">0</property>
   </filter>
  </entry>
  <entry in="00:00:08.300" out="00:00:18.233" producer="chain6">
   <property name="kdenlive:id">40</property>
   <filter id="filter36">
    <property name="window">75</property>
    <property name="max_gain">20dB</property>
    <property name="level">00:00:08.300=15</property>
    <property name="mlt_service">volume</property>
    <property name="kdenlive_id">volume</property>
    <property name="kdenlive:builtin">1</property>
    <property name="kdenlive:kfrhidden">1</property>
    <property name="kdenlive:collapsed">0</property>
   </filter>
  </entry>
  <entry in="00:00:18.867" out="00:00:31.167" producer="chain6">
   <property name="kdenlive:id">40</property>
   <filter id="filter37">
    <property name="window">75</property>
    <property name="max_gain">20dB</property>
    <property name="level">00:00:18.867=15</property>
    <property name="mlt_service">volume</property>
    <property name="kdenlive_id">volume</property>
    <property name="kdenlive:builtin">1</property>
    <property name="kdenlive:kfrhidden">1</property>
    <property name="kdenlive:collapsed">0</property>
   </filter>
  </entry>
  <entry in="00:00:00.000" out="00:00:05.467" producer="chain7">
   <property name="kdenlive:id">48</property>
   <filter id="filter38">
    <property name="window">75</property>
    <property name="max_gain">20dB</property>
    <property name="level">00:00:00.000=15</property>
    <property name="mlt_service">volume</property>
    <property name="kdenlive_id">volume</property>
    <property name="kdenlive:kfrhidden">1</property>
    <property name="kdenlive:builtin">1</property>
    <property name="kdenlive:collapsed">0</property>
   </filter>
  </entry>
  <entry in="00:00:06.133" out="00:00:10.700" producer="chain7">
   <property name="kdenlive:id">48</property>
   <filter id="filter39">
    <property name="window">75</property>
    <property name="max_gain">20dB</property>
    <property name="level">00:00:06.133=15</property>
    <property name="mlt_service">volume</property>
    <property name="kdenlive_id">volume</property>
    <property name="kdenlive:builtin">1</property>
    <property name="kdenlive:kfrhidden">1</property>
    <property name="kdenlive:collapsed">0</property>
   </filter>
  </entry>
  <entry in="00:00:11.167" out="00:00:12.200" producer="chain7">
   <property name="kdenlive:id">48</property>
   <filter id="filter40">
    <property name="window">75</property>
    <property name="max_gain">20dB</property>
    <property name="level">00:00:11.167=15</property>
    <property name="mlt_service">volume</property>
    <property name="kdenlive_id">volume</property>
    <property name="kdenlive:builtin">1</property>
    <property name="kdenlive:kfrhidden">1</property>
    <property name="kdenlive:collapsed">0</property>
   </filter>
  </entry>
  <entry in="00:00:13.367" out="00:00:18.300" producer="chain7">
   <property name="kdenlive:id">48</property>
   <filter id="filter41">
    <property name="window">75</property>
    <property name="max_gain">20dB</property>
    <property name="level">00:00:13.367=15</property>
    <property name="mlt_service">volume</property>
    <property name="kdenlive_id">volume</property>
    <property name="kdenlive:builtin">1</property>
    <property name="kdenlive:kfrhidden">1</property>
    <property name="kdenlive:collapsed">0</property>
   </filter>
  </entry>
  <entry in="00:00:19.133" out="00:00:20.033" producer="chain7">
   <property name="kdenlive:id">48</property>
   <filter id="filter42">
    <property name="window">75</property>
    <property name="max_gain">20dB</property>
    <property name="level">00:00:19.133=15</property>
    <property name="mlt_service">volume</property>
    <property name="kdenlive_id">volume</property>
    <property name="kdenlive:builtin">1</property>
    <property name="kdenlive:kfrhidden">1</property>
    <property name="kdenlive:collapsed">0</property>
   </filter>
  </entry>
  <entry in="00:00:20.633" out="00:00:44.933" producer="chain7">
   <property name="kdenlive:id">48</property>
   <filter id="filter43">
    <property name="window">75</property>
    <property name="max_gain">20dB</property>
    <property name="level">00:00:20.633=15</property>
    <property name="mlt_service">volume</property>
    <property name="kdenlive_id">volume</property>
    <property name="kdenlive:builtin">1</property>
    <property name="kdenlive:kfrhidden">1</property>
    <property name="kdenlive:collapsed">0</property>
   </filter>
  </entry>
  <entry in="00:00:00.000" out="00:00:21.600" producer="chain8">
   <property name="kdenlive:id">50</property>
  </entry>
  <entry in="00:00:00.000" out="00:00:41.767" producer="chain9">
   <property name="kdenlive:id">52</property>
  </entry>
  <entry in="00:00:00.000" out="00:00:28.133" producer="chain17">
   <property name="kdenlive:id">57</property>
   <filter id="filter44">
    <property name="window">75</property>
    <property name="max_gain">20dB</property>
    <property name="level">00:00:00.000=15</property>
    <property name="mlt_service">volume</property>
    <property name="kdenlive_id">volume</property>
    <property name="kdenlive:kfrhidden">1</property>
    <property name="kdenlive:builtin">1</property>
    <property name="kdenlive:collapsed">0</property>
   </filter>
  </entry>
  <entry in="00:00:00.000" out="00:00:32.200" producer="chain18">
   <property name="kdenlive:id">64</property>
   <filter id="filter45">
    <property name="window">75</property>
    <property name="max_gain">20dB</property>
    <property name="level">00:00:00.000=15</property>
    <property name="mlt_service">volume</property>
    <property name="kdenlive_id">volume</property>
    <property name="kdenlive:kfrhidden">0</property>
    <property name="kdenlive:builtin">1</property>
    <property name="kdenlive:collapsed">0</property>
   </filter>
  </entry>
  <blank length="00:00:00.300"/>
  <entry in="00:00:32.233" out="00:00:46.400" producer="chain18">
   <property name="kdenlive:id">64</property>
   <filter id="filter46">
    <property name="window">75</property>
    <property name="max_gain">20dB</property>
    <property name="level">00:00:32.233=15</property>
    <property name="mlt_service">volume</property>
    <property name="kdenlive_id">volume</property>
    <property name="kdenlive:builtin">1</property>
    <property name="kdenlive:kfrhidden">0</property>
    <property name="kdenlive:collapsed">0</property>
   </filter>
  </entry>
  <entry in="00:00:00.000" out="00:00:17.667" producer="chain19">
   <property name="kdenlive:id">65</property>
   <filter id="filter61">
    <property name="window">75</property>
    <property name="max_gain">20dB</property>
    <property name="level">00:00:00.000=15</property>
    <property name="mlt_service">volume</property>
    <property name="kdenlive_id">volume</property>
    <property name="kdenlive:kfrhidden">1</property>
    <property name="kdenlive:builtin">1</property>
    <property name="kdenlive:collapsed">0</property>
   </filter>
  </entry>
  <entry in="00:00:00.000" out="00:00:17.767" producer="chain23">
   <property name="kdenlive:id">68</property>
   <filter id="filter62">
    <property name="window">75</property>
    <property name="max_gain">20dB</property>
    <property name="level">00:00:00.000=15</property>
    <property name="mlt_service">volume</property>
    <property name="kdenlive_id">volume</property>
    <property name="kdenlive:kfrhidden">1</property>
    <property name="kdenlive:builtin">1</property>
    <property name="kdenlive:collapsed">0</property>
   </filter>
  </entry>
  <entry in="00:00:00.000" out="00:00:27.600" producer="chain24">
   <property name="kdenlive:id">70</property>
   <filter id="filter63">
    <property name="window">75</property>
    <property name="max_gain">20dB</property>
    <property name="level">00:00:00.000=15</property>
    <property name="mlt_service">volume</property>
    <property name="kdenlive_id">volume</property>
    <property name="kdenlive:kfrhidden">1</property>
    <property name="kdenlive:builtin">1</property>
    <property name="kdenlive:collapsed">0</property>
   </filter>
  </entry>
 </playlist>
 <playlist id="playlist3">
  <property name="kdenlive:audio_track">1</property>
 </playlist>
 <tractor id="tractor1" in="00:00:00.000" out="00:05:00.033">
  <property name="kdenlive:audio_track">1</property>
  <property name="kdenlive:trackheight">30</property>
  <property name="kdenlive:timeline_active">1</property>
  <property name="kdenlive:collapsed">0</property>
  <property name="kdenlive:thumbs_format"/>
  <property name="kdenlive:audio_rec"/>
  <track hide="video" producer="playlist2"/>
  <track hide="video" producer="playlist3"/>
  <filter id="filter64">
   <property name="window">75</property>
   <property name="max_gain">20dB</property>
   <property name="mlt_service">volume</property>
   <property name="internal_added">237</property>
   <property name="disable">1</property>
  </filter>
  <filter id="filter65">
   <property name="channel">-1</property>
   <property name="mlt_service">panner</property>
   <property name="internal_added">237</property>
   <property name="start">0.5</property>
   <property name="disable">1</property>
  </filter>
  <filter id="filter66">
   <property name="iec_scale">0</property>
   <property name="mlt_service">audiolevel</property>
   <property name="dbpeak">1</property>
   <property name="disable">1</property>
  </filter>
 </tractor>
 <chain id="chain25" out="00:00:29.967">
  <property name="length">900</property>
  <property name="eof">pause</property>
  <property name="resource">/run/media/uberdev/edrv/vid_editor_content/sound_effects/action_footages/bg_motions/3163534-hd_1280_720_30fps.mp4</property>
  <property name="mlt_service">avformat-novalidate</property>
  <property name="seekable">1</property>
  <property name="format">3</property>
  <property name="audio_index">-1</property>
  <property name="video_index">0</property>
  <property name="vstream">0</property>
  <property name="kdenlive:control_uuid">{d73a5039-3b55-46a7-8f1f-6c62c4294bee}</property>
  <property name="kdenlive:id">24</property>
  <property name="kdenlive:clip_type">2</property>
  <property name="kdenlive:file_size">10581309</property>
  <property name="kdenlive:file_hash">15c1a2d0f64e49b6feb1f8a19ce79950</property>
  <property name="kdenlive:folderid">14</property>
  <property name="mute_on_pause">0</property>
  <property name="kdenlive:monitorPosition">0</property>
  <property name="meta.media.nb_streams">1</property>
  <property name="meta.media.0.stream.type">video</property>
  <property name="meta.media.0.stream.frame_rate">30</property>
  <property name="meta.media.0.stream.sample_aspect_ratio">0</property>
  <property name="meta.media.0.codec.width">1280</property>
  <property name="meta.media.0.codec.height">720</property>
  <property name="meta.media.0.codec.rotate">0</property>
  <property name="meta.media.0.codec.pix_fmt">yuv420p</property>
  <property name="meta.media.0.codec.sample_aspect_ratio">0</property>
  <property name="meta.media.0.codec.colorspace">709</property>
  <property name="meta.media.0.codec.color_trc">1</property>
  <property name="meta.media.0.codec.name">h264</property>
  <property name="meta.media.0.codec.long_name">H.264 / AVC / MPEG-4 AVC / MPEG-4 part 10</property>
  <property name="meta.media.0.codec.bit_rate">2818322</property>
  <property name="meta.attr.0.stream.creation_time.markup">2019-11-02T08:32:54.000000Z</property>
  <property name="meta.attr.0.stream.handler_name.markup">L-SMASH Video Handler</property>
  <property name="meta.attr.0.stream.vendor_id.markup">[0][0][0][0]</property>
  <property name="meta.attr.0.stream.encoder.markup">AVC Coding</property>
  <property name="meta.attr.major_brand.markup">mp42</property>
  <property name="meta.attr.minor_version.markup">0</property>
  <property name="meta.attr.compatible_brands.markup">mp42mp41isomavc1</property>
  <property name="meta.attr.creation_time.markup">2019-11-02T08:32:54.000000Z</property>
  <property name="meta.media.sample_aspect_num">1</property>
  <property name="meta.media.sample_aspect_den">1</property>
  <property name="meta.media.frame_rate_num">30</property>
  <property name="meta.media.frame_rate_den">1</property>
  <property name="meta.media.colorspace">709</property>
  <property name="meta.media.color_trc">1</property>
  <property name="meta.media.has_b_frames">2</property>
  <property name="meta.media.width">1280</property>
  <property name="meta.media.height">720</property>
  <property name="meta.media.aspect_ratio">1</property>
  <property name="meta.media.color_range">mpeg</property>
  <property name="xml">was here</property>
  <property name="meta.media.top_field_first">0</property>
  <property name="meta.media.progressive">1</property>
  <property name="set.test_audio">1</property>
  <property name="set.test_image">0</property>
  <filter id="filter67">
   <property name="rotate_center">1</property>
   <property name="mlt_service">qtblend</property>
   <property name="kdenlive_id">qtblend</property>
   <property name="compositing">0</property>
   <property name="distort">0</property>
   <property name="rect">0=0 0 1920 1080 1</property>
   <property name="rotation">0=0</property>
   <property name="disable">1</property>
  </filter>
 </chain>
 <producer id="producer12" in="00:00:00.000" out="00:00:21.567">
  <property name="length">648</property>
  <property name="eof">pause</property>
  <property name="resource">0.925926:/run/media/uberdev/edrv/vid_editor_content/sound_effects/action_footages/bg_motions/3141210-hd_1280_720_25fps.mp4</property>
  <property name="aspect_ratio">1</property>
  <property name="meta.media.nb_streams">1</property>
  <property name="meta.media.0.stream.type">video</property>
  <property name="meta.media.0.stream.frame_rate">25</property>
  <property name="meta.media.0.stream.sample_aspect_ratio">0</property>
  <property name="meta.media.0.codec.width">1280</property>
  <property name="meta.media.0.codec.height">720</property>
  <property name="meta.media.0.codec.rotate">0</property>
  <property name="meta.media.0.codec.pix_fmt">yuv420p</property>
  <property name="meta.media.0.codec.sample_aspect_ratio">0</property>
  <property name="meta.media.0.codec.colorspace">709</property>
  <property name="meta.media.0.codec.color_trc">1</property>
  <property name="meta.media.0.codec.name">h264</property>
  <property name="meta.media.0.codec.long_name">H.264 / AVC / MPEG-4 AVC / MPEG-4 part 10</property>
  <property name="meta.media.0.codec.bit_rate">2745589</property>
  <property name="meta.attr.0.stream.creation_time.markup">2019-10-28T08:53:30.000000Z</property>
  <property name="meta.attr.0.stream.handler_name.markup">L-SMASH Video Handler</property>
  <property name="meta.attr.0.stream.vendor_id.markup">[0][0][0][0]</property>
  <property name="meta.attr.0.stream.encoder.markup">AVC Coding</property>
  <property name="meta.attr.major_brand.markup">mp42</property>
  <property name="meta.attr.minor_version.markup">0</property>
  <property name="meta.attr.compatible_brands.markup">mp42mp41isomavc1</property>
  <property name="meta.attr.creation_time.markup">2019-10-28T08:53:30.000000Z</property>
  <property name="seekable">1</property>
  <property name="meta.media.sample_aspect_num">1</property>
  <property name="meta.media.sample_aspect_den">1</property>
  <property name="format">3</property>
  <property name="audio_index">-1</property>
  <property name="video_index">0</property>
  <property name="warp_speed">0.925926</property>
  <property name="warp_resource">/run/media/uberdev/edrv/vid_editor_content/sound_effects/action_footages/bg_motions/3141210-hd_1280_720_25fps.mp4</property>
  <property name="mlt_service">timewarp</property>
  <property name="kdenlive:control_uuid">{aba893a6-cb50-4632-8643-abb1ea59d8da}</property>
  <property name="vstream">0</property>
  <property name="astream">-1</property>
  <property name="set.test_audio">1</property>
  <property name="set.test_image">0</property>
  <property name="kdenlive:id">20</property>
  <property name="warp_pitch">0</property>
  <property name="meta.media.frame_rate_num">25</property>
  <property name="meta.media.frame_rate_den">1</property>
  <property name="meta.media.colorspace">709</property>
  <property name="meta.media.color_trc">1</property>
  <property name="meta.media.has_b_frames">2</property>
  <property name="meta.media.width">1280</property>
  <property name="meta.media.height">720</property>
  <property name="meta.media.aspect_ratio">1</property>
  <property name="meta.media.color_range">mpeg</property>
  <property name="meta.media.top_field_first">0</property>
  <property name="meta.media.progressive">1</property>
  <filter id="filter68">
   <property name="rotate_center">1</property>
   <property name="mlt_service">qtblend</property>
   <property name="kdenlive_id">qtblend</property>
   <property name="compositing">0</property>
   <property name="distort">0</property>
   <property name="rect">0=0 0 1280 720 1</property>
   <property name="rotation">0=0</property>
   <property name="disable">1</property>
  </filter>
 </producer>
 <chain id="chain30" out="00:00:19.967">
  <property name="length">600</property>
  <property name="eof">pause</property>
  <property name="resource">/run/media/uberdev/edrv/vid_editor_content/stock_footages_01/hitting_head/7698695-hd_720_1366_25fps.mp4</property>
  <property name="mlt_service">avformat-novalidate</property>
  <property name="seekable">1</property>
  <property name="format">3</property>
  <property name="audio_index">-1</property>
  <property name="video_index">0</property>
  <property name="vstream">0</property>
  <property name="kdenlive:folderid">13</property>
  <property name="kdenlive:id">30</property>
  <property name="kdenlive:control_uuid">{225ad199-af22-47fa-ae15-c7a0d3bc94f4}</property>
  <property name="mute_on_pause">0</property>
  <property name="kdenlive:clip_type">2</property>
  <property name="kdenlive:file_size">2687943</property>
  <property name="kdenlive:file_hash">6ef4c88f59b983a84b0234f0d20ff0ce</property>
  <property name="kdenlive:monitorPosition">0</property>
  <property name="meta.media.nb_streams">1</property>
  <property name="meta.media.0.stream.type">video</property>
  <property name="meta.media.0.stream.frame_rate">25</property>
  <property name="meta.media.0.stream.sample_aspect_ratio">0</property>
  <property name="meta.media.0.codec.width">720</property>
  <property name="meta.media.0.codec.height">1366</property>
  <property name="meta.media.0.codec.rotate">0</property>
  <property name="meta.media.0.codec.pix_fmt">yuv420p</property>
  <property name="meta.media.0.codec.sample_aspect_ratio">0</property>
  <property name="meta.media.0.codec.colorspace">709</property>
  <property name="meta.media.0.codec.color_trc">1</property>
  <property name="meta.media.0.codec.name">h264</property>
  <property name="meta.media.0.codec.long_name">H.264 / AVC / MPEG-4 AVC / MPEG-4 part 10</property>
  <property name="meta.media.0.codec.bit_rate">1072177</property>
  <property name="meta.attr.0.stream.creation_time.markup">2021-04-28T21:32:03.000000Z</property>
  <property name="meta.attr.0.stream.handler_name.markup">L-SMASH Video Handler</property>
  <property name="meta.attr.0.stream.vendor_id.markup">[0][0][0][0]</property>
  <property name="meta.attr.0.stream.encoder.markup">AVC Coding</property>
  <property name="meta.attr.major_brand.markup">mp42</property>
  <property name="meta.attr.minor_version.markup">0</property>
  <property name="meta.attr.compatible_brands.markup">mp42mp41isomavc1</property>
  <property name="meta.attr.creation_time.markup">2021-04-28T21:32:03.000000Z</property>
  <property name="meta.media.sample_aspect_num">1</property>
  <property name="meta.media.sample_aspect_den">1</property>
  <property name="meta.media.frame_rate_num">25</property>
  <property name="meta.media.frame_rate_den">1</property>
  <property name="meta.media.colorspace">709</property>
  <property name="meta.media.color_trc">1</property>
  <property name="meta.media.has_b_frames">2</property>
  <property name="meta.media.width">720</property>
  <property name="meta.media.height">1366</property>
  <property name="meta.media.aspect_ratio">1</property>
  <property name="meta.media.color_range">mpeg</property>
  <property name="xml">was here</property>
  <property name="meta.media.top_field_first">0</property>
  <property name="meta.media.progressive">1</property>
  <property name="set.test_audio">1</property>
  <property name="set.test_image">0</property>
  <filter id="filter69">
   <property name="rotate_center">1</property>
   <property name="mlt_service">qtblend</property>
   <property name="kdenlive_id">qtblend</property>
   <property name="compositing">0</property>
   <property name="distort">0</property>
   <property name="rect">0=0 0 1920 1080 1</property>
   <property name="rotation">0=0</property>
   <property name="disable">1</property>
  </filter>
 </chain>
 <playlist id="playlist4">
  <blank length="00:00:09.467"/>
  <entry in="00:00:00.000" out="00:00:05.400" producer="chain25">
   <property name="kdenlive:id">24</property>
   <property name="kdenlive:activeeffect">1</property>
   <filter id="filter72">
    <property name="rotate_center">1</property>
    <property name="mlt_service">qtblend</property>
    <property name="kdenlive_id">qtblend</property>
    <property name="compositing">0</property>
    <property name="distort">0</property>
    <property name="rect">0=0 0 1920 1080 1</property>
    <property name="rotation">0=0</property>
    <property name="disable">1</property>
    <property name="kdenlive:kfrhidden">1</property>
    <property name="kdenlive:collapsed">1</property>
    <property name="kdenlive:builtin">1</property>
   </filter>
   <filter id="filter73">
    <property name="version">0.9</property>
    <property name="mlt_service">frei0r.transparency</property>
    <property name="kdenlive_id">frei0r.transparency</property>
    <property name="0">00:00:00.000=0.590734</property>
    <property name="kdenlive:collapsed">0</property>
   </filter>
  </entry>
  <blank length="00:02:34.267"/>
  <entry in="00:00:00.000" out="00:00:21.567" producer="producer12">
   <property name="kdenlive:id">20</property>
   <property name="kdenlive:activeeffect">1</property>
   <filter id="filter74">
    <property name="rotate_center">1</property>
    <property name="mlt_service">qtblend</property>
    <property name="kdenlive_id">qtblend</property>
    <property name="compositing">0</property>
    <property name="distort">0</property>
    <property name="rect">0=0 0 1920 1080 1</property>
    <property name="rotation">0=0</property>
    <property name="disable">1</property>
    <property name="kdenlive:kfrhidden">1</property>
    <property name="kdenlive:collapsed">1</property>
    <property name="kdenlive:builtin">1</property>
   </filter>
   <filter id="filter75">
    <property name="version">0.9</property>
    <property name="mlt_service">frei0r.transparency</property>
    <property name="kdenlive_id">frei0r.transparency</property>
    <property name="0">00:00:00.000=0.607</property>
    <property name="kdenlive:collapsed">0</property>
   </filter>
  </entry>
  <blank length="00:01:21.667"/>
  <entry in="00:00:00.000" out="00:00:19.967" producer="chain30">
   <property name="kdenlive:id">30</property>
   <filter id="filter76">
    <property name="rotate_center">1</property>
    <property name="mlt_service">qtblend</property>
    <property name="kdenlive_id">qtblend</property>
    <property name="compositing">0</property>
    <property name="distort">0</property>
    <property name="rect">00:00:00.000=-2187 -718 6349 3918 1.000000</property>
    <property name="rotation">00:00:00.000=0</property>
    <property name="kdenlive:kfrhidden">1</property>
    <property name="kdenlive:collapsed">1</property>
    <property name="kdenlive:builtin">1</property>
   </filter>
  </entry>
  <entry in="00:00:00.000" out="00:00:07.633" producer="chain25">
   <property name="kdenlive:id">24</property>
   <filter id="filter78">
    <property name="rotate_center">1</property>
    <property name="mlt_service">qtblend</property>
    <property name="kdenlive_id">qtblend</property>
    <property name="compositing">0</property>
    <property name="distort">0</property>
    <property name="rect">0=0 0 1920 1080 1</property>
    <property name="rotation">0=0</property>
    <property name="disable">1</property>
    <property name="kdenlive:kfrhidden">1</property>
    <property name="kdenlive:collapsed">1</property>
    <property name="kdenlive:builtin">1</property>
   </filter>
   <filter id="filter79">
    <property name="version">0.9</property>
    <property name="mlt_service">frei0r.transparency</property>
    <property name="kdenlive_id">frei0r.transparency</property>
    <property name="0">00:00:00.000=0.644</property>
    <property name="kdenlive:collapsed">0</property>
   </filter>
  </entry>
 </playlist>
 <playlist id="playlist5"/>
 <tractor id="tractor2" in="00:00:00.000" out="00:05:00.067">
  <property name="kdenlive:trackheight">30</property>
  <property name="kdenlive:timeline_active">1</property>
  <property name="kdenlive:collapsed">0</property>
  <property name="kdenlive:thumbs_format"/>
  <property name="kdenlive:audio_rec"/>
  <track hide="audio" producer="playlist4"/>
  <track hide="audio" producer="playlist5"/>
 </tractor>
 <chain id="chain31" out="00:00:17.500">
  <property name="length">526</property>
  <property name="eof">pause</property>
  <property name="resource">/run/media/uberdev/edrv/vid_editor_content/stock_footages_01/throw_catch/dropped-hd_720_1366_25fps.mp4</property>
  <property name="mlt_service">avformat-novalidate</property>
  <property name="seekable">1</property>
  <property name="format">3</property>
  <property name="audio_index">1</property>
  <property name="video_index">0</property>
  <property name="vstream">0</property>
  <property name="astream">0</property>
  <property name="kdenlive:folderid">13</property>
  <property name="kdenlive:id">41</property>
  <property name="kdenlive:control_uuid">{711b0078-3cc4-443f-9032-435e9c9b84ae}</property>
  <property name="mute_on_pause">0</property>
  <property name="kdenlive:clip_type">0</property>
  <property name="kdenlive:file_size">6320933</property>
  <property name="kdenlive:file_hash">07b0f129b331b0d7ed7a1c28217b4a06</property>
  <property name="kdenlive:audio_max1">1</property>
  <property name="kdenlive:zone_in">123</property>
  <property name="kdenlive:zone_out">274</property>
  <property name="kdenlive:clipzones">[
    {
        "in": 123,
        "name": "Zone 1",
        "out": 273
    },
    {
        "in": 123,
        "name": "Zone 2",
        "out": 273
    }
]
</property>
  <property name="meta.media.nb_streams">2</property>
  <property name="meta.media.0.stream.type">video</property>
  <property name="meta.media.0.stream.frame_rate">25</property>
  <property name="meta.media.0.stream.sample_aspect_ratio">0</property>
  <property name="meta.media.0.codec.width">720</property>
  <property name="meta.media.0.codec.height">1366</property>
  <property name="meta.media.0.codec.rotate">0</property>
  <property name="meta.media.0.codec.pix_fmt">yuv420p</property>
  <property name="meta.media.0.codec.sample_aspect_ratio">0</property>
  <property name="meta.media.0.codec.colorspace">709</property>
  <property name="meta.media.0.codec.color_trc">1</property>
  <property name="meta.media.0.codec.name">h264</property>
  <property name="meta.media.0.codec.long_name">H.264 / AVC / MPEG-4 AVC / MPEG-4 part 10</property>
  <property name="meta.media.0.codec.bit_rate">2627820</property>
  <property name="meta.attr.0.stream.creation_time.markup">2021-03-31T17:13:47.000000Z</property>
  <property name="meta.attr.0.stream.handler_name.markup">L-SMASH Video Handler</property>
  <property name="meta.attr.0.stream.vendor_id.markup">[0][0][0][0]</property>
  <property name="meta.attr.0.stream.encoder.markup">AVC Coding</property>
  <property name="meta.media.1.stream.type">audio</property>
  <property name="meta.media.1.codec.sample_fmt">fltp</property>
  <property name="meta.media.1.codec.sample_rate">48000</property>
  <property name="meta.media.1.codec.channels">2</property>
  <property name="meta.media.1.codec.layout">stereo</property>
  <property name="meta.media.1.codec.name">aac</property>
  <property name="meta.media.1.codec.long_name">AAC (Advanced Audio Coding)</property>
  <property name="meta.media.1.codec.bit_rate">253375</property>
  <property name="meta.attr.1.stream.creation_time.markup">2021-03-31T17:13:47.000000Z</property>
  <property name="meta.attr.1.stream.handler_name.markup">L-SMASH Audio Handler</property>
  <property name="meta.attr.1.stream.vendor_id.markup">[0][0][0][0]</property>
  <property name="meta.attr.major_brand.markup">mp42</property>
  <property name="meta.attr.minor_version.markup">0</property>
  <property name="meta.attr.compatible_brands.markup">mp42mp41isomavc1</property>
  <property name="meta.attr.creation_time.markup">2021-03-31T17:13:47.000000Z</property>
  <property name="meta.media.sample_aspect_num">1</property>
  <property name="meta.media.sample_aspect_den">1</property>
  <property name="meta.media.frame_rate_num">25</property>
  <property name="meta.media.frame_rate_den">1</property>
  <property name="meta.media.colorspace">709</property>
  <property name="meta.media.color_trc">1</property>
  <property name="meta.media.has_b_frames">2</property>
  <property name="meta.media.width">720</property>
  <property name="meta.media.height">1366</property>
  <property name="meta.media.aspect_ratio">1</property>
  <property name="meta.media.color_range">mpeg</property>
  <property name="xml">was here</property>
  <property name="meta.media.top_field_first">0</property>
  <property name="meta.media.progressive">1</property>
  <property name="set.test_audio">1</property>
  <property name="set.test_image">0</property>
  <filter id="filter82">
   <property name="rotate_center">1</property>
   <property name="mlt_service">qtblend</property>
   <property name="kdenlive_id">qtblend</property>
   <property name="compositing">0</property>
   <property name="distort">0</property>
   <property name="rect">0=0 0 1920 1080 1</property>
   <property name="rotation">0=0</property>
   <property name="disable">1</property>
  </filter>
  <filter id="filter83">
   <property name="window">75</property>
   <property name="max_gain">20dB</property>
   <property name="level">0=0</property>
   <property name="mlt_service">volume</property>
   <property name="kdenlive_id">volume</property>
   <property name="disable">1</property>
  </filter>
 </chain>
 <chain id="chain32" out="00:00:19.967">
  <property name="length">600</property>
  <property name="eof">pause</property>
  <property name="resource">/run/media/uberdev/edrv/vid_editor_content/sound_effects/action_footages/bg_motions/3141210-hd_1280_720_25fps.mp4</property>
  <property name="mlt_service">avformat-novalidate</property>
  <property name="seekable">1</property>
  <property name="format">3</property>
  <property name="audio_index">-1</property>
  <property name="video_index">0</property>
  <property name="vstream">0</property>
  <property name="kdenlive:control_uuid">{aba893a6-cb50-4632-8643-abb1ea59d8da}</property>
  <property name="kdenlive:id">20</property>
  <property name="kdenlive:clip_type">2</property>
  <property name="kdenlive:file_size">6871384</property>
  <property name="kdenlive:file_hash">28bf8f5daf71a4ffc8c5c37a4431c174</property>
  <property name="kdenlive:folderid">14</property>
  <property name="mute_on_pause">0</property>
  <property name="kdenlive:zone_in">60</property>
  <property name="kdenlive:zone_out">211</property>
  <property name="kdenlive:clipzones">[
    {
        "in": 60,
        "name": "Zone 1",
        "out": 150
    },
    {
        "in": 60,
        "name": "Zone 2",
        "out": 210
    }
]
</property>
  <property name="meta.media.nb_streams">1</property>
  <property name="meta.media.0.stream.type">video</property>
  <property name="meta.media.0.stream.frame_rate">25</property>
  <property name="meta.media.0.stream.sample_aspect_ratio">0</property>
  <property name="meta.media.0.codec.width">1280</property>
  <property name="meta.media.0.codec.height">720</property>
  <property name="meta.media.0.codec.rotate">0</property>
  <property name="meta.media.0.codec.pix_fmt">yuv420p</property>
  <property name="meta.media.0.codec.sample_aspect_ratio">0</property>
  <property name="meta.media.0.codec.colorspace">709</property>
  <property name="meta.media.0.codec.color_trc">1</property>
  <property name="meta.media.0.codec.name">h264</property>
  <property name="meta.media.0.codec.long_name">H.264 / AVC / MPEG-4 AVC / MPEG-4 part 10</property>
  <property name="meta.media.0.codec.bit_rate">2745589</property>
  <property name="meta.attr.0.stream.creation_time.markup">2019-10-28T08:53:30.000000Z</property>
  <property name="meta.attr.0.stream.handler_name.markup">L-SMASH Video Handler</property>
  <property name="meta.attr.0.stream.vendor_id.markup">[0][0][0][0]</property>
  <property name="meta.attr.0.stream.encoder.markup">AVC Coding</property>
  <property name="meta.attr.major_brand.markup">mp42</property>
  <property name="meta.attr.minor_version.markup">0</property>
  <property name="meta.attr.compatible_brands.markup">mp42mp41isomavc1</property>
  <property name="meta.attr.creation_time.markup">2019-10-28T08:53:30.000000Z</property>
  <property name="meta.media.sample_aspect_num">1</property>
  <property name="meta.media.sample_aspect_den">1</property>
  <property name="meta.media.frame_rate_num">25</property>
  <property name="meta.media.frame_rate_den">1</property>
  <property name="meta.media.colorspace">709</property>
  <property name="meta.media.color_trc">1</property>
  <property name="meta.media.has_b_frames">2</property>
  <property name="meta.media.width">1280</property>
  <property name="meta.media.height">720</property>
  <property name="meta.media.aspect_ratio">1</property>
  <property name="meta.media.color_range">mpeg</property>
  <property name="xml">was here</property>
  <property name="meta.media.top_field_first">0</property>
  <property name="meta.media.progressive">1</property>
  <property name="set.test_audio">1</property>
  <property name="set.test_image">0</property>
  <filter id="filter84">
   <property name="rotate_center">1</property>
   <property name="mlt_service">qtblend</property>
   <property name="kdenlive_id">qtblend</property>
   <property name="compositing">0</property>
   <property name="distort">0</property>
   <property name="rect">0=0 0 1280 720 1</property>
   <property name="rotation">0=0</property>
   <property name="disable">1</property>
  </filter>
 </chain>
 <producer id="producer18" in="00:00:00.000" out="00:01:02.167">
  <property name="length">1866</property>
  <property name="eof">pause</property>
  <property name="resource">0.482428:/run/media/uberdev/edrv/vid_editor_content/sound_effects/action_footages/bg_motions/3163534-hd_1280_720_30fps.mp4</property>
  <property name="aspect_ratio">1</property>
  <property name="meta.media.nb_streams">1</property>
  <property name="meta.media.0.stream.type">video</property>
  <property name="meta.media.0.stream.frame_rate">30</property>
  <property name="meta.media.0.stream.sample_aspect_ratio">0</property>
  <property name="meta.media.0.codec.width">1280</property>
  <property name="meta.media.0.codec.height">720</property>
  <property name="meta.media.0.codec.rotate">0</property>
  <property name="meta.media.0.codec.pix_fmt">yuv420p</property>
  <property name="meta.media.0.codec.sample_aspect_ratio">0</property>
  <property name="meta.media.0.codec.colorspace">709</property>
  <property name="meta.media.0.codec.color_trc">1</property>
  <property name="meta.media.0.codec.name">h264</property>
  <property name="meta.media.0.codec.long_name">H.264 / AVC / MPEG-4 AVC / MPEG-4 part 10</property>
  <property name="meta.media.0.codec.bit_rate">2818322</property>
  <property name="meta.attr.0.stream.creation_time.markup">2019-11-02T08:32:54.000000Z</property>
  <property name="meta.attr.0.stream.handler_name.markup">L-SMASH Video Handler</property>
  <property name="meta.attr.0.stream.vendor_id.markup">[0][0][0][0]</property>
  <property name="meta.attr.0.stream.encoder.markup">AVC Coding</property>
  <property name="meta.attr.major_brand.markup">mp42</property>
  <property name="meta.attr.minor_version.markup">0</property>
  <property name="meta.attr.compatible_brands.markup">mp42mp41isomavc1</property>
  <property name="meta.attr.creation_time.markup">2019-11-02T08:32:54.000000Z</property>
  <property name="seekable">1</property>
  <property name="meta.media.sample_aspect_num">1</property>
  <property name="meta.media.sample_aspect_den">1</property>
  <property name="format">3</property>
  <property name="audio_index">-1</property>
  <property name="video_index">0</property>
  <property name="warp_speed">0.482428</property>
  <property name="warp_resource">/run/media/uberdev/edrv/vid_editor_content/sound_effects/action_footages/bg_motions/3163534-hd_1280_720_30fps.mp4</property>
  <property name="mlt_service">timewarp</property>
  <property name="kdenlive:control_uuid">{d73a5039-3b55-46a7-8f1f-6c62c4294bee}</property>
  <property name="vstream">0</property>
  <property name="astream">-1</property>
  <property name="set.test_audio">1</property>
  <property name="set.test_image">0</property>
  <property name="kdenlive:id">24</property>
  <property name="warp_pitch">0</property>
  <property name="meta.media.frame_rate_num">30</property>
  <property name="meta.media.frame_rate_den">1</property>
  <property name="meta.media.colorspace">709</property>
  <property name="meta.media.color_trc">1</property>
  <property name="meta.media.has_b_frames">2</property>
  <property name="meta.media.width">1280</property>
  <property name="meta.media.height">720</property>
  <property name="meta.media.aspect_ratio">1</property>
  <property name="meta.media.color_range">mpeg</property>
  <property name="meta.media.top_field_first">0</property>
  <property name="meta.media.progressive">1</property>
  <filter id="filter85">
   <property name="rotate_center">1</property>
   <property name="mlt_service">qtblend</property>
   <property name="kdenlive_id">qtblend</property>
   <property name="compositing">0</property>
   <property name="distort">0</property>
   <property name="rect">0=0 0 1920 1080 1</property>
   <property name="rotation">0=0</property>
   <property name="disable">1</property>
  </filter>
 </producer>
 <producer id="producer19" in="00:00:00.000" out="00:00:22.333">
  <property name="length">671</property>
  <property name="eof">pause</property>
  <property name="resource">0.893548:/run/media/uberdev/edrv/vid_editor_content/sound_effects/action_footages/bg_motions/3141210-hd_1280_720_25fps.mp4</property>
  <property name="aspect_ratio">1</property>
  <property name="meta.media.nb_streams">1</property>
  <property name="meta.media.0.stream.type">video</property>
  <property name="meta.media.0.stream.frame_rate">25</property>
  <property name="meta.media.0.stream.sample_aspect_ratio">0</property>
  <property name="meta.media.0.codec.width">1280</property>
  <property name="meta.media.0.codec.height">720</property>
  <property name="meta.media.0.codec.rotate">0</property>
  <property name="meta.media.0.codec.pix_fmt">yuv420p</property>
  <property name="meta.media.0.codec.sample_aspect_ratio">0</property>
  <property name="meta.media.0.codec.colorspace">709</property>
  <property name="meta.media.0.codec.color_trc">1</property>
  <property name="meta.media.0.codec.name">h264</property>
  <property name="meta.media.0.codec.long_name">H.264 / AVC / MPEG-4 AVC / MPEG-4 part 10</property>
  <property name="meta.media.0.codec.bit_rate">2745589</property>
  <property name="meta.attr.0.stream.creation_time.markup">2019-10-28T08:53:30.000000Z</property>
  <property name="meta.attr.0.stream.handler_name.markup">L-SMASH Video Handler</property>
  <property name="meta.attr.0.stream.vendor_id.markup">[0][0][0][0]</property>
  <property name="meta.attr.0.stream.encoder.markup">AVC Coding</property>
  <property name="meta.attr.major_brand.markup">mp42</property>
  <property name="meta.attr.minor_version.markup">0</property>
  <property name="meta.attr.compatible_brands.markup">mp42mp41isomavc1</property>
  <property name="meta.attr.creation_time.markup">2019-10-28T08:53:30.000000Z</property>
  <property name="seekable">1</property>
  <property name="meta.media.sample_aspect_num">1</property>
  <property name="meta.media.sample_aspect_den">1</property>
  <property name="format">3</property>
  <property name="audio_index">-1</property>
  <property name="video_index">0</property>
  <property name="warp_speed">0.893548</property>
  <property name="warp_resource">/run/media/uberdev/edrv/vid_editor_content/sound_effects/action_footages/bg_motions/3141210-hd_1280_720_25fps.mp4</property>
  <property name="mlt_service">timewarp</property>
  <property name="kdenlive:control_uuid">{aba893a6-cb50-4632-8643-abb1ea59d8da}</property>
  <property name="vstream">0</property>
  <property name="astream">-1</property>
  <property name="set.test_audio">1</property>
  <property name="set.test_image">0</property>
  <property name="kdenlive:id">20</property>
  <property name="warp_pitch">0</property>
  <property name="meta.media.frame_rate_num">25</property>
  <property name="meta.media.frame_rate_den">1</property>
  <property name="meta.media.colorspace">709</property>
  <property name="meta.media.color_trc">1</property>
  <property name="meta.media.has_b_frames">2</property>
  <property name="meta.media.width">1280</property>
  <property name="meta.media.height">720</property>
  <property name="meta.media.aspect_ratio">1</property>
  <property name="meta.media.color_range">mpeg</property>
  <property name="meta.media.top_field_first">0</property>
  <property name="meta.media.progressive">1</property>
  <filter id="filter86">
   <property name="rotate_center">1</property>
   <property name="mlt_service">qtblend</property>
   <property name="kdenlive_id">qtblend</property>
   <property name="compositing">0</property>
   <property name="distort">0</property>
   <property name="rect">0=0 0 1280 720 1</property>
   <property name="rotation">0=0</property>
   <property name="disable">1</property>
  </filter>
 </producer>
 <chain id="chain33" out="00:00:26.967">
  <property name="length">810</property>
  <property name="eof">pause</property>
  <property name="resource">/run/media/uberdev/edrv/vid_editor_content/stock_footages_01/thinking_lost/4873122-hd_1280_720_25fps.mp4</property>
  <property name="mlt_service">avformat-novalidate</property>
  <property name="seekable">1</property>
  <property name="format">3</property>
  <property name="audio_index">-1</property>
  <property name="video_index">0</property>
  <property name="vstream">0</property>
  <property name="kdenlive:folderid">13</property>
  <property name="kdenlive:id">63</property>
  <property name="kdenlive:control_uuid">{92ae98ad-ef25-4092-b181-f067a2cf53ac}</property>
  <property name="mute_on_pause">0</property>
  <property name="kdenlive:clip_type">2</property>
  <property name="kdenlive:file_size">4919350</property>
  <property name="kdenlive:file_hash">aa30709d289d6a920b5ddeca790ad6d8</property>
  <property name="kdenlive:zone_in">67</property>
  <property name="kdenlive:zone_out">218</property>
  <property name="meta.media.nb_streams">1</property>
  <property name="meta.media.0.stream.type">video</property>
  <property name="meta.media.0.stream.frame_rate">25</property>
  <property name="meta.media.0.stream.sample_aspect_ratio">0</property>
  <property name="meta.media.0.codec.width">1280</property>
  <property name="meta.media.0.codec.height">720</property>
  <property name="meta.media.0.codec.rotate">0</property>
  <property name="meta.media.0.codec.pix_fmt">yuv420p</property>
  <property name="meta.media.0.codec.sample_aspect_ratio">0</property>
  <property name="meta.media.0.codec.colorspace">709</property>
  <property name="meta.media.0.codec.color_trc">1</property>
  <property name="meta.media.0.codec.name">h264</property>
  <property name="meta.media.0.codec.long_name">H.264 / AVC / MPEG-4 AVC / MPEG-4 part 10</property>
  <property name="meta.media.0.codec.bit_rate">1454678</property>
  <property name="meta.attr.0.stream.creation_time.markup">2020-07-15T07:07:20.000000Z</property>
  <property name="meta.attr.0.stream.handler_name.markup">L-SMASH Video Handler</property>
  <property name="meta.attr.0.stream.vendor_id.markup">[0][0][0][0]</property>
  <property name="meta.attr.0.stream.encoder.markup">AVC Coding</property>
  <property name="meta.attr.major_brand.markup">mp42</property>
  <property name="meta.attr.minor_version.markup">0</property>
  <property name="meta.attr.compatible_brands.markup">mp42mp41isomavc1</property>
  <property name="meta.attr.creation_time.markup">2020-07-15T07:07:20.000000Z</property>
  <property name="meta.media.sample_aspect_num">1</property>
  <property name="meta.media.sample_aspect_den">1</property>
  <property name="meta.media.frame_rate_num">25</property>
  <property name="meta.media.frame_rate_den">1</property>
  <property name="meta.media.colorspace">709</property>
  <property name="meta.media.color_trc">1</property>
  <property name="meta.media.has_b_frames">2</property>
  <property name="meta.media.width">1280</property>
  <property name="meta.media.height">720</property>
  <property name="meta.media.aspect_ratio">1</property>
  <property name="meta.media.color_range">mpeg</property>
  <property name="xml">was here</property>
  <property name="meta.media.top_field_first">0</property>
  <property name="meta.media.progressive">1</property>
  <property name="set.test_audio">1</property>
  <property name="set.test_image">0</property>
  <filter id="filter87">
   <property name="rotate_center">1</property>
   <property name="mlt_service">qtblend</property>
   <property name="kdenlive_id">qtblend</property>
   <property name="compositing">0</property>
   <property name="distort">0</property>
   <property name="rect">00:00:00.000=0 0 1920 1080 1.000000;00:00:06.967=0 0 1920 1080 1.000000</property>
   <property name="rotation">00:00:00.000=0;00:00:06.967=0</property>
  </filter>
 </chain>
 <producer id="producer34" in="00:00:00.000" out="00:00:13.367">
  <property name="length">402</property>
  <property name="eof">pause</property>
  <property name="resource"/>
  <property name="meta.media.progressive">1</property>
  <property name="aspect_ratio">1</property>
  <property name="seekable">1</property>
  <property name="mlt_service">kdenlivetitle</property>
  <property name="kdenlive:duration">00:00:05:00</property>
  <property name="kdenlive:clipname">MCP SERver i...</property>
  <property name="xmldata">&lt;kdenlivetitle LC_NUMERIC="C" duration="150" height="1080" out="149" width="1920">
 &lt;item type="QGraphicsTextItem" z-index="0">
  &lt;position x="287" y="247">
   &lt;transform>1,0,0,0,1,0,0,0,1&lt;/transform>
  &lt;/position>
  &lt;content alignment="4" box-height="586" box-width="1347.77" font="Bangers" font-color="255,236,25,255" font-italic="0" font-pixel-size="275" font-underline="0" font-weight="400" letter-spacing="-2" line-spacing="0" shadow="0;#64000000;3;3;3" tab-width="80" typewriter="0;2;1;0;0">MCP SERver is 
DB for TOOLS&lt;/content>
 &lt;/item>
 &lt;startviewport rect="0,0,1920,1080"/>
 &lt;endviewport rect="0,0,1920,1080"/>
 &lt;background color="255,255,255,0"/>
&lt;/kdenlivetitle>
</property>
  <property name="xml">was here</property>
  <property name="kdenlive:folderid">17</property>
  <property name="kdenlive:id">81</property>
  <property name="kdenlive:clip_type">2</property>
  <property name="kdenlive:file_hash">91b2592e2dee4e6012328c9f3724a465</property>
  <property name="force_reload">0</property>
  <property name="kdenlive:monitorPosition">91</property>
  <property name="kdenlive:control_uuid">{58419d03-fb41-4804-9443-8dcd23f2cbd3}</property>
  <property name="kdenlive:uniqueId">{3ee970c2-0625-49d4-8293-c9e799452ca3}</property>
  <property name="meta.media.width">1920</property>
  <property name="meta.media.height">1080</property>
  <filter id="filter92">
   <property name="rotate_center">1</property>
   <property name="mlt_service">qtblend</property>
   <property name="kdenlive_id">qtblend</property>
   <property name="compositing">0</property>
   <property name="distort">0</property>
   <property name="rect">0=0 0 1920 1080 1</property>
   <property name="rotation">0=0</property>
   <property name="kdenlive:builtin">1</property>
   <property name="kdenlive:kfrhidden">1</property>
   <property name="kdenlive:collapsed">1</property>
   <property name="disable">1</property>
  </filter>
 </producer>
 <playlist id="playlist6">
  <blank length="00:00:04.633"/>
  <entry in="00:00:04.100" out="00:00:09.100" producer="chain31">
   <property name="kdenlive:id">41</property>
   <property name="kdenlive:activeeffect">1</property>
   <filter id="filter93">
    <property name="rotate_center">1</property>
    <property name="mlt_service">qtblend</property>
    <property name="kdenlive_id">qtblend</property>
    <property name="compositing">0</property>
    <property name="distort">0</property>
    <property name="rect">00:00:04.100=-1839 -886 5873 4608 1.000000;00:00:04.567=-1824 -381 5873 4608 1.000000;00:00:04.967=-1819 -231 5873 4608 1.000000;00:00:05.267=-1824 -576 5873 4608 1.000000;00:00:05.700=-1849 -954 5873 4608 1.000000;00:00:06.000=-1884 -1531 5873 4608 1.000000;00:00:06.467=-1889 -2020 5873 4608 1.000000;00:00:06.900=-1849 -2651 5873 4608 1.000000;00:00:07.333=-1839 -2954 5873 4608 1.000000;00:00:07.767=-1764 -3241 5873 4608 1.000000</property>
    <property name="rotation">00:00:04.100=0;00:00:04.567=0;00:00:04.967=0;00:00:05.267=0;00:00:05.700=0;00:00:06.000=0;00:00:06.467=0;00:00:06.900=0;00:00:07.333=0;00:00:07.767=0</property>
    <property name="kdenlive:kfrhidden">0</property>
    <property name="kdenlive:collapsed">1</property>
    <property name="kdenlive:builtin">1</property>
   </filter>
   <filter id="filter94">
    <property name="version">0.9</property>
    <property name="mlt_service">frei0r.transparency</property>
    <property name="kdenlive_id">frei0r.transparency</property>
    <property name="0">00:00:04.100=0.517375</property>
    <property name="kdenlive:collapsed">0</property>
   </filter>
  </entry>
  <entry in="00:00:00.000" out="00:00:04.967" producer="producer7">
   <property name="kdenlive:id">45</property>
   <filter id="filter95">
    <property name="rotate_center">1</property>
    <property name="mlt_service">qtblend</property>
    <property name="kdenlive_id">qtblend</property>
    <property name="compositing">0</property>
    <property name="distort">0</property>
    <property name="rect">0=0 0 1920 1080 1</property>
    <property name="rotation">0=0</property>
    <property name="disable">1</property>
    <property name="kdenlive:kfrhidden">1</property>
    <property name="kdenlive:collapsed">1</property>
    <property name="kdenlive:builtin">1</property>
   </filter>
   <filter id="filter97" out="00:00:00.267">
    <property name="start">1</property>
    <property name="level">1</property>
    <property name="mlt_service">brightness</property>
    <property name="kdenlive_id">fade_from_black</property>
    <property name="alpha">00:00:00.000=0;00:00:00.267=1</property>
    <property name="kdenlive:collapsed">0</property>
   </filter>
   <filter id="filter98" in="00:00:04.633" out="00:00:04.967">
    <property name="start">1</property>
    <property name="level">1</property>
    <property name="mlt_service">brightness</property>
    <property name="kdenlive_id">fade_to_black</property>
    <property name="alpha">00:00:00.000=1;00:00:00.333=0</property>
    <property name="kdenlive:collapsed">0</property>
   </filter>
  </entry>
  <entry in="00:00:02.000" out="00:00:08.300" producer="chain32">
   <property name="kdenlive:id">20</property>
   <property name="kdenlive:activeeffect">1</property>
   <filter id="filter99">
    <property name="rotate_center">1</property>
    <property name="mlt_service">qtblend</property>
    <property name="kdenlive_id">qtblend</property>
    <property name="compositing">0</property>
    <property name="distort">0</property>
    <property name="rect">60=0 0 1920 1080 1</property>
    <property name="rotation">60=0</property>
    <property name="disable">1</property>
    <property name="kdenlive:kfrhidden">1</property>
    <property name="kdenlive:collapsed">1</property>
    <property name="kdenlive:builtin">1</property>
   </filter>
   <filter id="filter100">
    <property name="version">0.9</property>
    <property name="mlt_service">frei0r.transparency</property>
    <property name="kdenlive_id">frei0r.transparency</property>
    <property name="0">00:00:02.000=0.514</property>
    <property name="kdenlive:collapsed">0</property>
   </filter>
  </entry>
  <blank length="00:00:06.900"/>
  <entry in="00:00:00.000" out="00:00:06.967" producer="producer9">
   <property name="kdenlive:id">47</property>
   <filter id="filter105">
    <property name="rotate_center">1</property>
    <property name="mlt_service">qtblend</property>
    <property name="kdenlive_id">qtblend</property>
    <property name="compositing">0</property>
    <property name="distort">0</property>
    <property name="rect">0=0 0 1920 1080 1</property>
    <property name="rotation">0=0</property>
    <property name="disable">1</property>
    <property name="kdenlive:kfrhidden">1</property>
    <property name="kdenlive:collapsed">1</property>
    <property name="kdenlive:builtin">1</property>
   </filter>
  </entry>
  <blank length="00:00:09.100"/>
  <entry in="00:00:12.067" out="00:00:22.467" producer="producer18">
   <property name="kdenlive:id">24</property>
   <property name="kdenlive:activeeffect">1</property>
   <filter id="filter106">
    <property name="rotate_center">1</property>
    <property name="mlt_service">qtblend</property>
    <property name="kdenlive_id">qtblend</property>
    <property name="compositing">0</property>
    <property name="distort">0</property>
    <property name="rect">362=0 0 1920 1080 1</property>
    <property name="rotation">362=0</property>
    <property name="disable">1</property>
    <property name="kdenlive:kfrhidden">1</property>
    <property name="kdenlive:collapsed">1</property>
    <property name="kdenlive:builtin">1</property>
   </filter>
   <filter id="filter107">
    <property name="version">0.9</property>
    <property name="mlt_service">frei0r.transparency</property>
    <property name="kdenlive_id">frei0r.transparency</property>
    <property name="0">00:00:12.067=0.664</property>
    <property name="kdenlive:collapsed">0</property>
   </filter>
  </entry>
  <blank length="00:00:02.600"/>
  <entry in="00:00:00.000" out="00:00:04.967" producer="producer17">
   <property name="kdenlive:id">12</property>
   <filter id="filter108">
    <property name="rotate_center">1</property>
    <property name="mlt_service">qtblend</property>
    <property name="kdenlive_id">qtblend</property>
    <property name="compositing">0</property>
    <property name="distort">0</property>
    <property name="rect">0=0 0 1920 1080 1</property>
    <property name="rotation">0=0</property>
    <property name="disable">1</property>
    <property name="kdenlive:kfrhidden">1</property>
    <property name="kdenlive:collapsed">1</property>
    <property name="kdenlive:builtin">1</property>
   </filter>
  </entry>
  <blank length="00:00:04.433"/>
  <entry in="00:00:00.000" out="00:00:32.100" producer="producer17">
   <property name="kdenlive:id">12</property>
   <filter id="filter109">
    <property name="rotate_center">1</property>
    <property name="mlt_service">qtblend</property>
    <property name="kdenlive_id">qtblend</property>
    <property name="compositing">0</property>
    <property name="distort">0</property>
    <property name="rect">00:00:00.000=0 0 1920 1080 1.000000;00:00:10.933=0 0 1920 1080 1.000000;00:00:11.933=-32 -540 2870 1611 1.000000;00:00:20.267=-32 -540 2870 1611 1.000000;00:00:21.967=-816 -545 2870 1611 1.000000;00:00:30.267=-816 -545 2870 1611 1.000000;00:00:31.400=0 0 1920 1080 1.000000</property>
    <property name="rotation">00:00:00.000=0;00:00:10.933=0;00:00:11.933=0;00:00:20.267=0;00:00:21.967=0;00:00:30.267=0;00:00:31.400=0</property>
    <property name="kdenlive:kfrhidden">0</property>
    <property name="kdenlive:collapsed">0</property>
    <property name="kdenlive:builtin">1</property>
   </filter>
  </entry>
  <blank length="00:00:12.333"/>
  <entry in="00:00:00.000" out="00:00:10.300" producer="producer19">
   <property name="kdenlive:id">20</property>
   <filter id="filter110">
    <property name="rotate_center">1</property>
    <property name="mlt_service">qtblend</property>
    <property name="kdenlive_id">qtblend</property>
    <property name="compositing">0</property>
    <property name="distort">0</property>
    <property name="rect">0=0 0 1920 1080 1</property>
    <property name="rotation">0=0</property>
    <property name="disable">1</property>
    <property name="kdenlive:kfrhidden">1</property>
    <property name="kdenlive:collapsed">1</property>
    <property name="kdenlive:builtin">1</property>
   </filter>
   <filter id="filter111">
    <property name="version">0.9</property>
    <property name="mlt_service">frei0r.transparency</property>
    <property name="kdenlive_id">frei0r.transparency</property>
    <property name="0">00:00:00.000=0.717</property>
    <property name="kdenlive:collapsed">0</property>
   </filter>
  </entry>
  <blank length="00:00:09.800"/>
  <entry in="00:00:00.000" out="00:00:20.800" producer="producer6">
   <property name="kdenlive:id">11</property>
   <filter id="filter112">
    <property name="rotate_center">1</property>
    <property name="mlt_service">qtblend</property>
    <property name="kdenlive_id">qtblend</property>
    <property name="compositing">0</property>
    <property name="distort">0</property>
    <property name="rect">0=0 0 1920 1080 1</property>
    <property name="rotation">0=0</property>
    <property name="disable">1</property>
    <property name="kdenlive:kfrhidden">1</property>
    <property name="kdenlive:collapsed">1</property>
    <property name="kdenlive:builtin">1</property>
   </filter>
  </entry>
  <blank length="00:00:09.833"/>
  <entry in="00:00:02.233" out="00:00:10.000" producer="chain33">
   <property name="kdenlive:id">63</property>
   <filter id="filter113">
    <property name="rotate_center">1</property>
    <property name="mlt_service">qtblend</property>
    <property name="kdenlive_id">qtblend</property>
    <property name="compositing">0</property>
    <property name="distort">0</property>
    <property name="rect">00:00:02.233=0 0 1920 1080 1.000000;00:00:05.267=0 0 1920 1080 1.000000;00:00:06.167=-874 -864 3439 2507 1.000000</property>
    <property name="rotation">00:00:02.233=0;00:00:05.267=0;00:00:06.167=0</property>
    <property name="kdenlive:kfrhidden">0</property>
    <property name="kdenlive:collapsed">0</property>
    <property name="kdenlive:builtin">1</property>
   </filter>
  </entry>
  <entry in="00:00:00.000" out="00:00:07.900" producer="producer21">
   <property name="kdenlive:id">60</property>
   <filter id="filter114" in="00:00:07.500" out="00:00:07.900">
    <property name="start">1</property>
    <property name="level">1</property>
    <property name="mlt_service">brightness</property>
    <property name="kdenlive_id">fade_to_black</property>
    <property name="alpha">00:00:00.000=1;00:00:00.400=0</property>
   </filter>
  </entry>
  <blank length="00:00:09.667"/>
  <entry in="00:00:00.000" out="00:00:03.033" producer="producer27">
   <property name="kdenlive:id">62</property>
  </entry>
  <entry in="00:00:00.000" out="00:00:46.700" producer="producer15">
   <property name="kdenlive:id">35</property>
   <filter id="filter115">
    <property name="rotate_center">1</property>
    <property name="mlt_service">qtblend</property>
    <property name="kdenlive_id">qtblend</property>
    <property name="compositing">0</property>
    <property name="distort">0</property>
    <property name="rect">00:00:00.000=0 0 1920 1080 1.000000</property>
    <property name="rotation">00:00:00.000=0</property>
    <property name="disable">1</property>
    <property name="kdenlive:kfrhidden">0</property>
    <property name="kdenlive:collapsed">0</property>
    <property name="kdenlive:builtin">1</property>
   </filter>
  </entry>
  <blank length="00:00:17.667"/>
  <entry in="00:00:00.000" out="00:00:18.333" producer="producer28">
   <property name="kdenlive:id">67</property>
   <filter id="filter116">
    <property name="rotate_center">1</property>
    <property name="mlt_service">qtblend</property>
    <property name="kdenlive_id">qtblend</property>
    <property name="compositing">0</property>
    <property name="distort">0</property>
    <property name="rect">0=0 0 1920 1080 1</property>
    <property name="rotation">0=0</property>
    <property name="disable">1</property>
    <property name="kdenlive:kfrhidden">1</property>
    <property name="kdenlive:collapsed">1</property>
    <property name="kdenlive:builtin">1</property>
   </filter>
  </entry>
  <blank length="00:00:01.033"/>
  <entry in="00:00:00.000" out="00:00:06.200" producer="producer29">
   <property name="kdenlive:id">71</property>
   <filter id="filter117">
    <property name="rotate_center">1</property>
    <property name="mlt_service">qtblend</property>
    <property name="kdenlive_id">qtblend</property>
    <property name="compositing">0</property>
    <property name="distort">0</property>
    <property name="rect">00:00:00.000=-41 -153 1105 679 1.000000</property>
    <property name="rotation">00:00:00.000=0</property>
    <property name="kdenlive:kfrhidden">1</property>
    <property name="kdenlive:collapsed">1</property>
    <property name="kdenlive:builtin">1</property>
   </filter>
   <filter id="filter118" out="00:00:00.467">
    <property name="start">1</property>
    <property name="level">1</property>
    <property name="mlt_service">brightness</property>
    <property name="kdenlive_id">fade_from_black</property>
    <property name="alpha">00:00:00.000=0;00:00:00.467=1</property>
    <property name="kdenlive:collapsed">0</property>
   </filter>
   <filter id="filter119" in="00:00:06.033" out="00:00:06.233">
    <property name="start">1</property>
    <property name="level">1</property>
    <property name="mlt_service">brightness</property>
    <property name="kdenlive_id">fade_to_black</property>
    <property name="alpha">00:00:00.000=1;00:00:00.200=0</property>
    <property name="kdenlive:collapsed">0</property>
   </filter>
  </entry>
  <blank length="00:00:00.667"/>
  <entry in="00:00:00.000" out="00:00:05.733" producer="producer34">
   <property name="kdenlive:id">81</property>
   <property name="kdenlive:activeeffect">0</property>
   <filter id="filter120">
    <property name="rotate_center">1</property>
    <property name="mlt_service">qtblend</property>
    <property name="kdenlive_id">qtblend</property>
    <property name="compositing">0</property>
    <property name="distort">0</property>
    <property name="rect">00:00:00.000=779 -133 1306 713 1.000000</property>
    <property name="rotation">00:00:00.000=0</property>
    <property name="kdenlive:kfrhidden">1</property>
    <property name="kdenlive:collapsed">1</property>
    <property name="kdenlive:builtin">1</property>
   </filter>
   <filter id="filter121" out="00:00:00.433">
    <property name="start">1</property>
    <property name="level">1</property>
    <property name="mlt_service">brightness</property>
    <property name="kdenlive_id">fade_from_black</property>
    <property name="alpha">00:00:00.000=0;00:00:00.433=1</property>
    <property name="kdenlive:collapsed">0</property>
   </filter>
   <filter id="filter122" in="00:00:05.333" out="00:00:05.767">
    <property name="start">1</property>
    <property name="level">1</property>
    <property name="mlt_service">brightness</property>
    <property name="kdenlive_id">fade_to_black</property>
    <property name="alpha">00:00:00.000=1;00:00:00.433=0</property>
    <property name="kdenlive:collapsed">0</property>
   </filter>
  </entry>
  <blank length="00:00:00.767"/>
  <entry in="00:00:00.000" out="00:00:04.967" producer="producer31">
   <property name="kdenlive:id">69</property>
   <filter id="filter123">
    <property name="rotate_center">1</property>
    <property name="mlt_service">qtblend</property>
    <property name="kdenlive_id">qtblend</property>
    <property name="compositing">0</property>
    <property name="distort">0</property>
    <property name="rect">00:00:00.000=-7 567 1200 653 1.000000</property>
    <property name="rotation">00:00:00.000=0</property>
    <property name="kdenlive:kfrhidden">1</property>
    <property name="kdenlive:collapsed">0</property>
    <property name="kdenlive:builtin">1</property>
   </filter>
   <filter id="filter129" out="00:00:00.500">
    <property name="start">1</property>
    <property name="level">1</property>
    <property name="mlt_service">brightness</property>
    <property name="kdenlive_id">fade_from_black</property>
    <property name="alpha">00:00:00.000=0;00:00:00.500=1</property>
    <property name="kdenlive:collapsed">0</property>
   </filter>
  </entry>
  <blank length="00:00:01.300"/>
  <entry in="00:00:00.000" out="00:00:06.300" producer="producer32">
   <property name="kdenlive:id">72</property>
   <filter id="filter130">
    <property name="rotate_center">1</property>
    <property name="mlt_service">qtblend</property>
    <property name="kdenlive_id">qtblend</property>
    <property name="compositing">0</property>
    <property name="distort">0</property>
    <property name="rect">00:00:00.000=112 -136 1614 745 1.000000</property>
    <property name="rotation">00:00:00.000=0</property>
    <property name="kdenlive:kfrhidden">1</property>
    <property name="kdenlive:collapsed">1</property>
    <property name="kdenlive:builtin">1</property>
   </filter>
   <filter id="filter131" out="00:00:00.500">
    <property name="start">1</property>
    <property name="level">1</property>
    <property name="mlt_service">brightness</property>
    <property name="kdenlive_id">fade_from_black</property>
    <property name="alpha">00:00:00.000=0;00:00:00.500=1</property>
    <property name="kdenlive:collapsed">0</property>
   </filter>
   <filter id="filter132" in="00:00:05.667" out="00:00:06.300">
    <property name="start">1</property>
    <property name="level">1</property>
    <property name="mlt_service">brightness</property>
    <property name="kdenlive_id">fade_to_black</property>
    <property name="alpha">00:00:00.000=1;00:00:00.633=0</property>
    <property name="kdenlive:collapsed">0</property>
   </filter>
  </entry>
 </playlist>
 <playlist id="playlist7"/>
 <tractor id="tractor3" in="00:00:00.000" out="00:05:00.033">
  <property name="kdenlive:trackheight">30</property>
  <property name="kdenlive:timeline_active">1</property>
  <property name="kdenlive:collapsed">0</property>
  <property name="kdenlive:thumbs_format"/>
  <property name="kdenlive:audio_rec"/>
  <track hide="audio" producer="playlist6"/>
  <track hide="audio" producer="playlist7"/>
 </tractor>
 <producer id="producer35" in="00:00:00.000" out="00:00:07.933">
  <property name="length">239</property>
  <property name="eof">pause</property>
  <property name="resource">0.933054:/run/media/uberdev/edrv/vid_editor_content/editing_assets_01/common_clips/yt_intro_video.mp4</property>
  <property name="aspect_ratio">1</property>
  <property name="meta.media.nb_streams">2</property>
  <property name="meta.media.0.stream.type">video</property>
  <property name="meta.media.0.stream.frame_rate">30</property>
  <property name="meta.media.0.stream.sample_aspect_ratio">1</property>
  <property name="meta.media.0.codec.width">1920</property>
  <property name="meta.media.0.codec.height">1080</property>
  <property name="meta.media.0.codec.rotate">0</property>
  <property name="meta.media.0.codec.pix_fmt">yuv420p</property>
  <property name="meta.media.0.codec.sample_aspect_ratio">1</property>
  <property name="meta.media.0.codec.colorspace">709</property>
  <property name="meta.media.0.codec.color_trc">1</property>
  <property name="meta.media.0.codec.name">h264</property>
  <property name="meta.media.0.codec.long_name">H.264 / AVC / MPEG-4 AVC / MPEG-4 part 10</property>
  <property name="meta.media.0.codec.bit_rate">378840</property>
  <property name="meta.attr.0.stream.handler_name.markup">VideoHandler</property>
  <property name="meta.attr.0.stream.vendor_id.markup">[0][0][0][0]</property>
  <property name="meta.media.1.stream.type">audio</property>
  <property name="meta.media.1.codec.sample_fmt">fltp</property>
  <property name="meta.media.1.codec.sample_rate">48000</property>
  <property name="meta.media.1.codec.channels">2</property>
  <property name="meta.media.1.codec.layout">stereo</property>
  <property name="meta.media.1.codec.name">aac</property>
  <property name="meta.media.1.codec.long_name">AAC (Advanced Audio Coding)</property>
  <property name="meta.media.1.codec.bit_rate">158247</property>
  <property name="meta.attr.1.stream.handler_name.markup">SoundHandler</property>
  <property name="meta.attr.1.stream.vendor_id.markup">[0][0][0][0]</property>
  <property name="meta.attr.major_brand.markup">isom</property>
  <property name="meta.attr.minor_version.markup">512</property>
  <property name="meta.attr.compatible_brands.markup">isomiso2avc1mp41</property>
  <property name="meta.attr.encoder.markup">Lavf61.7.100</property>
  <property name="seekable">1</property>
  <property name="meta.media.sample_aspect_num">1</property>
  <property name="meta.media.sample_aspect_den">1</property>
  <property name="format">3</property>
  <property name="audio_index">1</property>
  <property name="video_index">0</property>
  <property name="warp_speed">0.933054</property>
  <property name="warp_resource">/run/media/uberdev/edrv/vid_editor_content/editing_assets_01/common_clips/yt_intro_video.mp4</property>
  <property name="mlt_service">timewarp</property>
  <property name="kdenlive:control_uuid">{bc1eed88-1988-4f01-97fa-6c6e43d63938}</property>
  <property name="vstream">0</property>
  <property name="astream">0</property>
  <property name="set.test_audio">1</property>
  <property name="set.test_image">0</property>
  <property name="kdenlive:id">46</property>
  <property name="warp_pitch">0</property>
  <property name="meta.media.frame_rate_num">30</property>
  <property name="meta.media.frame_rate_den">1</property>
  <property name="meta.media.colorspace">709</property>
  <property name="meta.media.color_trc">1</property>
  <property name="meta.media.has_b_frames">2</property>
  <property name="meta.media.width">1920</property>
  <property name="meta.media.height">1080</property>
  <property name="meta.media.aspect_ratio">1</property>
  <property name="meta.media.color_range">mpeg</property>
  <property name="meta.media.top_field_first">0</property>
  <property name="meta.media.progressive">1</property>
  <filter id="filter133">
   <property name="rotate_center">1</property>
   <property name="mlt_service">qtblend</property>
   <property name="kdenlive_id">qtblend</property>
   <property name="compositing">0</property>
   <property name="distort">0</property>
   <property name="rect">0=0 0 1920 1080 1</property>
   <property name="rotation">0=0</property>
   <property name="disable">1</property>
  </filter>
  <filter id="filter134">
   <property name="window">75</property>
   <property name="max_gain">20dB</property>
   <property name="level">0=0</property>
   <property name="mlt_service">volume</property>
   <property name="kdenlive_id">volume</property>
   <property name="disable">1</property>
  </filter>
 </producer>
 <producer id="producer36" in="00:00:00.000" out="00:00:21.533">
  <property name="length">647</property>
  <property name="eof">pause</property>
  <property name="resource">0.329356:/run/media/uberdev/edrv/vid_editor_content/stock_footages/actions_footages/jumps/boy_jump_3840_2160_24fps.mp4</property>
  <property name="aspect_ratio">1</property>
  <property name="meta.media.nb_streams">2</property>
  <property name="meta.media.0.stream.type">video</property>
  <property name="meta.media.0.stream.frame_rate">23.976</property>
  <property name="meta.media.0.stream.sample_aspect_ratio">0</property>
  <property name="meta.media.0.codec.width">3840</property>
  <property name="meta.media.0.codec.height">2160</property>
  <property name="meta.media.0.codec.rotate">0</property>
  <property name="meta.media.0.codec.pix_fmt">yuv420p</property>
  <property name="meta.media.0.codec.sample_aspect_ratio">0</property>
  <property name="meta.media.0.codec.colorspace">709</property>
  <property name="meta.media.0.codec.color_trc">1</property>
  <property name="meta.media.0.codec.name">h264</property>
  <property name="meta.media.0.codec.long_name">H.264 / AVC / MPEG-4 AVC / MPEG-4 part 10</property>
  <property name="meta.media.0.codec.bit_rate">21195637</property>
  <property name="meta.attr.0.stream.creation_time.markup">2020-02-04T16:22:25.000000Z</property>
  <property name="meta.attr.0.stream.handler_name.markup">L-SMASH Video Handler</property>
  <property name="meta.attr.0.stream.vendor_id.markup">[0][0][0][0]</property>
  <property name="meta.attr.0.stream.encoder.markup">AVC Coding</property>
  <property name="meta.media.1.stream.type">audio</property>
  <property name="meta.media.1.codec.sample_fmt">fltp</property>
  <property name="meta.media.1.codec.sample_rate">48000</property>
  <property name="meta.media.1.codec.channels">2</property>
  <property name="meta.media.1.codec.layout">stereo</property>
  <property name="meta.media.1.codec.name">aac</property>
  <property name="meta.media.1.codec.long_name">AAC (Advanced Audio Coding)</property>
  <property name="meta.media.1.codec.bit_rate">253375</property>
  <property name="meta.attr.1.stream.creation_time.markup">2020-02-04T16:22:25.000000Z</property>
  <property name="meta.attr.1.stream.handler_name.markup">L-SMASH Audio Handler</property>
  <property name="meta.attr.1.stream.vendor_id.markup">[0][0][0][0]</property>
  <property name="meta.attr.major_brand.markup">mp42</property>
  <property name="meta.attr.minor_version.markup">0</property>
  <property name="meta.attr.compatible_brands.markup">mp42mp41isomavc1</property>
  <property name="meta.attr.creation_time.markup">2020-02-04T16:22:25.000000Z</property>
  <property name="seekable">1</property>
  <property name="meta.media.sample_aspect_num">1</property>
  <property name="meta.media.sample_aspect_den">1</property>
  <property name="format">3</property>
  <property name="audio_index">1</property>
  <property name="video_index">0</property>
  <property name="warp_speed">0.329356</property>
  <property name="warp_resource">/run/media/uberdev/edrv/vid_editor_content/stock_footages/actions_footages/jumps/boy_jump_3840_2160_24fps.mp4</property>
  <property name="mlt_service">timewarp</property>
  <property name="kdenlive:control_uuid">{f2bb2430-6422-4899-b6f1-4b1cb89fa3fc}</property>
  <property name="vstream">0</property>
  <property name="astream">0</property>
  <property name="set.test_audio">1</property>
  <property name="set.test_image">0</property>
  <property name="kdenlive:id">18</property>
  <property name="warp_pitch">0</property>
  <property name="meta.media.frame_rate_num">24000</property>
  <property name="meta.media.frame_rate_den">1001</property>
  <property name="meta.media.colorspace">709</property>
  <property name="meta.media.color_trc">1</property>
  <property name="meta.media.has_b_frames">2</property>
  <property name="meta.media.width">3840</property>
  <property name="meta.media.height">2160</property>
  <property name="meta.media.aspect_ratio">1</property>
  <property name="meta.media.color_range">mpeg</property>
  <property name="meta.media.top_field_first">0</property>
  <property name="meta.media.progressive">1</property>
  <filter id="filter135">
   <property name="rotate_center">1</property>
   <property name="mlt_service">qtblend</property>
   <property name="kdenlive_id">qtblend</property>
   <property name="compositing">0</property>
   <property name="distort">0</property>
   <property name="rect">0=0 0 1280 720 1</property>
   <property name="rotation">0=0</property>
   <property name="disable">1</property>
  </filter>
  <filter id="filter136">
   <property name="window">75</property>
   <property name="max_gain">20dB</property>
   <property name="level">0=0</property>
   <property name="mlt_service">volume</property>
   <property name="kdenlive_id">volume</property>
   <property name="disable">1</property>
  </filter>
 </producer>
 <producer id="producer38" in="00:00:00.000" out="00:00:04.967">
  <property name="length">150</property>
  <property name="eof">pause</property>
  <property name="resource"/>
  <property name="meta.media.progressive">1</property>
  <property name="aspect_ratio">1</property>
  <property name="seekable">1</property>
  <property name="mlt_service">kdenlivetitle</property>
  <property name="kdenlive:duration">00:00:05:00</property>
  <property name="kdenlive:clipname">Where to Sta...</property>
  <property name="xmldata">&lt;kdenlivetitle LC_NUMERIC="C" duration="150" height="1080" out="149" width="1920">
 &lt;item type="QGraphicsTextItem" z-index="0">
  &lt;position x="658" y="290">
   &lt;transform>1,0,0,0,1,0,0,0,1&lt;/transform>
  &lt;/position>
  &lt;content alignment="4" box-height="500" box-width="603.672" font="Impacted" font-color="0,0,0,255" font-italic="0" font-outline="1" font-outline-color="0,0,0,255" font-pixel-size="167" font-underline="0" font-weight="400" letter-spacing="-2" line-spacing="0" shadow="0;#64000000;3;3;3" tab-width="80" typewriter="0;2;1;0;0">Where to
Start???&lt;/content>
 &lt;/item>
 &lt;startviewport rect="0,0,1920,1080"/>
 &lt;endviewport rect="0,0,1920,1080"/>
 &lt;background color="255,255,255,0"/>
&lt;/kdenlivetitle>
</property>
  <property name="xml">was here</property>
  <property name="kdenlive:folderid">17</property>
  <property name="kdenlive:id">78</property>
  <property name="kdenlive:clip_type">2</property>
  <property name="kdenlive:file_hash">22caec1a9a5cd6d82d16aca64b4c98c6</property>
  <property name="force_reload">0</property>
  <property name="kdenlive:monitorPosition">105</property>
  <property name="kdenlive:control_uuid">{5d0953bf-34f7-4620-899e-7236bd674df1}</property>
  <property name="kdenlive:uniqueId">{e2237520-8f31-4b30-8676-5c106dd2352e}</property>
  <property name="meta.media.width">1920</property>
  <property name="meta.media.height">1080</property>
  <filter id="filter137">
   <property name="rotate_center">1</property>
   <property name="mlt_service">qtblend</property>
   <property name="kdenlive_id">qtblend</property>
   <property name="compositing">0</property>
   <property name="distort">0</property>
   <property name="rect">0=0 0 1920 1080 1</property>
   <property name="rotation">0=0</property>
   <property name="kdenlive:builtin">1</property>
   <property name="kdenlive:kfrhidden">1</property>
   <property name="kdenlive:collapsed">1</property>
   <property name="disable">1</property>
  </filter>
 </producer>
 <producer id="producer39" in="00:00:00.000" out="00:03:33.500">
  <property name="length">6406</property>
  <property name="eof">pause</property>
  <property name="resource">1.724074:/run/media/uberdev/edrv/raw_videos/braindump_with_mcp_notion_server/01_Pre_Prdn/raw_footage/02all_tool_working_mcpclient.mkv</property>
  <property name="aspect_ratio">1</property>
  <property name="meta.media.nb_streams">2</property>
  <property name="meta.media.0.stream.type">video</property>
  <property name="meta.media.0.stream.frame_rate">30</property>
  <property name="meta.media.0.stream.sample_aspect_ratio">0</property>
  <property name="meta.media.0.codec.width">1920</property>
  <property name="meta.media.0.codec.height">1080</property>
  <property name="meta.media.0.codec.rotate">0</property>
  <property name="meta.media.0.codec.pix_fmt">yuv420p</property>
  <property name="meta.media.0.codec.sample_aspect_ratio">1</property>
  <property name="meta.media.0.codec.colorspace">709</property>
  <property name="meta.media.0.codec.color_trc">1</property>
  <property name="meta.media.0.codec.name">h264</property>
  <property name="meta.media.0.codec.long_name">H.264 / AVC / MPEG-4 AVC / MPEG-4 part 10</property>
  <property name="meta.media.0.codec.bit_rate">0</property>
  <property name="meta.attr.0.stream.DURATION.markup">00:06:08.166000000</property>
  <property name="meta.media.1.stream.type">audio</property>
  <property name="meta.media.1.codec.sample_fmt">fltp</property>
  <property name="meta.media.1.codec.sample_rate">48000</property>
  <property name="meta.media.1.codec.channels">2</property>
  <property name="meta.media.1.codec.layout">stereo</property>
  <property name="meta.media.1.codec.name">aac</property>
  <property name="meta.media.1.codec.long_name">AAC (Advanced Audio Coding)</property>
  <property name="meta.media.1.codec.bit_rate">0</property>
  <property name="meta.attr.1.stream.title.markup">simple_aac_recording0</property>
  <property name="meta.attr.1.stream.DURATION.markup">00:06:08.042000000</property>
  <property name="meta.attr.ENCODER.markup">Lavf60.16.100</property>
  <property name="seekable">1</property>
  <property name="meta.media.sample_aspect_num">1</property>
  <property name="meta.media.sample_aspect_den">1</property>
  <property name="format">3</property>
  <property name="audio_index">1</property>
  <property name="video_index">0</property>
  <property name="warp_speed">1.72407</property>
  <property name="warp_resource">/run/media/uberdev/edrv/raw_videos/braindump_with_mcp_notion_server/01_Pre_Prdn/raw_footage/02all_tool_working_mcpclient.mkv</property>
  <property name="mlt_service">timewarp</property>
  <property name="kdenlive:control_uuid">{1dd09840-aa67-4f41-9a56-6dea76a844d6}</property>
  <property name="vstream">0</property>
  <property name="astream">0</property>
  <property name="set.test_audio">1</property>
  <property name="set.test_image">0</property>
  <property name="kdenlive:id">36</property>
  <property name="warp_pitch">0</property>
  <property name="meta.media.frame_rate_num">30</property>
  <property name="meta.media.frame_rate_den">1</property>
  <property name="meta.media.colorspace">709</property>
  <property name="meta.media.color_trc">1</property>
  <property name="meta.media.has_b_frames">2</property>
  <property name="meta.media.width">1920</property>
  <property name="meta.media.height">1080</property>
  <property name="meta.media.aspect_ratio">1</property>
  <property name="meta.media.color_range">mpeg</property>
  <property name="meta.media.top_field_first">0</property>
  <property name="meta.media.progressive">1</property>
  <filter id="filter138">
   <property name="rotate_center">1</property>
   <property name="mlt_service">qtblend</property>
   <property name="kdenlive_id">qtblend</property>
   <property name="compositing">0</property>
   <property name="distort">0</property>
   <property name="rect">0=0 0 1920 1080 1</property>
   <property name="rotation">0=0</property>
   <property name="disable">1</property>
  </filter>
  <filter id="filter139">
   <property name="window">75</property>
   <property name="max_gain">20dB</property>
   <property name="level">0=0</property>
   <property name="mlt_service">volume</property>
   <property name="kdenlive_id">volume</property>
   <property name="disable">1</property>
  </filter>
 </producer>
 <producer id="producer40" in="00:00:00.000" out="00:00:04.967">
  <property name="length">150</property>
  <property name="eof">pause</property>
  <property name="resource"/>
  <property name="meta.media.progressive">1</property>
  <property name="aspect_ratio">1</property>
  <property name="seekable">1</property>
  <property name="mlt_service">kdenlivetitle</property>
  <property name="kdenlive:duration">00:00:05:00</property>
  <property name="kdenlive:clipname">Code in Desc...</property>
  <property name="xmldata">&lt;kdenlivetitle LC_NUMERIC="C" duration="150" height="1080" out="149" width="1920">
 &lt;item type="QGraphicsTextItem" z-index="0">
  &lt;position x="571" y="290">
   &lt;transform>1,0,0,0,1,0,0,0,1&lt;/transform>
  &lt;/position>
  &lt;content alignment="4" box-height="500" box-width="778.344" font="Impacted" font-color="64,235,61,255" font-italic="0" font-outline="1" font-outline-color="0,0,0,255" font-pixel-size="167" font-underline="0" font-weight="400" letter-spacing="-2" line-spacing="0" shadow="0;#64000000;3;3;3" tab-width="80" typewriter="0;2;1;0;0">Code in 
Description&lt;/content>
 &lt;/item>
 &lt;startviewport rect="0,0,1920,1080"/>
 &lt;endviewport rect="0,0,1920,1080"/>
 &lt;background color="255,255,255,0"/>
&lt;/kdenlivetitle>
</property>
  <property name="xml">was here</property>
  <property name="kdenlive:folderid">17</property>
  <property name="kdenlive:id">74</property>
  <property name="kdenlive:clip_type">2</property>
  <property name="kdenlive:file_hash">7939c9626c7a8d71666f35ba6b056287</property>
  <property name="force_reload">0</property>
  <property name="kdenlive:monitorPosition">65</property>
  <property name="kdenlive:control_uuid">{a0974e7f-45f7-4532-b0f5-ea44492c13b5}</property>
  <property name="kdenlive:uniqueId">{475aab92-488f-482c-b160-552af7d0d792}</property>
  <property name="meta.media.width">1920</property>
  <property name="meta.media.height">1080</property>
  <filter id="filter140">
   <property name="rotate_center">1</property>
   <property name="mlt_service">qtblend</property>
   <property name="kdenlive_id">qtblend</property>
   <property name="compositing">0</property>
   <property name="distort">0</property>
   <property name="rect">0=0 0 1920 1080 1</property>
   <property name="rotation">0=0</property>
   <property name="kdenlive:builtin">1</property>
   <property name="kdenlive:kfrhidden">1</property>
   <property name="kdenlive:collapsed">1</property>
   <property name="disable">1</property>
  </filter>
 </producer>
 <playlist id="playlist8">
  <entry in="00:00:00.000" out="00:00:04.967" producer="producer33">
   <property name="kdenlive:id">73</property>
  </entry>
  <blank length="00:00:02.100"/>
  <entry in="00:00:00.000" out="00:00:02.333" producer="producer10">
   <property name="kdenlive:id">44</property>
   <filter id="filter141">
    <property name="rotate_center">1</property>
    <property name="mlt_service">qtblend</property>
    <property name="kdenlive_id">qtblend</property>
    <property name="compositing">0</property>
    <property name="distort">0</property>
    <property name="rect">00:00:00.000=0 0 1920 1080 1.000000</property>
    <property name="rotation">00:00:00.000=0</property>
    <property name="disable">1</property>
    <property name="kdenlive:kfrhidden">0</property>
    <property name="kdenlive:collapsed">0</property>
    <property name="kdenlive:builtin">1</property>
   </filter>
   <filter id="filter142" out="00:00:00.367">
    <property name="start">1</property>
    <property name="level">1</property>
    <property name="mlt_service">brightness</property>
    <property name="kdenlive_id">fade_from_black</property>
    <property name="alpha">00:00:00.000=0;00:00:00.367=1</property>
    <property name="kdenlive:collapsed">0</property>
   </filter>
   <filter id="filter143" in="00:00:02.233" out="00:00:02.333">
    <property name="start">1</property>
    <property name="level">1</property>
    <property name="mlt_service">brightness</property>
    <property name="kdenlive_id">fade_to_black</property>
    <property name="alpha">00:00:00.000=1;00:00:00.100=0</property>
    <property name="kdenlive:collapsed">0</property>
   </filter>
  </entry>
  <blank length="00:00:05.433"/>
  <entry in="00:00:00.000" out="00:00:05.533" producer="producer11">
   <property name="kdenlive:id">31</property>
   <filter id="filter144">
    <property name="rotate_center">1</property>
    <property name="mlt_service">qtblend</property>
    <property name="kdenlive_id">qtblend</property>
    <property name="compositing">0</property>
    <property name="distort">0</property>
    <property name="rect">00:00:00.000=0 0 1920 1080 1.000000</property>
    <property name="rotation">0=0</property>
    <property name="disable">1</property>
    <property name="kdenlive:kfrhidden">1</property>
    <property name="kdenlive:collapsed">1</property>
    <property name="kdenlive:builtin">1</property>
   </filter>
   <filter id="filter145" out="00:00:00.133">
    <property name="start">1</property>
    <property name="level">1</property>
    <property name="mlt_service">brightness</property>
    <property name="kdenlive_id">fade_from_black</property>
    <property name="alpha">00:00:00.000=0;00:00:00.133=1</property>
    <property name="kdenlive:collapsed">0</property>
   </filter>
   <filter id="filter146" in="00:00:05.367" out="00:00:05.533">
    <property name="start">1</property>
    <property name="level">1</property>
    <property name="mlt_service">brightness</property>
    <property name="kdenlive_id">fade_to_black</property>
    <property name="alpha">00:00:00.000=1;00:00:00.167=0</property>
    <property name="kdenlive:collapsed">0</property>
   </filter>
  </entry>
  <entry in="00:00:00.000" out="00:00:07.933" producer="producer35">
   <property name="kdenlive:id">46</property>
   <filter id="filter147">
    <property name="rotate_center">1</property>
    <property name="mlt_service">qtblend</property>
    <property name="kdenlive_id">qtblend</property>
    <property name="compositing">0</property>
    <property name="distort">0</property>
    <property name="rect">0=0 0 1920 1080 1</property>
    <property name="rotation">0=0</property>
    <property name="disable">1</property>
    <property name="kdenlive:kfrhidden">1</property>
    <property name="kdenlive:collapsed">1</property>
    <property name="kdenlive:builtin">1</property>
   </filter>
  </entry>
  <blank length="00:00:02.400"/>
  <entry in="00:00:00.000" out="00:00:03.533" producer="producer25">
   <property name="kdenlive:id">54</property>
   <filter id="filter148">
    <property name="rotate_center">1</property>
    <property name="mlt_service">qtblend</property>
    <property name="kdenlive_id">qtblend</property>
    <property name="compositing">0</property>
    <property name="distort">0</property>
    <property name="rect">00:00:00.000=-21 115 1023 611 1.000000;00:00:01.267=197 166 1023 611 1.000000</property>
    <property name="rotation">00:00:00.000=0;00:00:01.267=45</property>
    <property name="kdenlive:kfrhidden">0</property>
    <property name="kdenlive:collapsed">0</property>
    <property name="kdenlive:builtin">1</property>
   </filter>
  </entry>
  <entry in="00:00:00.000" out="00:00:09.967" producer="producer13">
   <property name="kdenlive:id">32</property>
   <property name="kdenlive:activeeffect">0</property>
   <filter id="filter149">
    <property name="rotate_center">1</property>
    <property name="mlt_service">qtblend</property>
    <property name="kdenlive_id">qtblend</property>
    <property name="compositing">0</property>
    <property name="distort">0</property>
    <property name="rect">00:00:00.000=0 0 1920 1080 1.000000;00:00:02.100=0 0 1920 1080 1.000000;00:00:02.867=-953 -416 2873 1761 1.000000;00:00:04.700=-953 -416 2873 1761 1.000000;00:00:05.367=-149 -626 2873 1761 1.000000;00:00:08.167=-149 -626 2873 1761 1.000000;00:00:08.667=-142 -110 2873 1761 1.000000</property>
    <property name="rotation">00:00:00.000=0;00:00:02.100=0;00:00:02.867=0;00:00:04.700=0;00:00:05.367=0;00:00:08.167=0;00:00:08.667=0</property>
    <property name="kdenlive:kfrhidden">0</property>
    <property name="kdenlive:collapsed">0</property>
    <property name="kdenlive:builtin">1</property>
   </filter>
  </entry>
  <entry in="00:00:00.000" out="00:00:09.567" producer="producer11">
   <property name="kdenlive:id">31</property>
  </entry>
  <entry in="00:00:00.000" out="00:00:03.167" producer="producer8">
   <property name="kdenlive:id">27</property>
   <property name="kdenlive:activeeffect">1</property>
   <filter id="filter150">
    <property name="rotate_center">1</property>
    <property name="mlt_service">qtblend</property>
    <property name="kdenlive_id">qtblend</property>
    <property name="compositing">0</property>
    <property name="distort">0</property>
    <property name="rect">00:00:00.000=-37 -497 3192 2755 1.000000</property>
    <property name="rotation">00:00:00.000=0</property>
    <property name="kdenlive:kfrhidden">1</property>
    <property name="kdenlive:collapsed">1</property>
    <property name="kdenlive:builtin">1</property>
   </filter>
   <filter id="filter151">
    <property name="version">0.9</property>
    <property name="mlt_service">frei0r.transparency</property>
    <property name="kdenlive_id">frei0r.transparency</property>
    <property name="0">00:00:00.000=0.614286</property>
    <property name="kdenlive:collapsed">0</property>
   </filter>
  </entry>
  <blank length="00:00:04.567"/>
  <entry in="00:00:00.000" out="00:00:04.967" producer="producer20">
   <property name="kdenlive:id">49</property>
   <filter id="filter152">
    <property name="rotate_center">1</property>
    <property name="mlt_service">qtblend</property>
    <property name="kdenlive_id">qtblend</property>
    <property name="compositing">0</property>
    <property name="distort">0</property>
    <property name="rect">0=0 0 1920 1080 1</property>
    <property name="rotation">0=0</property>
    <property name="disable">1</property>
    <property name="kdenlive:kfrhidden">1</property>
    <property name="kdenlive:collapsed">1</property>
    <property name="kdenlive:builtin">1</property>
   </filter>
  </entry>
  <blank length="00:00:31.033"/>
  <entry in="00:00:05.433" out="00:00:19.367" producer="producer36">
   <property name="kdenlive:id">18</property>
   <property name="kdenlive:activeeffect">1</property>
   <filter id="filter153">
    <property name="rotate_center">1</property>
    <property name="mlt_service">qtblend</property>
    <property name="kdenlive_id">qtblend</property>
    <property name="compositing">0</property>
    <property name="distort">0</property>
    <property name="rect">00:00:05.433=0 0 1920 1080 1.000000</property>
    <property name="rotation">00:00:05.433=0</property>
    <property name="disable">1</property>
    <property name="kdenlive:kfrhidden">1</property>
    <property name="kdenlive:collapsed">1</property>
    <property name="kdenlive:builtin">1</property>
   </filter>
   <filter id="filter154">
    <property name="version">0.9</property>
    <property name="mlt_service">frei0r.transparency</property>
    <property name="kdenlive_id">frei0r.transparency</property>
    <property name="0">00:00:05.433=0.667</property>
    <property name="kdenlive:collapsed">0</property>
   </filter>
  </entry>
  <blank length="00:00:08.400"/>
  <entry in="00:00:00.000" out="00:00:11.667" producer="producer4">
   <property name="kdenlive:id">9</property>
   <filter id="filter155">
    <property name="rotate_center">1</property>
    <property name="mlt_service">qtblend</property>
    <property name="kdenlive_id">qtblend</property>
    <property name="compositing">0</property>
    <property name="distort">0</property>
    <property name="rect">0=0 0 1920 1080 1</property>
    <property name="rotation">0=0</property>
    <property name="disable">1</property>
    <property name="kdenlive:kfrhidden">1</property>
    <property name="kdenlive:collapsed">1</property>
    <property name="kdenlive:builtin">1</property>
   </filter>
  </entry>
  <entry in="00:00:00.000" out="00:00:12.567" producer="producer23">
   <property name="kdenlive:id">56</property>
   <filter id="filter156">
    <property name="rotate_center">1</property>
    <property name="mlt_service">qtblend</property>
    <property name="kdenlive_id">qtblend</property>
    <property name="compositing">0</property>
    <property name="distort">0</property>
    <property name="rect">00:00:00.000=-119 648 679 306 1.000000;00:00:00.733=-119 648 679 306 1.000000;00:00:06.600=-125 898 679 306 1.000000;00:00:12.000=-119 648 679 306 1.000000</property>
    <property name="rotation">00:00:00.000=0;00:00:00.733=0;00:00:06.600=0;00:00:12.000=0</property>
    <property name="kdenlive:kfrhidden">0</property>
    <property name="kdenlive:collapsed">0</property>
    <property name="kdenlive:builtin">1</property>
   </filter>
   <filter id="filter158" in="00:00:12.067" out="00:00:12.567">
    <property name="start">1</property>
    <property name="level">1</property>
    <property name="mlt_service">brightness</property>
    <property name="kdenlive_id">fade_to_black</property>
    <property name="alpha">00:00:00.000=1;00:00:00.500=0</property>
    <property name="kdenlive:collapsed">0</property>
   </filter>
  </entry>
  <blank length="00:00:02.767"/>
  <entry in="00:00:00.000" out="00:00:03.667" producer="producer23">
   <property name="kdenlive:id">56</property>
   <filter id="filter159">
    <property name="rotate_center">1</property>
    <property name="mlt_service">qtblend</property>
    <property name="kdenlive_id">qtblend</property>
    <property name="compositing">0</property>
    <property name="distort">0</property>
    <property name="rect">00:00:00.000=-302 582 992 488 1.000000;00:00:02.533=-302 582 992 488 1.000000;00:00:02.800=-32 34 992 488 1.000000</property>
    <property name="rotation">00:00:00.000=0;00:00:02.533=0;00:00:02.800=0</property>
    <property name="kdenlive:kfrhidden">0</property>
    <property name="kdenlive:collapsed">0</property>
    <property name="kdenlive:builtin">1</property>
   </filter>
   <filter id="filter160" out="00:00:00.533">
    <property name="start">1</property>
    <property name="level">1</property>
    <property name="mlt_service">brightness</property>
    <property name="kdenlive_id">fade_from_black</property>
    <property name="alpha">00:00:00.000=0;00:00:00.533=1</property>
    <property name="kdenlive:collapsed">0</property>
   </filter>
  </entry>
  <entry in="00:00:00.000" out="00:00:11.033" producer="producer5">
   <property name="kdenlive:id">10</property>
   <filter id="filter161">
    <property name="rotate_center">1</property>
    <property name="mlt_service">qtblend</property>
    <property name="kdenlive_id">qtblend</property>
    <property name="compositing">0</property>
    <property name="distort">0</property>
    <property name="rect">0=0 0 1920 1080 1</property>
    <property name="rotation">0=0</property>
    <property name="disable">1</property>
    <property name="kdenlive:kfrhidden">1</property>
    <property name="kdenlive:collapsed">1</property>
    <property name="kdenlive:builtin">1</property>
   </filter>
  </entry>
  <blank length="00:00:03.633"/>
  <entry in="00:00:00.000" out="00:00:03.500" producer="producer38">
   <property name="kdenlive:id">78</property>
   <property name="kdenlive:activeeffect">0</property>
   <filter id="filter162">
    <property name="rotate_center">1</property>
    <property name="mlt_service">qtblend</property>
    <property name="kdenlive_id">qtblend</property>
    <property name="compositing">0</property>
    <property name="distort">0</property>
    <property name="rect">00:00:00.000=-98 -138 1920 1080 1.000000</property>
    <property name="rotation">00:00:00.000=0</property>
    <property name="kdenlive:kfrhidden">1</property>
    <property name="kdenlive:collapsed">1</property>
    <property name="kdenlive:builtin">1</property>
   </filter>
   <filter id="filter163" out="00:00:00.400">
    <property name="start">1</property>
    <property name="level">1</property>
    <property name="mlt_service">brightness</property>
    <property name="kdenlive_id">fade_from_black</property>
    <property name="alpha">00:00:00.000=0;00:00:00.400=1</property>
    <property name="kdenlive:collapsed">0</property>
   </filter>
   <filter id="filter167" in="00:00:03.100" out="00:00:03.500">
    <property name="start">1</property>
    <property name="level">1</property>
    <property name="mlt_service">brightness</property>
    <property name="kdenlive_id">fade_to_black</property>
    <property name="alpha">00:00:00.000=1;00:00:00.400=0</property>
    <property name="kdenlive:collapsed">0</property>
   </filter>
  </entry>
  <blank length="00:00:08.300"/>
  <entry in="00:00:00.000" out="00:00:08.933" producer="producer30">
   <property name="kdenlive:id">61</property>
   <filter id="filter168">
    <property name="rotate_center">1</property>
    <property name="mlt_service">qtblend</property>
    <property name="kdenlive_id">qtblend</property>
    <property name="compositing">0</property>
    <property name="distort">0</property>
    <property name="rect">0=0 0 1920 1080 1</property>
    <property name="rotation">0=0</property>
    <property name="disable">1</property>
    <property name="kdenlive:kfrhidden">1</property>
    <property name="kdenlive:collapsed">1</property>
    <property name="kdenlive:builtin">1</property>
   </filter>
   <filter id="filter169" in="00:00:08.400" out="00:00:08.967">
    <property name="start">1</property>
    <property name="level">1</property>
    <property name="mlt_service">brightness</property>
    <property name="kdenlive_id">fade_to_black</property>
    <property name="alpha">00:00:00.000=1;00:00:00.567=0</property>
    <property name="kdenlive:collapsed">0</property>
   </filter>
  </entry>
  <blank length="00:00:08.200"/>
  <entry in="00:00:00.000" out="00:00:17.933" producer="producer24">
   <property name="kdenlive:id">53</property>
   <filter id="filter170">
    <property name="rotate_center">1</property>
    <property name="mlt_service">qtblend</property>
    <property name="kdenlive_id">qtblend</property>
    <property name="compositing">0</property>
    <property name="distort">0</property>
    <property name="rect">00:00:00.000=162 106 762 280 1.000000;00:00:04.000=162 106 762 280 1.000000;00:00:05.133=-194 338 762 280 1.000000;00:00:06.933=-194 338 762 280 1.000000;00:00:08.467=266 345 762 280 1.000000</property>
    <property name="rotation">00:00:00.000=45;00:00:04.000=45;00:00:05.133=45;00:00:06.933=45;00:00:08.467=45</property>
    <property name="kdenlive:kfrhidden">0</property>
    <property name="kdenlive:collapsed">0</property>
    <property name="kdenlive:builtin">1</property>
   </filter>
  </entry>
  <blank length="00:00:01.333"/>
  <entry in="00:00:00.000" out="00:00:22.667" producer="producer24">
   <property name="kdenlive:id">53</property>
   <filter id="filter171">
    <property name="rotate_center">1</property>
    <property name="mlt_service">qtblend</property>
    <property name="kdenlive_id">qtblend</property>
    <property name="compositing">0</property>
    <property name="distort">0</property>
    <property name="rect">00:00:00.000=-211 580 762 280 1.000000;00:00:03.967=-211 580 762 280 1.000000;00:00:05.167=278 596 762 280 1.000000;00:00:07.233=278 596 762 280 1.000000;00:00:08.800=-133 813 762 280 1.000000;00:00:09.900=-133 813 762 280 1.000000;00:00:11.433=208 801 762 280 1.000000;00:00:12.167=208 801 762 280 1.000000;00:00:14.267=631 789 762 280 1.000000;00:00:15.033=631 789 762 280 1.000000;00:00:17.233=1070 801 762 280 1.000000;00:00:18.733=1070 801 762 280 1.000000;00:00:19.767=541 326 762 280 1.000000</property>
    <property name="rotation">00:00:00.000=45;00:00:03.967=45;00:00:05.167=45;00:00:07.233=45;00:00:08.800=45;00:00:09.900=45;00:00:11.433=45;00:00:12.167=45;00:00:14.267=45;00:00:15.033=45;00:00:17.233=45;00:00:18.733=45;00:00:19.767=45</property>
    <property name="kdenlive:builtin">1</property>
    <property name="kdenlive:collapsed">0</property>
   </filter>
  </entry>
  <entry in="00:00:12.733" out="00:00:30.700" producer="producer39">
   <property name="kdenlive:id">36</property>
   <filter id="filter172">
    <property name="rotate_center">1</property>
    <property name="mlt_service">qtblend</property>
    <property name="kdenlive_id">qtblend</property>
    <property name="compositing">0</property>
    <property name="distort">0</property>
    <property name="rect">00:00:12.733=0 0 1920 1080 1.000000</property>
    <property name="rotation">00:00:12.733=0</property>
    <property name="disable">1</property>
    <property name="kdenlive:kfrhidden">1</property>
    <property name="kdenlive:collapsed">1</property>
    <property name="kdenlive:builtin">1</property>
   </filter>
  </entry>
  <blank length="00:00:00.900"/>
  <entry in="00:00:00.000" out="00:00:04.967" producer="producer40">
   <property name="kdenlive:id">74</property>
   <property name="kdenlive:activeeffect">0</property>
   <filter id="filter173">
    <property name="rotate_center">1</property>
    <property name="mlt_service">qtblend</property>
    <property name="kdenlive_id">qtblend</property>
    <property name="compositing">0</property>
    <property name="distort">0</property>
    <property name="rect">00:00:00.000=760 375 1568 670 1.000000</property>
    <property name="rotation">00:00:00.000=0</property>
    <property name="kdenlive:kfrhidden">1</property>
    <property name="kdenlive:collapsed">1</property>
    <property name="kdenlive:builtin">1</property>
   </filter>
  </entry>
  <entry in="00:00:00.000" out="00:00:11.867" producer="producer26">
   <property name="kdenlive:id">55</property>
   <filter id="filter174">
    <property name="rotate_center">1</property>
    <property name="mlt_service">qtblend</property>
    <property name="kdenlive_id">qtblend</property>
    <property name="compositing">0</property>
    <property name="distort">0</property>
    <property name="rect">00:00:00.000=511 72 1259 580 1.000000;00:00:03.200=511 72 1259 580 1.000000;00:00:03.933=487 -162 1259 580 1.000000;00:00:07.133=487 -162 1259 580 1.000000;00:00:07.767=381 331 1259 580 1.000000</property>
    <property name="rotation">00:00:00.000=0;00:00:03.200=0;00:00:03.933=-90;00:00:07.133=-90;00:00:07.767=-90</property>
    <property name="kdenlive:builtin">1</property>
    <property name="kdenlive:collapsed">0</property>
    <property name="kdenlive:kfrhidden">0</property>
   </filter>
  </entry>
 </playlist>
 <playlist id="playlist9"/>
 <tractor id="tractor4" in="00:00:00.000" out="00:04:32.400">
  <property name="kdenlive:trackheight">30</property>
  <property name="kdenlive:timeline_active">1</property>
  <property name="kdenlive:collapsed">0</property>
  <property name="kdenlive:thumbs_format"/>
  <property name="kdenlive:audio_rec"/>
  <track hide="audio" producer="playlist8"/>
  <track hide="audio" producer="playlist9"/>
 </tractor>
 <producer id="producer41" in="00:00:00.000" out="00:00:04.967">
  <property name="length">150</property>
  <property name="eof">pause</property>
  <property name="resource"/>
  <property name="meta.media.progressive">1</property>
  <property name="aspect_ratio">1</property>
  <property name="seekable">1</property>
  <property name="mlt_service">kdenlivetitle</property>
  <property name="kdenlive:duration">00:00:05:00</property>
  <property name="kdenlive:clipname">AI MEETS PRO...</property>
  <property name="xmldata">&lt;kdenlivetitle LC_NUMERIC="C" duration="150" height="1080" out="149" width="1920">
 &lt;item type="QGraphicsTextItem" z-index="0">
  &lt;position x="491" y="290">
   &lt;transform>1,0,0,0,1,0,0,0,1&lt;/transform>
  &lt;/position>
  &lt;content alignment="4" box-height="500" box-width="938.797" font="Impacted" font-color="241,249,248,255" font-italic="0" font-outline="1" font-outline-color="0,0,0,255" font-pixel-size="167" font-underline="0" font-weight="400" letter-spacing="-2" line-spacing="0" shadow="0;#64000000;3;3;3" tab-width="80" typewriter="0;2;1;0;0">AI MEETS
PRODUCTIVITY&lt;/content>
 &lt;/item>
 &lt;startviewport rect="0,0,1920,1080"/>
 &lt;endviewport rect="0,0,1920,1080"/>
 &lt;background color="255,255,255,0"/>
&lt;/kdenlivetitle>
</property>
  <property name="xml">was here</property>
  <property name="kdenlive:folderid">17</property>
  <property name="kdenlive:id">75</property>
  <property name="kdenlive:clip_type">2</property>
  <property name="kdenlive:file_hash">ced792f23b7d321884735f05705b7e9a</property>
  <property name="force_reload">0</property>
  <property name="kdenlive:monitorPosition">0</property>
  <property name="kdenlive:control_uuid">{b6163d3c-187a-4394-b719-13e8139c4454}</property>
  <property name="kdenlive:uniqueId">{0485bc7a-d6ea-46bb-8961-0f2f30428720}</property>
  <property name="meta.media.width">1920</property>
  <property name="meta.media.height">1080</property>
  <filter id="filter175">
   <property name="rotate_center">1</property>
   <property name="mlt_service">qtblend</property>
   <property name="kdenlive_id">qtblend</property>
   <property name="compositing">0</property>
   <property name="distort">0</property>
   <property name="rect">0=0 0 1920 1080 1</property>
   <property name="rotation">0=0</property>
   <property name="kdenlive:builtin">1</property>
   <property name="kdenlive:kfrhidden">1</property>
   <property name="kdenlive:collapsed">1</property>
   <property name="disable">1</property>
  </filter>
 </producer>
 <producer id="producer42" in="00:00:00.000" out="00:00:11.267">
  <property name="length">339</property>
  <property name="eof">pause</property>
  <property name="resource"/>
  <property name="meta.media.progressive">1</property>
  <property name="aspect_ratio">1</property>
  <property name="seekable">1</property>
  <property name="mlt_service">kdenlivetitle</property>
  <property name="kdenlive:duration">00:00:05:00</property>
  <property name="kdenlive:clipname">What is Inte...</property>
  <property name="xmldata">&lt;kdenlivetitle LC_NUMERIC="C" duration="150" height="1080" out="149" width="1920">
 &lt;item type="QGraphicsTextItem" z-index="0">
  &lt;position x="499" y="290">
   &lt;transform>1,0,0,0,1,0,0,0,1&lt;/transform>
  &lt;/position>
  &lt;content alignment="4" box-height="500" box-width="923.563" font="Impacted" font-color="0,0,0,255" font-italic="0" font-outline="1" font-outline-color="0,0,0,255" font-pixel-size="167" font-underline="0" font-weight="400" letter-spacing="-2" line-spacing="0" shadow="0;#64000000;3;3;3" tab-width="80" typewriter="0;2;1;0;0">What is Intent
Made Of?&lt;/content>
 &lt;/item>
 &lt;startviewport rect="0,0,1920,1080"/>
 &lt;endviewport rect="0,0,1920,1080"/>
 &lt;background color="255,255,255,0"/>
&lt;/kdenlivetitle>
</property>
  <property name="xml">was here</property>
  <property name="kdenlive:folderid">17</property>
  <property name="kdenlive:id">76</property>
  <property name="kdenlive:clip_type">2</property>
  <property name="kdenlive:file_hash">addddead08b3aa1087b83062aca9c53b</property>
  <property name="force_reload">0</property>
  <property name="kdenlive:monitorPosition">125</property>
  <property name="kdenlive:control_uuid">{6aa732a4-84ea-4937-a7b3-ed83fa575d1c}</property>
  <property name="kdenlive:uniqueId">{130107ae-886a-46f8-a8e0-6430a7811193}</property>
  <property name="meta.media.width">1920</property>
  <property name="meta.media.height">1080</property>
  <filter id="filter176">
   <property name="rotate_center">1</property>
   <property name="mlt_service">qtblend</property>
   <property name="kdenlive_id">qtblend</property>
   <property name="compositing">0</property>
   <property name="distort">0</property>
   <property name="rect">0=0 0 1920 1080 1</property>
   <property name="rotation">0=0</property>
   <property name="kdenlive:builtin">1</property>
   <property name="kdenlive:kfrhidden">1</property>
   <property name="kdenlive:collapsed">1</property>
   <property name="disable">1</property>
  </filter>
 </producer>
 <producer id="producer43" in="00:00:00.000" out="00:00:04.967">
  <property name="length">150</property>
  <property name="eof">pause</property>
  <property name="resource"/>
  <property name="meta.media.progressive">1</property>
  <property name="aspect_ratio">1</property>
  <property name="seekable">1</property>
  <property name="mlt_service">kdenlivetitle</property>
  <property name="kdenlive:duration">00:00:05:00</property>
  <property name="kdenlive:clipname">WHY MODEL Ne...</property>
  <property name="xmldata">&lt;kdenlivetitle LC_NUMERIC="C" duration="150" height="1080" out="149" width="1920">
 &lt;item type="QGraphicsTextItem" z-index="0">
  &lt;position x="267" y="290">
   &lt;transform>1,0,0,0,1,0,0,0,1&lt;/transform>
  &lt;/position>
  &lt;content alignment="4" box-height="500" box-width="1384.42" font="Impacted" font-color="255,236,25,255" font-italic="0" font-outline="1" font-outline-color="0,0,0,255" font-pixel-size="167" font-underline="0" font-weight="400" letter-spacing="-2" line-spacing="0" shadow="0;#64000000;3;3;3" tab-width="80" typewriter="0;2;1;0;0">WHY MODEL
Never USES MY TOOLS&lt;/content>
 &lt;/item>
 &lt;startviewport rect="0,0,1920,1080"/>
 &lt;endviewport rect="0,0,1920,1080"/>
 &lt;background color="255,255,255,0"/>
&lt;/kdenlivetitle>
</property>
  <property name="xml">was here</property>
  <property name="kdenlive:folderid">17</property>
  <property name="kdenlive:id">77</property>
  <property name="kdenlive:clip_type">2</property>
  <property name="kdenlive:file_hash">109f9b1634fea8611a71c8a2ffc4a2f1</property>
  <property name="force_reload">0</property>
  <property name="kdenlive:monitorPosition">149</property>
  <property name="kdenlive:control_uuid">{dbb61925-f69a-4ea2-abee-993bc887fd3f}</property>
  <property name="kdenlive:uniqueId">{216d7623-fd61-4734-ad2e-cf7b92b1999d}</property>
  <property name="meta.media.width">1920</property>
  <property name="meta.media.height">1080</property>
  <filter id="filter177">
   <property name="rotate_center">1</property>
   <property name="mlt_service">qtblend</property>
   <property name="kdenlive_id">qtblend</property>
   <property name="compositing">0</property>
   <property name="distort">0</property>
   <property name="rect">0=0 0 1920 1080 1</property>
   <property name="rotation">0=0</property>
   <property name="kdenlive:builtin">1</property>
   <property name="kdenlive:kfrhidden">1</property>
   <property name="kdenlive:collapsed">1</property>
   <property name="disable">1</property>
  </filter>
 </producer>
 <producer id="producer44" in="00:00:00.000" out="00:00:04.967">
  <property name="length">150</property>
  <property name="eof">pause</property>
  <property name="resource"/>
  <property name="meta.media.progressive">1</property>
  <property name="aspect_ratio">1</property>
  <property name="seekable">1</property>
  <property name="mlt_service">kdenlivetitle</property>
  <property name="kdenlive:duration">00:00:05:00</property>
  <property name="kdenlive:clipname">Write Docstr...</property>
  <property name="xmldata">&lt;kdenlivetitle LC_NUMERIC="C" duration="150" height="1080" out="149" width="1920">
 &lt;item type="QGraphicsTextItem" z-index="0">
  &lt;position x="386" y="290">
   &lt;transform>1,0,0,0,1,0,0,0,1&lt;/transform>
  &lt;/position>
  &lt;content alignment="4" box-height="213" box-width="1160.3" font="Bangers" font-color="255,236,25,255" font-italic="0" font-outline="1" font-outline-color="0,0,0,255" font-pixel-size="200" font-underline="0" font-weight="400" letter-spacing="-2" line-spacing="0" shadow="0;#64000000;3;3;3" tab-width="80" typewriter="0;2;1;0;0">Write Docstring&lt;/content>
 &lt;/item>
 &lt;startviewport rect="0,0,1920,1080"/>
 &lt;endviewport rect="0,0,1920,1080"/>
 &lt;background color="255,255,255,0"/>
&lt;/kdenlivetitle>
</property>
  <property name="xml">was here</property>
  <property name="kdenlive:folderid">17</property>
  <property name="kdenlive:id">79</property>
  <property name="kdenlive:clip_type">2</property>
  <property name="kdenlive:file_hash">3d178a2b3142c6ab51dd2c855231c915</property>
  <property name="force_reload">0</property>
  <property name="kdenlive:monitorPosition">132</property>
  <property name="kdenlive:control_uuid">{1399bd3f-10d5-42cc-934d-0682aef28326}</property>
  <property name="kdenlive:uniqueId">{4553102a-27e9-4b7b-b512-81cc91c1cd06}</property>
  <property name="meta.media.width">1920</property>
  <property name="meta.media.height">1080</property>
  <filter id="filter178">
   <property name="rotate_center">1</property>
   <property name="mlt_service">qtblend</property>
   <property name="kdenlive_id">qtblend</property>
   <property name="compositing">0</property>
   <property name="distort">0</property>
   <property name="rect">0=0 0 1920 1080 1</property>
   <property name="rotation">0=0</property>
   <property name="kdenlive:builtin">1</property>
   <property name="kdenlive:kfrhidden">1</property>
   <property name="kdenlive:collapsed">1</property>
   <property name="disable">1</property>
  </filter>
 </producer>
 <producer id="producer45" in="00:00:00.000" out="00:00:06.400">
  <property name="length">193</property>
  <property name="eof">pause</property>
  <property name="resource"/>
  <property name="meta.media.progressive">1</property>
  <property name="aspect_ratio">1</property>
  <property name="seekable">1</property>
  <property name="mlt_service">kdenlivetitle</property>
  <property name="kdenlive:duration">00:00:05:00</property>
  <property name="kdenlive:clipname">NOTION API C...</property>
  <property name="xmldata">&lt;kdenlivetitle LC_NUMERIC="C" duration="150" height="1080" out="149" width="1920">
 &lt;item type="QGraphicsTextItem" z-index="0">
  &lt;position x="575" y="290">
   &lt;transform>1,0,0,0,1,0,0,0,1&lt;/transform>
  &lt;/position>
  &lt;content alignment="4" box-height="500" box-width="769.781" font="Impacted" font-color="255,236,25,255" font-italic="0" font-outline="1" font-outline-color="0,0,0,255" font-pixel-size="167" font-underline="0" font-weight="400" letter-spacing="-2" line-spacing="0" shadow="0;#64000000;3;3;3" tab-width="80" typewriter="0;2;1;0;0">NOTION API
Connection&lt;/content>
 &lt;/item>
 &lt;startviewport rect="0,0,1920,1080"/>
 &lt;endviewport rect="0,0,1920,1080"/>
 &lt;background color="255,255,255,0"/>
&lt;/kdenlivetitle>
</property>
  <property name="xml">was here</property>
  <property name="kdenlive:folderid">17</property>
  <property name="kdenlive:id">80</property>
  <property name="kdenlive:clip_type">2</property>
  <property name="kdenlive:file_hash">f14ea978087afe842f70e8828df570da</property>
  <property name="force_reload">0</property>
  <property name="kdenlive:monitorPosition">65</property>
  <property name="kdenlive:control_uuid">{997d4f0b-b4b4-47e0-ae71-e97fd2357a41}</property>
  <property name="kdenlive:uniqueId">{5f0d60d3-d70c-4b91-9da2-9e8505cc47b9}</property>
  <property name="meta.media.width">1920</property>
  <property name="meta.media.height">1080</property>
  <filter id="filter179">
   <property name="rotate_center">1</property>
   <property name="mlt_service">qtblend</property>
   <property name="kdenlive_id">qtblend</property>
   <property name="compositing">0</property>
   <property name="distort">0</property>
   <property name="rect">0=0 0 1920 1080 1</property>
   <property name="rotation">0=0</property>
   <property name="kdenlive:builtin">1</property>
   <property name="kdenlive:kfrhidden">1</property>
   <property name="kdenlive:collapsed">1</property>
   <property name="disable">1</property>
  </filter>
 </producer>
 <playlist id="playlist10">
  <blank length="00:00:18.267"/>
  <entry in="00:00:00.000" out="00:00:02.167" producer="producer40">
   <property name="kdenlive:id">74</property>
   <property name="kdenlive:activeeffect">0</property>
   <filter id="filter180">
    <property name="rotate_center">1</property>
    <property name="mlt_service">qtblend</property>
    <property name="kdenlive_id">qtblend</property>
    <property name="compositing">0</property>
    <property name="distort">0</property>
    <property name="rect">00:00:00.000=-424 -310 1920 1080 1.000000</property>
    <property name="rotation">00:00:00.000=0</property>
    <property name="kdenlive:kfrhidden">1</property>
    <property name="kdenlive:collapsed">1</property>
    <property name="kdenlive:builtin">1</property>
   </filter>
   <filter id="filter181" out="00:00:00.433">
    <property name="start">1</property>
    <property name="level">1</property>
    <property name="mlt_service">brightness</property>
    <property name="kdenlive_id">fade_from_black</property>
    <property name="alpha">00:00:00.000=0;00:00:00.433=1</property>
    <property name="kdenlive:collapsed">0</property>
   </filter>
   <filter id="filter182" in="00:00:01.967" out="00:00:02.167">
    <property name="start">1</property>
    <property name="level">1</property>
    <property name="mlt_service">brightness</property>
    <property name="kdenlive_id">fade_to_black</property>
    <property name="alpha">00:00:00.000=1;00:00:00.200=0</property>
    <property name="kdenlive:collapsed">0</property>
   </filter>
  </entry>
  <blank length="00:00:33.700"/>
  <entry in="00:00:00.000" out="00:00:02.833" producer="producer41">
   <property name="kdenlive:id">75</property>
   <property name="kdenlive:activeeffect">0</property>
   <filter id="filter183">
    <property name="rotate_center">1</property>
    <property name="mlt_service">qtblend</property>
    <property name="kdenlive_id">qtblend</property>
    <property name="compositing">0</property>
    <property name="distort">0</property>
    <property name="rect">00:00:00.000=-430 -312 1920 1080 1.000000</property>
    <property name="rotation">00:00:00.000=0</property>
    <property name="kdenlive:kfrhidden">1</property>
    <property name="kdenlive:collapsed">1</property>
    <property name="kdenlive:builtin">1</property>
   </filter>
   <filter id="filter184" out="00:00:00.200">
    <property name="start">1</property>
    <property name="level">1</property>
    <property name="mlt_service">brightness</property>
    <property name="kdenlive_id">fade_from_black</property>
    <property name="alpha">00:00:00.000=0;00:00:00.200=1</property>
    <property name="kdenlive:collapsed">0</property>
   </filter>
   <filter id="filter185" in="00:00:02.667" out="00:00:02.833">
    <property name="start">1</property>
    <property name="level">1</property>
    <property name="mlt_service">brightness</property>
    <property name="kdenlive_id">fade_to_black</property>
    <property name="alpha">00:00:00.000=1;00:00:00.167=0</property>
    <property name="kdenlive:collapsed">0</property>
   </filter>
  </entry>
  <blank length="00:00:01.467"/>
  <entry in="00:00:00.000" out="00:00:01.700" producer="producer42">
   <property name="kdenlive:id">76</property>
   <property name="kdenlive:activeeffect">0</property>
   <filter id="filter186">
    <property name="rotate_center">1</property>
    <property name="mlt_service">qtblend</property>
    <property name="kdenlive_id">qtblend</property>
    <property name="compositing">0</property>
    <property name="distort">0</property>
    <property name="rect">00:00:00.000=789 66 1509 677 1.000000</property>
    <property name="rotation">00:00:00.000=0</property>
    <property name="kdenlive:kfrhidden">1</property>
    <property name="kdenlive:collapsed">1</property>
    <property name="kdenlive:builtin">1</property>
   </filter>
   <filter id="filter187" out="00:00:00.133">
    <property name="start">1</property>
    <property name="level">1</property>
    <property name="mlt_service">brightness</property>
    <property name="kdenlive_id">fade_from_black</property>
    <property name="alpha">00:00:00.000=0;00:00:00.133=1</property>
    <property name="kdenlive:collapsed">0</property>
   </filter>
   <filter id="filter188" in="00:00:01.500" out="00:00:01.700">
    <property name="start">1</property>
    <property name="level">1</property>
    <property name="mlt_service">brightness</property>
    <property name="kdenlive_id">fade_to_black</property>
    <property name="alpha">00:00:00.000=1;00:00:00.200=0</property>
    <property name="kdenlive:collapsed">0</property>
   </filter>
  </entry>
  <blank length="00:00:04.733"/>
  <entry in="00:00:00.000" out="00:00:11.267" producer="producer42">
   <property name="kdenlive:id">76</property>
   <property name="kdenlive:activeeffect">0</property>
   <filter id="filter189">
    <property name="rotate_center">1</property>
    <property name="mlt_service">qtblend</property>
    <property name="kdenlive_id">qtblend</property>
    <property name="compositing">0</property>
    <property name="distort">0</property>
    <property name="rect">00:00:00.000=373 420 1578 817 1.000000;00:00:01.467=373 420 1578 817 1.000000;00:00:01.700=687 -55 1578 817 1.000000</property>
    <property name="rotation">00:00:00.000=0;00:00:01.467=0;00:00:01.700=0</property>
    <property name="kdenlive:kfrhidden">0</property>
    <property name="kdenlive:collapsed">0</property>
    <property name="kdenlive:builtin">1</property>
   </filter>
   <filter id="filter190" in="00:00:11.167" out="00:00:11.300">
    <property name="start">1</property>
    <property name="level">1</property>
    <property name="mlt_service">brightness</property>
    <property name="kdenlive_id">fade_to_black</property>
    <property name="alpha">00:00:00.000=1;00:00:00.133=0</property>
    <property name="kdenlive:collapsed">0</property>
   </filter>
   <filter id="filter191" out="00:00:00.200">
    <property name="start">1</property>
    <property name="level">1</property>
    <property name="mlt_service">brightness</property>
    <property name="kdenlive_id">fade_from_black</property>
    <property name="alpha">00:00:00.000=0;00:00:00.200=1</property>
    <property name="kdenlive:collapsed">0</property>
   </filter>
  </entry>
  <blank length="00:00:27.667"/>
  <entry in="00:00:00.000" out="00:00:04.967" producer="producer43">
   <property name="kdenlive:id">77</property>
   <property name="kdenlive:activeeffect">0</property>
   <filter id="filter192">
    <property name="rotate_center">1</property>
    <property name="mlt_service">qtblend</property>
    <property name="kdenlive_id">qtblend</property>
    <property name="compositing">0</property>
    <property name="distort">0</property>
    <property name="rect">00:00:00.000=-12 287 1920 1080 1.000000</property>
    <property name="rotation">00:00:00.000=0</property>
    <property name="kdenlive:kfrhidden">1</property>
    <property name="kdenlive:collapsed">1</property>
    <property name="kdenlive:builtin">1</property>
   </filter>
  </entry>
  <blank length="00:00:01.200"/>
  <entry in="00:00:00.000" out="00:00:10.000" producer="producer22">
   <property name="kdenlive:id">51</property>
   <filter id="filter193">
    <property name="rotate_center">1</property>
    <property name="mlt_service">qtblend</property>
    <property name="kdenlive_id">qtblend</property>
    <property name="compositing">0</property>
    <property name="distort">0</property>
    <property name="rect">0=0 0 1920 1080 1</property>
    <property name="rotation">0=0</property>
    <property name="disable">1</property>
    <property name="kdenlive:kfrhidden">1</property>
    <property name="kdenlive:collapsed">1</property>
    <property name="kdenlive:builtin">1</property>
   </filter>
  </entry>
  <blank length="00:00:24.300"/>
  <entry in="00:00:00.000" out="00:00:03.167" producer="producer25">
   <property name="kdenlive:id">54</property>
   <property name="kdenlive:activeeffect">0</property>
   <filter id="filter194">
    <property name="rotate_center">1</property>
    <property name="mlt_service">qtblend</property>
    <property name="kdenlive_id">qtblend</property>
    <property name="compositing">0</property>
    <property name="distort">0</property>
    <property name="rect">00:00:00.000=-140 -44 827 419 1.000000</property>
    <property name="rotation">00:00:00.000=0</property>
    <property name="kdenlive:kfrhidden">1</property>
    <property name="kdenlive:collapsed">1</property>
    <property name="kdenlive:builtin">1</property>
   </filter>
   <filter id="filter195" out="00:00:00.533">
    <property name="start">1</property>
    <property name="level">1</property>
    <property name="mlt_service">brightness</property>
    <property name="kdenlive_id">fade_from_black</property>
    <property name="alpha">00:00:00.000=0;00:00:00.533=1</property>
    <property name="kdenlive:collapsed">0</property>
   </filter>
   <filter id="filter196" in="00:00:02.667" out="00:00:03.167">
    <property name="start">1</property>
    <property name="level">1</property>
    <property name="mlt_service">brightness</property>
    <property name="kdenlive_id">fade_to_black</property>
    <property name="alpha">00:00:00.000=1;00:00:00.500=0</property>
   </filter>
  </entry>
  <blank length="00:00:04.233"/>
  <entry in="00:00:00.000" out="00:00:09.800" producer="producer23">
   <property name="kdenlive:id">56</property>
   <filter id="filter197">
    <property name="rotate_center">1</property>
    <property name="mlt_service">qtblend</property>
    <property name="kdenlive_id">qtblend</property>
    <property name="compositing">0</property>
    <property name="distort">0</property>
    <property name="rect">00:00:00.000=226 679 679 306 1.000000;00:00:00.567=247 672 679 306 1.000000;00:00:04.067=243 870 679 306 1.000000;00:00:07.367=247 672 679 306 0.961538;00:00:08.333=299 79 679 306 0.960000</property>
    <property name="rotation">00:00:00.000=0;00:00:00.567=0;00:00:04.067=0;00:00:07.367=0;00:00:08.333=0</property>
    <property name="kdenlive:builtin">1</property>
    <property name="kdenlive:collapsed">0</property>
   </filter>
   <filter id="filter198" out="00:00:03.000">
    <property name="start">1</property>
    <property name="level">1</property>
    <property name="mlt_service">brightness</property>
    <property name="kdenlive_id">fade_from_black</property>
    <property name="alpha">00:00:00.000=0;00:00:03.000=1</property>
    <property name="kdenlive:collapsed">0</property>
   </filter>
  </entry>
  <blank length="00:00:20.967"/>
  <entry in="00:00:00.000" out="00:00:04.400" producer="producer44">
   <property name="kdenlive:id">79</property>
   <filter id="filter199">
    <property name="rotate_center">1</property>
    <property name="mlt_service">qtblend</property>
    <property name="kdenlive_id">qtblend</property>
    <property name="compositing">0</property>
    <property name="distort">0</property>
    <property name="rect">00:00:00.000=-6 -3 1920 1080 1.000000</property>
    <property name="rotation">00:00:00.000=0</property>
    <property name="kdenlive:kfrhidden">1</property>
    <property name="kdenlive:collapsed">1</property>
    <property name="kdenlive:builtin">1</property>
   </filter>
  </entry>
  <blank length="00:00:52.233"/>
  <entry in="00:00:00.000" out="00:00:08.933" producer="producer37">
   <property name="kdenlive:id">66</property>
   <filter id="filter200">
    <property name="rotate_center">1</property>
    <property name="mlt_service">qtblend</property>
    <property name="kdenlive_id">qtblend</property>
    <property name="compositing">0</property>
    <property name="distort">0</property>
    <property name="rect">00:00:00.000=454 411 1466 669 1.000000</property>
    <property name="rotation">00:00:00.000=0</property>
    <property name="kdenlive:kfrhidden">1</property>
    <property name="kdenlive:collapsed">1</property>
    <property name="kdenlive:builtin">1</property>
   </filter>
  </entry>
  <blank length="00:00:05.400"/>
  <entry in="00:00:00.000" out="00:00:00.867" producer="producer26">
   <property name="kdenlive:id">55</property>
   <filter id="filter201">
    <property name="rotate_center">1</property>
    <property name="mlt_service">qtblend</property>
    <property name="kdenlive_id">qtblend</property>
    <property name="compositing">0</property>
    <property name="distort">0</property>
    <property name="rect">00:00:00.000=77 468 1259 580 1.000000</property>
    <property name="rotation">00:00:00.000=0</property>
    <property name="kdenlive:kfrhidden">1</property>
    <property name="kdenlive:collapsed">1</property>
    <property name="kdenlive:builtin">1</property>
   </filter>
  </entry>
  <blank length="00:00:10.333"/>
  <entry in="00:00:00.000" out="00:00:06.300" producer="producer45">
   <property name="kdenlive:id">80</property>
   <property name="kdenlive:activeeffect">0</property>
   <filter id="filter202">
    <property name="rotate_center">1</property>
    <property name="mlt_service">qtblend</property>
    <property name="kdenlive_id">qtblend</property>
    <property name="compositing">0</property>
    <property name="distort">0</property>
    <property name="rect">00:00:00.000=728 382 1459 713 1.000000</property>
    <property name="rotation">00:00:00.000=0</property>
    <property name="kdenlive:kfrhidden">1</property>
    <property name="kdenlive:collapsed">1</property>
    <property name="kdenlive:builtin">1</property>
   </filter>
   <filter id="filter203" out="00:00:00.467">
    <property name="start">1</property>
    <property name="level">1</property>
    <property name="mlt_service">brightness</property>
    <property name="kdenlive_id">fade_from_black</property>
    <property name="alpha">00:00:00.000=0;00:00:00.467=1</property>
    <property name="kdenlive:collapsed">0</property>
   </filter>
   <filter id="filter204" in="00:00:05.700" out="00:00:06.300">
    <property name="start">1</property>
    <property name="level">1</property>
    <property name="mlt_service">brightness</property>
    <property name="kdenlive_id">fade_to_black</property>
    <property name="alpha">00:00:00.000=1;00:00:00.600=0</property>
    <property name="kdenlive:collapsed">0</property>
   </filter>
  </entry>
 </playlist>
 <playlist id="playlist11"/>
 <tractor id="tractor5" in="00:00:00.000" out="00:04:31.267">
  <property name="kdenlive:trackheight">30</property>
  <property name="kdenlive:timeline_active">1</property>
  <property name="kdenlive:collapsed">0</property>
  <property name="kdenlive:thumbs_format"/>
  <property name="kdenlive:audio_rec"/>
  <track hide="audio" producer="playlist10"/>
  <track hide="audio" producer="playlist11"/>
 </tractor>
 <tractor id="tractor6" in="00:00:00.000" out="00:05:00.067">
  <property name="kdenlive:duration">00:05:00.100</property>
  <property name="kdenlive:maxduration">9003</property>
  <property name="kdenlive:clipname">Sequence 1</property>
  <property name="kdenlive:description"/>
  <property name="kdenlive:uuid">{f4f778ab-5312-4f5e-84be-a74926a44a07}</property>
  <property name="kdenlive:producer_type">17</property>
  <property name="kdenlive:control_uuid">{f4f778ab-5312-4f5e-84be-a74926a44a07}</property>
  <property name="kdenlive:id">3</property>
  <property name="kdenlive:clip_type">0</property>
  <property name="kdenlive:file_hash">71d7485aff8b202a8c48226f213c859e</property>
  <property name="kdenlive:folderid">2</property>
  <property name="kdenlive:sequenceproperties.activeTrack">5</property>
  <property name="kdenlive:sequenceproperties.audioTarget">1</property>
  <property name="kdenlive:sequenceproperties.disablepreview">0</property>
  <property name="kdenlive:sequenceproperties.documentuuid">{f4f778ab-5312-4f5e-84be-a74926a44a07}</property>
  <property name="kdenlive:sequenceproperties.hasAudio">1</property>
  <property name="kdenlive:sequenceproperties.hasVideo">1</property>
  <property name="kdenlive:sequenceproperties.lastUsedFrame">0</property>
  <property name="kdenlive:sequenceproperties.position">4737</property>
  <property name="kdenlive:sequenceproperties.scrollPos">6893</property>
  <property name="kdenlive:sequenceproperties.tracks">4</property>
  <property name="kdenlive:sequenceproperties.tracksCount">6</property>
  <property name="kdenlive:sequenceproperties.verticalzoom">1</property>
  <property name="kdenlive:sequenceproperties.videoTarget">2</property>
  <property name="kdenlive:sequenceproperties.zonein">0</property>
  <property name="kdenlive:sequenceproperties.zoneout">75</property>
  <property name="kdenlive:sequenceproperties.zoom">9</property>
  <property name="kdenlive:sequenceproperties.groups">[
]
</property>
  <property name="kdenlive:sequenceproperties.guides">[
]
</property>
  <track producer="producer0"/>
  <track producer="tractor0"/>
  <track producer="tractor1"/>
  <track producer="tractor2"/>
  <track producer="tractor3"/>
  <track producer="tractor4"/>
  <track producer="tractor5"/>
  <transition id="transition0">
   <property name="a_track">0</property>
   <property name="b_track">1</property>
   <property name="mlt_service">mix</property>
   <property name="kdenlive_id">mix</property>
   <property name="internal_added">237</property>
   <property name="always_active">1</property>
   <property name="accepts_blanks">1</property>
   <property name="sum">1</property>
  </transition>
  <transition id="transition1">
   <property name="a_track">0</property>
   <property name="b_track">2</property>
   <property name="mlt_service">mix</property>
   <property name="kdenlive_id">mix</property>
   <property name="internal_added">237</property>
   <property name="always_active">1</property>
   <property name="accepts_blanks">1</property>
   <property name="sum">1</property>
  </transition>
  <transition id="transition2" in="00:03:02.700" out="00:03:06.400">
   <property name="a_track">5</property>
   <property name="b_track">6</property>
   <property name="version">0.1</property>
   <property name="mlt_service">frei0r.sleid0r_slide-up</property>
   <property name="kdenlive_id">frei0r.sleid0r_slide-up</property>
   <property name="position">00:00:00.000=0;00:00:02.967=1</property>
  </transition>
  <transition id="transition3" in="00:00:54.000" out="00:00:54.400">
   <property name="a_track">4</property>
   <property name="b_track">5</property>
   <property name="geometry">00:00:00.000=0% 0% 100% 100% 0%;00:00:00.400=0% 0% 100% 100% 100%</property>
   <property name="factory">loader</property>
   <property name="aligned">0</property>
   <property name="progressive">1</property>
   <property name="mlt_service">composite</property>
   <property name="kdenlive_id">wipe</property>
   <property name="luma">/tmp/.mount_kdenliz9iI1O/usr/share/kdenlive/lumas/HD/bi-linear_y.pgm</property>
   <property name="softness">0.73</property>
   <property name="luma_invert">0</property>
   <property name="fill">1</property>
  </transition>
  <transition id="transition4" in="00:02:11.067" out="00:02:11.833">
   <property name="a_track">4</property>
   <property name="b_track">5</property>
   <property name="geometry">00:00:00.000=0% 0% 100% 100% 100%;00:00:00.767=0% 0% 100% 100% 0%</property>
   <property name="factory">loader</property>
   <property name="aligned">0</property>
   <property name="progressive">1</property>
   <property name="mlt_service">composite</property>
   <property name="kdenlive_id">wipe</property>
   <property name="luma">/tmp/.mount_kdenliz9iI1O/usr/share/kdenlive/lumas/HD/bi-linear_y.pgm</property>
   <property name="softness">0.7</property>
   <property name="luma_invert">0</property>
   <property name="fill">1</property>
  </transition>
  <transition id="transition5" in="00:00:44.000" out="00:00:44.367">
   <property name="a_track">4</property>
   <property name="b_track">5</property>
   <property name="geometry">00:00:00.000=0% 0% 100% 100% 100%;00:00:00.367=0% 0% 100% 100% 0%</property>
   <property name="factory">loader</property>
   <property name="aligned">0</property>
   <property name="progressive">1</property>
   <property name="mlt_service">composite</property>
   <property name="kdenlive_id">wipe</property>
   <property name="luma">/tmp/.mount_kdenliz9iI1O/usr/share/kdenlive/lumas/HD/bi-linear_y.pgm</property>
   <property name="softness">0.57</property>
   <property name="luma_invert">0</property>
   <property name="fill">1</property>
  </transition>
  <transition id="transition6" in="00:00:27.900" out="00:00:28.400">
   <property name="a_track">4</property>
   <property name="b_track">5</property>
   <property name="geometry">00:00:00.000=0% 0% 100% 100% 100%;00:00:00.500=0% 0% 100% 100% 0%</property>
   <property name="factory">loader</property>
   <property name="aligned">0</property>
   <property name="progressive">1</property>
   <property name="mlt_service">composite</property>
   <property name="kdenlive_id">wipe</property>
   <property name="luma">/tmp/.mount_kdenliz9iI1O/usr/share/kdenlive/lumas/HD/bi-linear_y.pgm</property>
   <property name="softness">0.66</property>
   <property name="luma_invert">0</property>
   <property name="fill">1</property>
  </transition>
  <transition id="transition7" in="00:00:20.467" out="00:00:20.967">
   <property name="a_track">4</property>
   <property name="b_track">5</property>
   <property name="geometry">00:00:00.000=0% 0% 100% 100% 0%;00:00:00.500=0% 0% 100% 100% 100%</property>
   <property name="factory">loader</property>
   <property name="aligned">0</property>
   <property name="progressive">1</property>
   <property name="mlt_service">composite</property>
   <property name="kdenlive_id">wipe</property>
   <property name="luma">/tmp/.mount_kdenliz9iI1O/usr/share/kdenlive/lumas/HD/bi-linear_y.pgm</property>
   <property name="softness">0.75</property>
   <property name="luma_invert">0</property>
   <property name="fill">1</property>
  </transition>
  <transition id="transition8" in="00:00:04.633" out="00:00:04.967">
   <property name="a_track">4</property>
   <property name="b_track">5</property>
   <property name="geometry">00:00:00.000=0% 0% 100% 100% 100%;00:00:00.333=0% 0% 100% 100% 0%</property>
   <property name="factory">loader</property>
   <property name="aligned">0</property>
   <property name="progressive">1</property>
   <property name="mlt_service">composite</property>
   <property name="kdenlive_id">wipe</property>
   <property name="luma">/tmp/.mount_kdenliz9iI1O/usr/share/kdenlive/lumas/HD/bi-linear_y.pgm</property>
   <property name="softness">0.65</property>
   <property name="luma_invert">0</property>
   <property name="fill">1</property>
  </transition>
  <transition id="transition9" in="00:00:57.033" out="00:00:57.167">
   <property name="a_track">4</property>
   <property name="b_track">5</property>
   <property name="geometry">00:00:00.000=0% 0% 100% 100% 100%;00:00:00.133=0% 0% 100% 100% 0%</property>
   <property name="factory">loader</property>
   <property name="aligned">0</property>
   <property name="progressive">1</property>
   <property name="mlt_service">composite</property>
   <property name="kdenlive_id">wipe</property>
   <property name="luma">/tmp/.mount_kdenliz9iI1O/usr/share/kdenlive/lumas/HD/bi-linear_y.pgm</property>
   <property name="softness">0.76</property>
   <property name="luma_invert">0</property>
   <property name="fill">1</property>
  </transition>
  <transition id="transition10" in="00:03:56.633" out="00:03:56.900">
   <property name="a_track">4</property>
   <property name="b_track">5</property>
   <property name="geometry">00:00:00.000=0% 0% 100% 100% 0%;00:00:00.267=0% 0% 100% 100% 100%</property>
   <property name="factory">loader</property>
   <property name="aligned">0</property>
   <property name="progressive">1</property>
   <property name="mlt_service">composite</property>
   <property name="kdenlive_id">wipe</property>
   <property name="luma">/tmp/.mount_kdenliz9iI1O/usr/share/kdenlive/lumas/HD/bi-linear_y.pgm</property>
   <property name="softness">0.81</property>
   <property name="luma_invert">0</property>
   <property name="fill">1</property>
  </transition>
  <transition id="transition11" in="00:01:06.467" out="00:01:06.733">
   <property name="a_track">4</property>
   <property name="b_track">5</property>
   <property name="geometry">00:00:00.000=0% 0% 100% 100% 100%;00:00:00.267=0% 0% 100% 100% 0%</property>
   <property name="factory">loader</property>
   <property name="aligned">0</property>
   <property name="progressive">1</property>
   <property name="mlt_service">composite</property>
   <property name="kdenlive_id">wipe</property>
   <property name="luma">/tmp/.mount_kdenliz9iI1O/usr/share/kdenlive/lumas/HD/bi-linear_y.pgm</property>
   <property name="softness">0</property>
   <property name="luma_invert">0</property>
   <property name="fill">1</property>
  </transition>
  <transition id="transition12" in="00:02:00.167" out="00:02:01.233">
   <property name="a_track">4</property>
   <property name="b_track">5</property>
   <property name="geometry">00:00:00.000=0% 0% 100% 100% 0%;00:00:01.067=0% 0% 100% 100% 100%</property>
   <property name="factory">loader</property>
   <property name="aligned">0</property>
   <property name="progressive">1</property>
   <property name="mlt_service">composite</property>
   <property name="kdenlive_id">wipe</property>
   <property name="luma">/tmp/.mount_kdenliz9iI1O/usr/share/kdenlive/lumas/HD/bi-linear_y.pgm</property>
   <property name="softness">0.72</property>
   <property name="luma_invert">0</property>
   <property name="fill">1</property>
  </transition>
  <transition id="transition13" in="00:01:37.800" out="00:01:38.567">
   <property name="a_track">4</property>
   <property name="b_track">5</property>
   <property name="geometry">00:00:00.000=0% 0% 100% 100% 0%;00:00:00.767=0% 0% 100% 100% 100%</property>
   <property name="factory">loader</property>
   <property name="aligned">0</property>
   <property name="progressive">1</property>
   <property name="mlt_service">composite</property>
   <property name="kdenlive_id">wipe</property>
   <property name="luma">/tmp/.mount_kdenliz9iI1O/usr/share/kdenlive/lumas/HD/bi-linear_y.pgm</property>
   <property name="softness">0.64</property>
   <property name="luma_invert">0</property>
   <property name="fill">1</property>
  </transition>
  <transition id="transition14" in="00:02:41.733" out="00:02:41.967">
   <property name="a_track">4</property>
   <property name="b_track">5</property>
   <property name="geometry">00:00:00.000=0% 0% 100% 100% 100%;00:00:00.233=0% 0% 100% 100% 0%</property>
   <property name="factory">loader</property>
   <property name="aligned">0</property>
   <property name="progressive">1</property>
   <property name="mlt_service">composite</property>
   <property name="kdenlive_id">wipe</property>
   <property name="luma">/tmp/.mount_kdenliz9iI1O/usr/share/kdenlive/lumas/HD/bi-linear_y.pgm</property>
   <property name="softness">0.66</property>
   <property name="luma_invert">0</property>
   <property name="fill">1</property>
  </transition>
  <transition id="transition15" in="00:02:30.933" out="00:02:31.867">
   <property name="a_track">4</property>
   <property name="b_track">5</property>
   <property name="geometry">00:00:00.000=0% 0% 100% 100% 0%;00:00:00.933=0% 0% 100% 100% 100%</property>
   <property name="factory">loader</property>
   <property name="aligned">0</property>
   <property name="progressive">1</property>
   <property name="mlt_service">composite</property>
   <property name="kdenlive_id">wipe</property>
   <property name="luma"/>
   <property name="softness">0</property>
   <property name="luma_invert">0</property>
   <property name="fill">1</property>
  </transition>
  <transition id="transition16" in="00:01:50.933" out="00:01:51.733">
   <property name="a_track">4</property>
   <property name="b_track">5</property>
   <property name="geometry">00:00:00.000=0% 0% 100% 100% 100%;00:00:00.800=0% 0% 100% 100% 0%</property>
   <property name="factory">loader</property>
   <property name="aligned">0</property>
   <property name="progressive">1</property>
   <property name="mlt_service">composite</property>
   <property name="kdenlive_id">wipe</property>
   <property name="luma">/tmp/.mount_kdenliz9iI1O/usr/share/kdenlive/lumas/HD/bi-linear_y.pgm</property>
   <property name="softness">0.76</property>
   <property name="luma_invert">0</property>
   <property name="fill">1</property>
  </transition>
  <transition id="transition17" in="00:01:01.767" out="00:01:02.000">
   <property name="a_track">4</property>
   <property name="b_track">5</property>
   <property name="geometry">00:00:00.000=0% 0% 100% 100% 0%;00:00:00.233=0% 0% 100% 100% 100%</property>
   <property name="factory">loader</property>
   <property name="aligned">0</property>
   <property name="progressive">1</property>
   <property name="mlt_service">composite</property>
   <property name="kdenlive_id">wipe</property>
   <property name="luma">/tmp/.mount_kdenliz9iI1O/usr/share/kdenlive/lumas/HD/bi-linear_y.pgm</property>
   <property name="softness">0.59</property>
   <property name="luma_invert">0</property>
   <property name="fill">1</property>
  </transition>
  <transition id="transition18" in="00:03:10.200" out="00:03:10.733">
   <property name="a_track">3</property>
   <property name="b_track">4</property>
   <property name="geometry">00:00:00.000=0% 0% 100% 100% 0%;00:00:00.533=0% 0% 100% 100% 100%</property>
   <property name="factory">loader</property>
   <property name="aligned">0</property>
   <property name="progressive">1</property>
   <property name="mlt_service">composite</property>
   <property name="kdenlive_id">wipe</property>
   <property name="luma">/tmp/.mount_kdenliz9iI1O/usr/share/kdenlive/lumas/HD/bi-linear_y.pgm</property>
   <property name="softness">0.65</property>
   <property name="luma_invert">0</property>
   <property name="fill">1</property>
  </transition>
  <transition id="transition19" in="00:00:04.633" out="00:00:04.967">
   <property name="a_track">3</property>
   <property name="b_track">4</property>
   <property name="geometry">0=0% 0% 100% 100% 0%;-1=0% 0% 100% 100% 100%</property>
   <property name="factory">loader</property>
   <property name="aligned">0</property>
   <property name="progressive">1</property>
   <property name="mlt_service">composite</property>
   <property name="kdenlive_id">wipe</property>
   <property name="luma">/tmp/.mount_kdenliz9iI1O/usr/share/kdenlive/lumas/HD/bi-linear_y.pgm</property>
   <property name="softness">0.75</property>
   <property name="luma_invert">0</property>
   <property name="fill">1</property>
  </transition>
  <transition id="transition20" in="00:00:14.667" out="00:00:14.867">
   <property name="a_track">3</property>
   <property name="b_track">4</property>
   <property name="geometry">00:00:00.000=0% 0% 100% 100% 0%;00:00:00.200=0% 0% 100% 100% 100%</property>
   <property name="factory">loader</property>
   <property name="aligned">0</property>
   <property name="progressive">1</property>
   <property name="mlt_service">composite</property>
   <property name="kdenlive_id">wipe</property>
   <property name="luma">/tmp/.mount_kdenliz9iI1O/usr/share/kdenlive/lumas/HD/bi-linear_y.pgm</property>
   <property name="softness">0.79</property>
   <property name="luma_invert">0</property>
   <property name="fill">1</property>
  </transition>
  <transition id="transition21" in="00:04:32.433" out="00:04:32.933">
   <property name="a_track">3</property>
   <property name="b_track">4</property>
   <property name="geometry">00:00:00.000=0% 0% 100% 100% 100%;00:00:00.500=0% 0% 100% 100% 0%</property>
   <property name="factory">loader</property>
   <property name="aligned">0</property>
   <property name="progressive">1</property>
   <property name="mlt_service">composite</property>
   <property name="kdenlive_id">wipe</property>
   <property name="luma">/tmp/.mount_kdenliz9iI1O/usr/share/kdenlive/lumas/HD/bi-linear_x.pgm</property>
   <property name="softness">0.76</property>
   <property name="luma_invert">0</property>
   <property name="fill">1</property>
  </transition>
  <transition id="transition22" in="00:02:49.167" out="00:02:49.500">
   <property name="a_track">3</property>
   <property name="b_track">4</property>
   <property name="geometry">00:00:00.000=0% 0% 100% 100% 100%;00:00:00.333=0% 0% 100% 100% 0%</property>
   <property name="factory">loader</property>
   <property name="aligned">0</property>
   <property name="progressive">1</property>
   <property name="mlt_service">composite</property>
   <property name="kdenlive_id">wipe</property>
   <property name="luma">/tmp/.mount_kdenliz9iI1O/usr/share/kdenlive/lumas/HD/bi-linear_y.pgm</property>
   <property name="softness">0.76</property>
   <property name="luma_invert">0</property>
   <property name="fill">1</property>
  </transition>
  <transition id="transition23" in="00:00:09.467" out="00:00:09.633">
   <property name="a_track">3</property>
   <property name="b_track">4</property>
   <property name="geometry">00:00:00.000=0% 0% 100% 100% 100%;00:00:00.167=0% 0% 100% 100% 0%</property>
   <property name="factory">loader</property>
   <property name="aligned">0</property>
   <property name="progressive">1</property>
   <property name="mlt_service">composite</property>
   <property name="kdenlive_id">wipe</property>
   <property name="luma">/tmp/.mount_kdenliz9iI1O/usr/share/kdenlive/lumas/HD/bi-linear_y.pgm</property>
   <property name="softness">0.63</property>
   <property name="luma_invert">0</property>
   <property name="fill">1</property>
  </transition>
  <transition id="transition24">
   <property name="a_track">0</property>
   <property name="b_track">3</property>
   <property name="compositing">0</property>
   <property name="distort">0</property>
   <property name="rotate_center">0</property>
   <property name="mlt_service">qtblend</property>
   <property name="kdenlive_id">qtblend</property>
   <property name="internal_added">237</property>
   <property name="always_active">1</property>
  </transition>
  <transition id="transition25">
   <property name="a_track">0</property>
   <property name="b_track">4</property>
   <property name="compositing">0</property>
   <property name="distort">0</property>
   <property name="rotate_center">0</property>
   <property name="mlt_service">qtblend</property>
   <property name="kdenlive_id">qtblend</property>
   <property name="internal_added">237</property>
   <property name="always_active">1</property>
  </transition>
  <transition id="transition26">
   <property name="a_track">0</property>
   <property name="b_track">5</property>
   <property name="compositing">0</property>
   <property name="distort">0</property>
   <property name="rotate_center">0</property>
   <property name="mlt_service">qtblend</property>
   <property name="kdenlive_id">qtblend</property>
   <property name="internal_added">237</property>
   <property name="always_active">1</property>
  </transition>
  <transition id="transition27">
   <property name="a_track">0</property>
   <property name="b_track">6</property>
   <property name="compositing">0</property>
   <property name="distort">0</property>
   <property name="rotate_center">0</property>
   <property name="mlt_service">qtblend</property>
   <property name="kdenlive_id">qtblend</property>
   <property name="internal_added">237</property>
   <property name="always_active">1</property>
  </transition>
  <filter id="filter205">
   <property name="window">75</property>
   <property name="max_gain">20dB</property>
   <property name="mlt_service">volume</property>
   <property name="internal_added">237</property>
   <property name="disable">1</property>
  </filter>
  <filter id="filter206">
   <property name="channel">-1</property>
   <property name="mlt_service">panner</property>
   <property name="internal_added">237</property>
   <property name="start">0.5</property>
   <property name="disable">1</property>
  </filter>
 </tractor>
 <producer id="producer46" in="00:00:00.000" out="00:00:11.667">
  <property name="length">351</property>
  <property name="eof">pause</property>
  <property name="resource"/>
  <property name="meta.media.progressive">1</property>
  <property name="aspect_ratio">1</property>
  <property name="seekable">1</property>
  <property name="mlt_service">kdenlivetitle</property>
  <property name="kdenlive:duration">00:00:05:00</property>
  <property name="xmldata">&lt;kdenlivetitle LC_NUMERIC="C" duration="150" height="1080" out="149" width="1920">
 &lt;item type="QGraphicsRectItem" z-index="1">
  &lt;position x="397" y="326">
   &lt;transform zoom="100">1,0,0,0,1,0,0,0,1&lt;/transform>
  &lt;/position>
  &lt;content brushcolor="255,236,25,0" pencolor="0,0,0,255" penwidth="21" rect="0,0,939.857,428.286"/>
 &lt;/item>
 &lt;startviewport rect="0,0,1920,1080"/>
 &lt;endviewport rect="0,0,1920,1080"/>
 &lt;background color="255,255,255,0"/>
&lt;/kdenlivetitle>
</property>
  <property name="xml">was here</property>
  <property name="kdenlive:folderid">17</property>
  <property name="kdenlive:id">82</property>
  <property name="kdenlive:clip_type">2</property>
  <property name="kdenlive:file_hash">c6159535736996b5ad5a36c83b38be75</property>
  <property name="force_reload">0</property>
  <property name="kdenlive:monitorPosition">91</property>
  <property name="kdenlive:control_uuid">{2416eb08-6484-40f1-9232-4d757b1b2757}</property>
  <property name="kdenlive:uniqueId">{376c85f3-8d40-48af-819e-a53989807a22}</property>
  <property name="meta.media.width">1920</property>
  <property name="meta.media.height">1080</property>
  <filter id="filter207">
   <property name="rotate_center">1</property>
   <property name="mlt_service">qtblend</property>
   <property name="kdenlive_id">qtblend</property>
   <property name="compositing">0</property>
   <property name="distort">0</property>
   <property name="rect">0=0 0 1920 1080 1</property>
   <property name="rotation">0=0</property>
   <property name="kdenlive:builtin">1</property>
   <property name="kdenlive:kfrhidden">1</property>
   <property name="kdenlive:collapsed">1</property>
   <property name="disable">1</property>
  </filter>
 </producer>
 <playlist id="main_bin">
  <property name="kdenlive:folder.-1.2">Sequences</property>
  <property name="kdenlive:folder.-1.4">thumbnails</property>
  <property name="kdenlive:folder.-1.6">ppt</property>
  <property name="kdenlive:folder.-1.13">Stock_footage</property>
  <property name="kdenlive:folder.-1.14">bg_motion</property>
  <property name="kdenlive:folder.-1.15">bg_music</property>
  <property name="kdenlive:folder.-1.16">raw_footage</property>
  <property name="kdenlive:folder.-1.17">title</property>
  <property name="kdenlive:folder.-1.22">images</property>
  <property name="kdenlive:folder.-1.33">audio_tracks</property>
  <property name="kdenlive:sequenceFolder">2</property>
  <property name="kdenlive:docproperties.activetimeline">{f4f778ab-5312-4f5e-84be-a74926a44a07}</property>
  <property name="kdenlive:docproperties.audioChannels">2</property>
  <property name="kdenlive:docproperties.binsort">0</property>
  <property name="kdenlive:docproperties.browserurl">/run/media/uberdev/edrv/raw_videos/build_your_mcp_server_compare_flask/02_Assets/ppt/</property>
  <property name="kdenlive:docproperties.documentid">1745053915129</property>
  <property name="kdenlive:docproperties.enableTimelineZone">0</property>
  <property name="kdenlive:docproperties.enableexternalproxy">0</property>
  <property name="kdenlive:docproperties.enableproxy">0</property>
  <property name="kdenlive:docproperties.externalproxyparams">./;;.LRV;./;;.MP4</property>
  <property name="kdenlive:docproperties.generateimageproxy">0</property>
  <property name="kdenlive:docproperties.generateproxy">0</property>
  <property name="kdenlive:docproperties.guidesCategories">[
    {
        "color": "#9b59b6",
        "comment": "Category 1",
        "index": 0
    },
    {
        "color": "#3daee9",
        "comment": "Category 2",
        "index": 1
    },
    {
        "color": "#1abc9c",
        "comment": "Category 3",
        "index": 2
    },
    {
        "color": "#1cdc9a",
        "comment": "Category 4",
        "index": 3
    },
    {
        "color": "#c9ce3b",
        "comment": "Category 5",
        "index": 4
    },
    {
        "color": "#fdbc4b",
        "comment": "Category 6",
        "index": 5
    },
    {
        "color": "#f39c1f",
        "comment": "Category 7",
        "index": 6
    },
    {
        "color": "#f47750",
        "comment": "Category 8",
        "index": 7
    },
    {
        "color": "#da4453",
        "comment": "Category 9",
        "index": 8
    }
]
</property>
  <property name="kdenlive:docproperties.kdenliveversion">24.12.1</property>
  <property name="kdenlive:docproperties.opensequences">{f4f778ab-5312-4f5e-84be-a74926a44a07}</property>
  <property name="kdenlive:docproperties.previewextension"/>
  <property name="kdenlive:docproperties.previewparameters"/>
  <property name="kdenlive:docproperties.profile">atsc_1080p_30</property>
  <property name="kdenlive:docproperties.proxyextension"/>
  <property name="kdenlive:docproperties.proxyimageminsize">2000</property>
  <property name="kdenlive:docproperties.proxyimagesize">800</property>
  <property name="kdenlive:docproperties.proxyminsize">1000</property>
  <property name="kdenlive:docproperties.proxyparams"/>
  <property name="kdenlive:docproperties.proxyresize">640</property>
  <property name="kdenlive:docproperties.rendercategory">Generic (HD for web, mobile devices...)</property>
  <property name="kdenlive:docproperties.rendercustomquality">-1</property>
  <property name="kdenlive:docproperties.renderendguide">-1</property>
  <property name="kdenlive:docproperties.renderexportaudio">0</property>
  <property name="kdenlive:docproperties.renderfullcolorrange">0</property>
  <property name="kdenlive:docproperties.rendermode">0</property>
  <property name="kdenlive:docproperties.renderplay">0</property>
  <property name="kdenlive:docproperties.renderpreview">0</property>
  <property name="kdenlive:docproperties.renderprofile">MP4-H264/AAC</property>
  <property name="kdenlive:docproperties.renderrescale">0</property>
  <property name="kdenlive:docproperties.renderrescaleheight">540</property>
  <property name="kdenlive:docproperties.renderrescalewidth">960</property>
  <property name="kdenlive:docproperties.renderspeed">6</property>
  <property name="kdenlive:docproperties.renderstartguide">-1</property>
  <property name="kdenlive:docproperties.rendertcoverlay">0</property>
  <property name="kdenlive:docproperties.rendertctype">-1</property>
  <property name="kdenlive:docproperties.rendertwopass">0</property>
  <property name="kdenlive:docproperties.renderurl">03_Final_Edits/reaveal_code_mcp.mp4</property>
  <property name="kdenlive:docproperties.seekOffset">30000</property>
  <property name="kdenlive:docproperties.sessionid">{28e583ce-ddaa-4b7c-95cd-33362392250d}</property>
  <property name="kdenlive:docproperties.storagefolder">/run/media/uberdev/edrv/raw_videos/Kdenlive_Projects/1745053915129</property>
  <property name="kdenlive:docproperties.uuid">{f4f778ab-5312-4f5e-84be-a74926a44a07}</property>
  <property name="kdenlive:docproperties.version">1.1</property>
  <property name="kdenlive:expandedFolders">4;13;14;16;17;33;22;6</property>
  <property name="kdenlive:binZoom">4</property>
  <property name="kdenlive:extraBins">project_bin:-1:0</property>
  <property name="kdenlive:documentnotes"/>
  <property name="kdenlive:documentnotesversion">2</property>
  <property name="xml_retain">1</property>
  <entry in="00:00:00.000" out="00:00:04.967" producer="producer1"/>
  <entry in="00:00:00.000" out="00:00:04.967" producer="producer2"/>
  <entry in="00:00:00.000" out="00:00:04.967" producer="producer3"/>
  <entry in="00:00:00.000" out="00:00:11.667" producer="producer4"/>
  <entry in="00:00:00.000" out="00:00:11.900" producer="producer5"/>
  <entry in="00:00:00.000" out="00:00:20.800" producer="producer6"/>
  <entry in="00:00:00.000" out="00:00:32.100" producer="producer17"/>
  <entry in="00:00:00.000" out="00:00:07.067" producer="chain3"/>
  <entry in="00:00:00.000" out="00:00:19.967" producer="chain0"/>
  <entry in="00:00:00.000" out="00:00:29.967" producer="chain1"/>
  <entry in="00:00:00.000" out="00:00:04.367" producer="chain2"/>
  <entry in="00:00:00.000" out="00:00:04.967" producer="producer8"/>
  <entry in="00:00:00.000" out="00:00:39.300" producer="chain10"/>
  <entry in="00:00:00.000" out="00:00:19.967" producer="chain11"/>
  <entry in="00:00:00.000" out="00:00:09.567" producer="producer11"/>
  <entry in="00:00:00.000" out="00:00:10.300" producer="producer13"/>
  <entry in="00:00:00.000" out="00:00:04.967" producer="producer14"/>
  <entry in="00:00:00.000" out="00:00:46.700" producer="producer15"/>
  <entry in="00:00:00.000" out="00:06:08.133" producer="chain12"/>
  <entry in="00:00:00.000" out="00:00:04.967" producer="producer16"/>
  <entry in="00:00:00.000" out="00:00:20.967" producer="chain13"/>
  <entry in="00:00:00.000" out="00:00:32.333" producer="chain14"/>
  <entry in="00:00:00.000" out="00:00:17.500" producer="chain15"/>
  <entry in="00:00:00.000" out="00:00:05.067" producer="producer10"/>
  <entry in="00:00:00.000" out="00:00:05.067" producer="producer7"/>
  <entry in="00:00:00.000" out="00:00:07.400" producer="chain16"/>
  <entry in="00:00:00.000" out="00:00:06.967" producer="producer9"/>
  <entry in="00:00:00.000" out="00:00:44.933" producer="chain20"/>
  <entry in="00:00:00.000" out="00:00:04.967" producer="producer20"/>
  <entry in="00:00:00.000" out="00:00:21.600" producer="chain21"/>
  <entry in="00:00:00.000" out="00:00:08.367" producer="producer22"/>
  <entry in="00:00:00.000" out="00:00:41.767" producer="chain22"/>
  <entry in="00:00:00.000" out="00:00:22.667" producer="producer24"/>
  <entry in="00:00:00.000" out="00:00:04.967" producer="producer25"/>
  <entry in="00:00:00.000" out="00:00:11.867" producer="producer26"/>
  <entry in="00:00:00.000" out="00:00:12.567" producer="producer23"/>
  <entry in="00:00:00.000" out="00:00:28.133" producer="chain26"/>
  <entry in="00:00:00.000" out="00:00:52.667" producer="chain27"/>
  <entry in="00:00:00.000" out="00:00:07.900" producer="producer21"/>
  <entry in="00:00:00.000" out="00:00:11.667" producer="producer30"/>
  <entry in="00:00:00.000" out="00:00:05.067" producer="producer27"/>
  <entry in="00:00:00.000" out="00:00:26.967" producer="chain28"/>
  <entry in="00:00:00.000" out="00:00:46.400" producer="chain29"/>
  <entry in="00:00:00.000" out="00:00:17.667" producer="chain34"/>
  <entry in="00:00:00.000" out="00:00:13.367" producer="producer37"/>
  <entry in="00:00:00.000" out="00:00:18.333" producer="producer28"/>
  <entry in="00:00:00.000" out="00:00:17.767" producer="chain35"/>
  <entry in="00:00:00.000" out="00:00:13.367" producer="producer31"/>
  <entry in="00:00:00.000" out="00:00:27.600" producer="chain36"/>
  <entry in="00:00:00.000" out="00:00:13.367" producer="producer29"/>
  <entry in="00:00:00.000" out="00:00:06.300" producer="producer32"/>
  <entry in="00:00:00.000" out="00:00:04.967" producer="producer33"/>
  <entry in="00:00:00.000" out="00:05:00.067" producer="tractor6"/>
  <entry in="00:00:00.000" out="00:00:04.967" producer="producer40"/>
  <entry in="00:00:00.000" out="00:00:04.967" producer="producer41"/>
  <entry in="00:00:00.000" out="00:00:04.967" producer="producer42"/>
  <entry in="00:00:00.000" out="00:00:04.967" producer="producer43"/>
  <entry in="00:00:00.000" out="00:00:04.967" producer="producer38"/>
  <entry in="00:00:00.000" out="00:00:04.967" producer="producer44"/>
  <entry in="00:00:00.000" out="00:00:04.967" producer="producer45"/>
  <entry in="00:00:00.000" out="00:00:13.367" producer="producer34"/>
  <entry in="00:00:00.000" out="00:00:11.667" producer="producer46"/>
 </playlist>
 <tractor id="tractor7" in="00:00:00.000" out="00:05:00.067">
  <property name="kdenlive:projectTractor">1</property>
  <track in="00:00:00.000" out="00:05:00.067" producer="tractor6"/>
 </tractor>
</mlt>
